{"glyphs":{"0":{"ha":926,"x_min":67,"x_max":860,"o":"m 464 -11 q 260 47 350 -11 q 119 217 171 106 q 67 486 67 328 q 119 756 67 644 q 260 925 171 867 q 464 983 350 983 q 667 925 576 983 q 808 756 757 867 q 860 486 860 644 q 808 217 860 328 q 667 47 757 106 q 464 -11 576 -11 m 464 113 q 598 154 540 113 q 688 279 656 196 q 721 486 721 363 q 688 693 721 610 q 598 818 656 776 q 464 860 540 860 q 329 818 388 860 q 238 693 271 776 q 206 486 206 610 q 238 279 206 363 q 329 154 271 196 q 464 113 388 113 z "},"1":{"ha":514,"x_min":11,"x_max":368,"o":"m 231 0 l 231 917 l 290 851 l 11 851 l 11 972 l 368 972 l 368 0 l 231 0 z "},"2":{"ha":797,"x_min":19,"x_max":750,"o":"m 51 0 l 51 94 l 447 476 q 526 565 500 526 q 560 635 551 603 q 569 699 569 668 q 517 817 569 774 q 363 860 464 860 q 222 834 285 860 q 114 754 160 808 l 19 836 q 169 945 75 907 q 375 983 263 983 q 551 951 476 983 q 667 857 626 918 q 708 713 708 796 q 696 619 708 665 q 649 522 683 574 q 549 407 614 471 l 196 67 l 163 121 l 750 121 l 750 0 l 51 0 z "},"3":{"ha":794,"x_min":7,"x_max":732,"o":"m 364 -11 q 165 21 261 -11 q 7 107 68 53 l 71 217 q 197 142 119 171 q 364 113 275 113 q 533 159 472 113 q 593 285 593 206 q 535 408 593 361 q 353 454 478 454 l 275 454 l 275 551 l 564 907 l 583 851 l 51 851 l 51 972 l 693 972 l 693 878 l 406 524 l 333 567 l 379 567 q 644 488 556 567 q 732 286 732 408 q 692 136 732 204 q 570 28 651 68 q 364 -11 489 -11 z "},"4":{"ha":929,"x_min":53,"x_max":913,"o":"m 53 239 l 53 336 l 550 972 l 700 972 l 207 336 l 136 358 l 913 358 l 913 239 l 53 239 m 593 0 l 593 239 l 597 358 l 597 569 l 728 569 l 728 0 l 593 0 z "},"5":{"ha":797,"x_min":24,"x_max":749,"o":"m 381 -11 q 181 21 278 -11 q 24 107 85 53 l 88 217 q 214 142 136 171 q 379 113 292 113 q 550 160 490 113 q 610 286 610 207 q 583 381 610 340 q 492 442 557 421 q 315 464 428 464 l 94 464 l 146 972 l 694 972 l 694 851 l 197 851 l 269 919 l 229 518 l 157 585 l 344 585 q 579 547 490 585 q 708 444 668 510 q 749 292 749 378 q 708 140 749 208 q 587 30 668 71 q 381 -11 506 -11 z "},"6":{"ha":857,"x_min":67,"x_max":819,"o":"m 475 -11 q 254 46 346 -11 q 115 210 163 103 q 67 474 67 318 q 125 753 67 639 q 288 925 183 867 q 526 983 392 983 q 659 969 596 983 q 768 926 722 956 l 715 818 q 630 854 678 844 q 529 864 582 864 q 293 772 381 864 q 206 497 206 679 q 208 428 206 468 q 222 349 211 388 l 175 396 q 241 503 196 460 q 349 569 286 547 q 486 590 413 590 q 658 554 583 590 q 776 452 733 518 q 819 296 819 386 q 774 133 819 203 q 650 26 728 64 q 475 -11 572 -11 m 469 101 q 581 125 533 101 q 657 191 629 149 q 685 290 685 233 q 625 427 685 376 q 463 478 565 478 q 346 453 396 478 q 267 385 296 428 q 239 289 239 343 q 265 197 239 239 q 343 128 292 154 q 469 101 394 101 z "},"7":{"ha":831,"x_min":42,"x_max":775,"o":"m 235 0 l 647 914 l 683 851 l 106 851 l 175 919 l 175 678 l 42 678 l 42 972 l 775 972 l 775 878 l 382 0 l 235 0 z "},"8":{"ha":894,"x_min":61,"x_max":833,"o":"m 446 -11 q 242 24 328 -11 q 108 123 156 58 q 61 275 61 188 q 106 422 61 361 q 238 513 151 482 q 446 544 324 544 q 655 513 568 544 q 788 421 742 482 q 833 275 833 360 q 786 123 833 188 q 651 24 739 58 q 446 -11 564 -11 m 446 101 q 628 149 563 101 q 694 279 694 197 q 628 406 694 360 q 446 453 563 453 q 265 406 331 453 q 200 279 200 360 q 265 149 200 197 q 446 101 331 101 m 446 469 q 257 499 335 469 q 138 585 179 529 q 96 719 96 642 q 140 860 96 801 q 263 951 183 919 q 446 983 342 983 q 631 951 551 983 q 754 860 710 919 q 799 719 799 801 q 757 585 799 642 q 636 499 715 529 q 446 469 557 469 m 446 558 q 605 600 547 558 q 663 714 663 642 q 603 829 663 788 q 446 871 543 871 q 291 829 349 871 q 233 714 233 788 q 290 600 233 642 q 446 558 346 558 z "},"9":{"ha":857,"x_min":39,"x_max":790,"o":"m 382 983 q 605 926 514 983 q 743 762 696 869 q 790 499 790 654 q 732 219 790 333 q 571 47 674 106 q 331 -11 468 -11 q 199 3 263 -11 q 89 46 136 17 l 142 154 q 228 119 181 129 q 329 108 276 108 q 564 201 476 108 q 651 475 651 293 q 649 544 651 504 q 636 624 646 585 l 682 576 q 617 469 663 513 q 509 403 572 425 q 371 382 446 382 q 200 418 275 382 q 82 520 125 454 q 39 676 39 586 q 84 840 39 771 q 208 946 129 908 q 382 983 286 983 m 388 871 q 276 847 325 871 q 201 782 228 824 q 174 682 174 740 q 233 545 174 596 q 394 494 293 494 q 512 519 461 494 q 591 588 563 544 q 619 683 619 631 q 593 776 619 735 q 515 844 567 818 q 388 871 464 871 z "},"A":{"ha":1017,"x_min":-1,"x_max":1018,"o":"m -1 0 l 439 972 l 576 972 l 1018 0 l 872 0 l 479 894 l 535 894 l 142 0 l -1 0 m 186 243 l 224 354 l 771 354 l 811 243 l 186 243 z "},"Á":{"ha":1017,"x_min":-1,"x_max":1018,"o":"m -1 0 l 439 972 l 576 972 l 1018 0 l 872 0 l 479 894 l 535 894 l 142 0 l -1 0 m 186 243 l 224 354 l 771 354 l 811 243 l 186 243 z "},"Ă":{"ha":1017,"x_min":-1,"x_max":1018,"o":"m -1 0 l 439 972 l 576 972 l 1018 0 l 872 0 l 479 894 l 535 894 l 142 0 l -1 0 m 186 243 l 224 354 l 771 354 l 811 243 l 186 243 z "},"Ắ":{"ha":1017,"x_min":-1,"x_max":1018,"o":"m -1 0 l 439 972 l 576 972 l 1018 0 l 872 0 l 479 894 l 535 894 l 142 0 l -1 0 m 186 243 l 224 354 l 771 354 l 811 243 l 186 243 z "},"Ặ":{"ha":1017,"x_min":-1,"x_max":1018,"o":"m -1 0 l 439 972 l 576 972 l 1018 0 l 872 0 l 479 894 l 535 894 l 142 0 l -1 0 m 186 243 l 224 354 l 771 354 l 811 243 l 186 243 m 508 -272 q 458 -253 479 -272 q 438 -203 438 -233 q 458 -151 438 -171 q 508 -131 479 -131 q 558 -151 538 -131 q 579 -203 579 -171 q 558 -253 579 -233 q 508 -272 538 -272 z "},"Ằ":{"ha":1017,"x_min":-1,"x_max":1018,"o":"m -1 0 l 439 972 l 576 972 l 1018 0 l 872 0 l 479 894 l 535 894 l 142 0 l -1 0 m 186 243 l 224 354 l 771 354 l 811 243 l 186 243 z "},"Ẳ":{"ha":1017,"x_min":-1,"x_max":1018,"o":"m -1 0 l 439 972 l 576 972 l 1018 0 l 872 0 l 479 894 l 535 894 l 142 0 l -1 0 m 186 243 l 224 354 l 771 354 l 811 243 l 186 243 z "},"Ẵ":{"ha":1017,"x_min":-1,"x_max":1018,"o":"m -1 0 l 439 972 l 576 972 l 1018 0 l 872 0 l 479 894 l 535 894 l 142 0 l -1 0 m 186 243 l 224 354 l 771 354 l 811 243 l 186 243 z "},"Ǎ":{"ha":1017,"x_min":-1,"x_max":1018,"o":"m -1 0 l 439 972 l 576 972 l 1018 0 l 872 0 l 479 894 l 535 894 l 142 0 l -1 0 m 186 243 l 224 354 l 771 354 l 811 243 l 186 243 z "},"Â":{"ha":1017,"x_min":-1,"x_max":1018,"o":"m -1 0 l 439 972 l 576 972 l 1018 0 l 872 0 l 479 894 l 535 894 l 142 0 l -1 0 m 186 243 l 224 354 l 771 354 l 811 243 l 186 243 z "},"Ấ":{"ha":1017,"x_min":-1,"x_max":1018,"o":"m -1 0 l 439 972 l 576 972 l 1018 0 l 872 0 l 479 894 l 535 894 l 142 0 l -1 0 m 186 243 l 224 354 l 771 354 l 811 243 l 186 243 z "},"Ậ":{"ha":1017,"x_min":-1,"x_max":1018,"o":"m -1 0 l 439 972 l 576 972 l 1018 0 l 872 0 l 479 894 l 535 894 l 142 0 l -1 0 m 186 243 l 224 354 l 771 354 l 811 243 l 186 243 m 508 -272 q 458 -253 479 -272 q 438 -203 438 -233 q 458 -151 438 -171 q 508 -131 479 -131 q 558 -151 538 -131 q 579 -203 579 -171 q 558 -253 579 -233 q 508 -272 538 -272 z "},"Ầ":{"ha":1017,"x_min":-1,"x_max":1018,"o":"m -1 0 l 439 972 l 576 972 l 1018 0 l 872 0 l 479 894 l 535 894 l 142 0 l -1 0 m 186 243 l 224 354 l 771 354 l 811 243 l 186 243 z "},"Ẩ":{"ha":1017,"x_min":-1,"x_max":1018,"o":"m -1 0 l 439 972 l 576 972 l 1018 0 l 872 0 l 479 894 l 535 894 l 142 0 l -1 0 m 186 243 l 224 354 l 771 354 l 811 243 l 186 243 z "},"Ẫ":{"ha":1017,"x_min":-1,"x_max":1018,"o":"m -1 0 l 439 972 l 576 972 l 1018 0 l 872 0 l 479 894 l 535 894 l 142 0 l -1 0 m 186 243 l 224 354 l 771 354 l 811 243 l 186 243 z "},"Ȁ":{"ha":1017,"x_min":-1,"x_max":1018,"o":"m -1 0 l 439 972 l 576 972 l 1018 0 l 872 0 l 479 894 l 535 894 l 142 0 l -1 0 m 186 243 l 224 354 l 771 354 l 811 243 l 186 243 z "},"Ä":{"ha":1017,"x_min":-1,"x_max":1018,"o":"m -1 0 l 439 972 l 576 972 l 1018 0 l 872 0 l 479 894 l 535 894 l 142 0 l -1 0 m 186 243 l 224 354 l 771 354 l 811 243 l 186 243 z "},"Ạ":{"ha":1017,"x_min":-1,"x_max":1018,"o":"m -1 0 l 439 972 l 576 972 l 1018 0 l 872 0 l 479 894 l 535 894 l 142 0 l -1 0 m 186 243 l 224 354 l 771 354 l 811 243 l 186 243 m 508 -272 q 458 -253 479 -272 q 438 -203 438 -233 q 458 -151 438 -171 q 508 -131 479 -131 q 558 -151 538 -131 q 579 -203 579 -171 q 558 -253 579 -233 q 508 -272 538 -272 z "},"À":{"ha":1017,"x_min":-1,"x_max":1018,"o":"m -1 0 l 439 972 l 576 972 l 1018 0 l 872 0 l 479 894 l 535 894 l 142 0 l -1 0 m 186 243 l 224 354 l 771 354 l 811 243 l 186 243 z "},"Ả":{"ha":1017,"x_min":-1,"x_max":1018,"o":"m -1 0 l 439 972 l 576 972 l 1018 0 l 872 0 l 479 894 l 535 894 l 142 0 l -1 0 m 186 243 l 224 354 l 771 354 l 811 243 l 186 243 z "},"Ȃ":{"ha":1017,"x_min":-1,"x_max":1018,"o":"m -1 0 l 439 972 l 576 972 l 1018 0 l 872 0 l 479 894 l 535 894 l 142 0 l -1 0 m 186 243 l 224 354 l 771 354 l 811 243 l 186 243 z "},"Ā":{"ha":1017,"x_min":-1,"x_max":1018,"o":"m -1 0 l 439 972 l 576 972 l 1018 0 l 872 0 l 479 894 l 535 894 l 142 0 l -1 0 m 186 243 l 224 354 l 771 354 l 811 243 l 186 243 z "},"Ą":{"ha":1017,"x_min":-1,"x_max":1049,"o":"m -1 0 l 439 972 l 576 972 l 1018 0 l 872 0 l 479 894 l 535 894 l 142 0 l -1 0 m 186 243 l 224 354 l 771 354 l 811 243 l 186 243 m 924 -311 q 801 -272 846 -311 q 757 -171 757 -233 q 776 -96 757 -133 q 839 -22 794 -58 q 956 44 883 14 l 1018 0 q 921 -54 957 -28 q 869 -107 885 -81 q 853 -161 853 -133 q 877 -215 853 -196 q 938 -233 901 -233 q 984 -226 961 -233 q 1024 -210 1007 -219 l 1049 -278 q 991 -302 1024 -293 q 924 -311 958 -311 z "},"Å":{"ha":1017,"x_min":-1,"x_max":1018,"o":"m -1 0 l 439 972 l 576 972 l 1018 0 l 872 0 l 479 894 l 535 894 l 142 0 l -1 0 m 186 243 l 224 354 l 771 354 l 811 243 l 186 243 m 507 1061 q 429 1082 464 1061 q 374 1136 394 1103 q 354 1211 354 1169 q 374 1288 354 1253 q 429 1343 394 1322 q 507 1364 464 1364 q 586 1343 551 1364 q 641 1288 621 1322 q 661 1211 661 1253 q 641 1136 661 1169 q 586 1082 621 1103 q 507 1061 551 1061 m 507 1119 q 573 1146 547 1119 q 599 1211 599 1172 q 573 1278 599 1251 q 507 1304 547 1304 q 442 1278 468 1304 q 417 1211 417 1253 q 442 1146 417 1172 q 507 1119 467 1119 z "},"Ǻ":{"ha":1017,"x_min":-1,"x_max":1018,"o":"m -1 0 l 439 972 l 576 972 l 1018 0 l 872 0 l 479 894 l 535 894 l 142 0 l -1 0 m 186 243 l 224 354 l 771 354 l 811 243 l 186 243 m 507 1061 q 429 1082 464 1061 q 374 1136 394 1103 q 354 1211 354 1169 q 374 1288 354 1253 q 429 1343 394 1322 q 507 1364 464 1364 q 586 1343 551 1364 q 641 1288 621 1322 q 661 1211 661 1253 q 641 1136 661 1169 q 586 1082 621 1103 q 507 1061 551 1061 m 507 1119 q 573 1146 547 1119 q 599 1211 599 1172 q 573 1278 599 1251 q 507 1304 547 1304 q 442 1278 468 1304 q 417 1211 417 1253 q 442 1146 417 1172 q 507 1119 467 1119 m 621 1288 l 550 1313 l 699 1463 l 768 1406 l 621 1288 z "},"Ã":{"ha":1017,"x_min":-1,"x_max":1018,"o":"m -1 0 l 439 972 l 576 972 l 1018 0 l 872 0 l 479 894 l 535 894 l 142 0 l -1 0 m 186 243 l 224 354 l 771 354 l 811 243 l 186 243 z "},"Æ":{"ha":1454,"x_min":-1,"x_max":1376,"o":"m -1 0 l 578 972 l 717 972 l 717 851 l 594 851 l 679 913 l 142 0 l -1 0 m 246 243 l 254 354 l 717 354 l 717 243 l 246 243 m 797 553 l 1296 553 l 1296 435 l 796 435 l 797 553 m 808 121 l 1376 121 l 1376 0 l 671 0 l 671 972 l 1357 972 l 1357 851 l 808 851 l 808 121 z "},"Ǽ":{"ha":1454,"x_min":-1,"x_max":1376,"o":"m -1 0 l 578 972 l 717 972 l 717 851 l 594 851 l 679 913 l 142 0 l -1 0 m 246 243 l 254 354 l 717 354 l 717 243 l 246 243 m 797 553 l 1296 553 l 1296 435 l 796 435 l 797 553 m 808 121 l 1376 121 l 1376 0 l 671 0 l 671 972 l 1357 972 l 1357 851 l 808 851 l 808 121 z "},"B":{"ha":1051,"x_min":146,"x_max":982,"o":"m 146 0 l 146 972 l 582 972 q 840 905 750 972 q 931 721 931 838 q 895 588 931 642 q 800 504 860 533 q 671 475 740 475 l 696 517 q 843 488 779 517 q 944 402 907 458 q 982 263 982 346 q 888 69 982 138 q 610 0 794 0 l 146 0 m 285 113 l 604 113 q 781 151 719 113 q 842 274 842 190 q 781 397 842 358 q 604 436 719 436 l 272 436 l 272 549 l 569 549 q 733 588 675 549 q 792 704 792 626 q 733 821 792 782 q 569 860 675 860 l 285 860 l 285 113 z "},"C":{"ha":1004,"x_min":67,"x_max":951,"o":"m 581 -11 q 376 26 469 -11 q 213 130 282 63 q 106 288 144 197 q 67 486 67 378 q 106 685 67 594 q 214 842 144 775 q 377 947 283 910 q 582 983 471 983 q 790 945 694 983 q 951 832 885 907 l 861 744 q 736 831 806 803 q 588 860 667 860 q 435 832 506 860 q 314 754 365 804 q 234 635 263 704 q 206 486 206 567 q 234 337 206 406 q 314 218 263 268 q 435 140 365 168 q 588 113 506 113 q 736 141 667 113 q 861 229 806 169 l 951 142 q 790 28 885 67 q 581 -11 694 -11 z "},"Ć":{"ha":1004,"x_min":67,"x_max":951,"o":"m 581 -11 q 376 26 469 -11 q 213 130 282 63 q 106 288 144 197 q 67 486 67 378 q 106 685 67 594 q 214 842 144 775 q 377 947 283 910 q 582 983 471 983 q 790 945 694 983 q 951 832 885 907 l 861 744 q 736 831 806 803 q 588 860 667 860 q 435 832 506 860 q 314 754 365 804 q 234 635 263 704 q 206 486 206 567 q 234 337 206 406 q 314 218 263 268 q 435 140 365 168 q 588 113 506 113 q 736 141 667 113 q 861 229 806 169 l 951 142 q 790 28 885 67 q 581 -11 694 -11 z "},"Č":{"ha":1004,"x_min":67,"x_max":951,"o":"m 581 -11 q 376 26 469 -11 q 213 130 282 63 q 106 288 144 197 q 67 486 67 378 q 106 685 67 594 q 214 842 144 775 q 377 947 283 910 q 582 983 471 983 q 790 945 694 983 q 951 832 885 907 l 861 744 q 736 831 806 803 q 588 860 667 860 q 435 832 506 860 q 314 754 365 804 q 234 635 263 704 q 206 486 206 567 q 234 337 206 406 q 314 218 263 268 q 435 140 365 168 q 588 113 506 113 q 736 141 667 113 q 861 229 806 169 l 951 142 q 790 28 885 67 q 581 -11 694 -11 z "},"Ç":{"ha":1004,"x_min":67,"x_max":951,"o":"m 581 -11 q 376 26 469 -11 q 213 130 282 63 q 106 288 144 197 q 67 486 67 378 q 106 685 67 594 q 214 842 144 775 q 377 947 283 910 q 582 983 471 983 q 790 945 694 983 q 951 832 885 907 l 861 744 q 736 831 806 803 q 588 860 667 860 q 435 832 506 860 q 314 754 365 804 q 234 635 263 704 q 206 486 206 567 q 234 337 206 406 q 314 218 263 268 q 435 140 365 168 q 588 113 506 113 q 736 141 667 113 q 861 229 806 169 l 951 142 q 790 28 885 67 q 581 -11 694 -11 m 524 -311 q 457 -303 488 -311 q 400 -281 426 -296 l 429 -212 q 474 -231 451 -225 q 524 -236 497 -236 q 583 -222 564 -236 q 601 -181 601 -207 q 583 -141 601 -156 q 522 -126 564 -126 l 485 -126 l 519 10 l 596 10 l 575 -69 q 665 -107 635 -75 q 696 -185 696 -139 q 649 -277 696 -243 q 524 -311 601 -311 z "},"Ḉ":{"ha":1004,"x_min":67,"x_max":951,"o":"m 581 -11 q 376 26 469 -11 q 213 130 282 63 q 106 288 144 197 q 67 486 67 378 q 106 685 67 594 q 214 842 144 775 q 377 947 283 910 q 582 983 471 983 q 790 945 694 983 q 951 832 885 907 l 861 744 q 736 831 806 803 q 588 860 667 860 q 435 832 506 860 q 314 754 365 804 q 234 635 263 704 q 206 486 206 567 q 234 337 206 406 q 314 218 263 268 q 435 140 365 168 q 588 113 506 113 q 736 141 667 113 q 861 229 806 169 l 951 142 q 790 28 885 67 q 581 -11 694 -11 m 524 -311 q 457 -303 488 -311 q 400 -281 426 -296 l 429 -212 q 474 -231 451 -225 q 524 -236 497 -236 q 583 -222 564 -236 q 601 -181 601 -207 q 583 -141 601 -156 q 522 -126 564 -126 l 485 -126 l 519 10 l 596 10 l 575 -69 q 665 -107 635 -75 q 696 -185 696 -139 q 649 -277 696 -243 q 524 -311 601 -311 z "},"Ĉ":{"ha":1004,"x_min":67,"x_max":951,"o":"m 581 -11 q 376 26 469 -11 q 213 130 282 63 q 106 288 144 197 q 67 486 67 378 q 106 685 67 594 q 214 842 144 775 q 377 947 283 910 q 582 983 471 983 q 790 945 694 983 q 951 832 885 907 l 861 744 q 736 831 806 803 q 588 860 667 860 q 435 832 506 860 q 314 754 365 804 q 234 635 263 704 q 206 486 206 567 q 234 337 206 406 q 314 218 263 268 q 435 140 365 168 q 588 113 506 113 q 736 141 667 113 q 861 229 806 169 l 951 142 q 790 28 885 67 q 581 -11 694 -11 z "},"Ċ":{"ha":1004,"x_min":67,"x_max":951,"o":"m 581 -11 q 376 26 469 -11 q 213 130 282 63 q 106 288 144 197 q 67 486 67 378 q 106 685 67 594 q 214 842 144 775 q 377 947 283 910 q 582 983 471 983 q 790 945 694 983 q 951 832 885 907 l 861 744 q 736 831 806 803 q 588 860 667 860 q 435 832 506 860 q 314 754 365 804 q 234 635 263 704 q 206 486 206 567 q 234 337 206 406 q 314 218 263 268 q 435 140 365 168 q 588 113 506 113 q 736 141 667 113 q 861 229 806 169 l 951 142 q 790 28 885 67 q 581 -11 694 -11 z "},"D":{"ha":1147,"x_min":146,"x_max":1081,"o":"m 146 0 l 146 972 l 556 972 q 830 911 711 972 q 1015 740 949 850 q 1081 486 1081 631 q 1015 232 1081 342 q 830 61 949 122 q 556 0 711 0 l 146 0 m 285 121 l 547 121 q 756 167 668 121 q 893 295 844 213 q 942 486 942 378 q 893 678 942 596 q 756 806 844 760 q 547 851 668 851 l 285 851 l 285 121 z "},"Ǆ":{"ha":2019,"x_min":146,"x_max":1971,"o":"m 146 0 l 146 972 l 556 972 q 830 911 711 972 q 1015 740 949 850 q 1081 486 1081 631 q 1015 232 1081 342 q 830 61 949 122 q 556 0 711 0 l 146 0 m 285 121 l 547 121 q 756 167 668 121 q 893 295 844 213 q 942 486 942 378 q 893 678 942 596 q 756 806 844 760 q 547 851 668 851 l 285 851 l 285 121 z "},"Ð":{"ha":1158,"x_min":14,"x_max":1092,"o":"m 157 0 l 157 972 l 567 972 q 841 911 722 972 q 1026 740 960 850 q 1092 486 1092 631 q 1026 232 1092 342 q 841 61 960 122 q 567 0 722 0 l 157 0 m 296 121 l 558 121 q 767 167 679 121 q 904 295 856 213 q 953 486 953 378 q 904 678 953 596 q 767 806 856 760 q 558 851 679 851 l 296 851 l 296 121 m 14 440 l 14 550 l 569 550 l 569 440 l 14 440 z "},"Ď":{"ha":1147,"x_min":146,"x_max":1081,"o":"m 146 0 l 146 972 l 556 972 q 830 911 711 972 q 1015 740 949 850 q 1081 486 1081 631 q 1015 232 1081 342 q 830 61 949 122 q 556 0 711 0 l 146 0 m 285 121 l 547 121 q 756 167 668 121 q 893 295 844 213 q 942 486 942 378 q 893 678 942 596 q 756 806 844 760 q 547 851 668 851 l 285 851 l 285 121 z "},"Đ":{"ha":1158,"x_min":14,"x_max":1092,"o":"m 157 0 l 157 972 l 567 972 q 841 911 722 972 q 1026 740 960 850 q 1092 486 1092 631 q 1026 232 1092 342 q 841 61 960 122 q 567 0 722 0 l 157 0 m 296 121 l 558 121 q 767 167 679 121 q 904 295 856 213 q 953 486 953 378 q 904 678 953 596 q 767 806 856 760 q 558 851 679 851 l 296 851 l 296 121 m 14 440 l 14 550 l 569 550 l 569 440 l 14 440 z "},"Ḍ":{"ha":1147,"x_min":146,"x_max":1081,"o":"m 146 0 l 146 972 l 556 972 q 830 911 711 972 q 1015 740 949 850 q 1081 486 1081 631 q 1015 232 1081 342 q 830 61 949 122 q 556 0 711 0 l 146 0 m 285 121 l 547 121 q 756 167 668 121 q 893 295 844 213 q 942 486 942 378 q 893 678 942 596 q 756 806 844 760 q 547 851 668 851 l 285 851 l 285 121 m 532 -272 q 482 -253 503 -272 q 461 -203 461 -233 q 482 -151 461 -171 q 532 -131 503 -131 q 582 -151 561 -131 q 603 -203 603 -171 q 582 -253 603 -233 q 532 -272 561 -272 z "},"Ḏ":{"ha":1147,"x_min":146,"x_max":1081,"o":"m 146 0 l 146 972 l 556 972 q 830 911 711 972 q 1015 740 949 850 q 1081 486 1081 631 q 1015 232 1081 342 q 830 61 949 122 q 556 0 711 0 l 146 0 m 285 121 l 547 121 q 756 167 668 121 q 893 295 844 213 q 942 486 942 378 q 893 678 942 596 q 756 806 844 760 q 547 851 668 851 l 285 851 l 285 121 m 306 -242 l 306 -157 l 758 -157 l 758 -242 l 306 -242 z "},"ǅ":{"ha":1871,"x_min":146,"x_max":1819,"o":"m 146 0 l 146 972 l 556 972 q 830 911 711 972 q 1015 740 949 850 q 1081 486 1081 631 q 1015 232 1081 342 q 830 61 949 122 q 556 0 711 0 l 146 0 m 285 121 l 547 121 q 756 167 668 121 q 893 295 844 213 q 942 486 942 378 q 893 678 942 596 q 756 806 844 760 q 547 851 668 851 l 285 851 l 285 121 z "},"E":{"ha":931,"x_min":146,"x_max":851,"o":"m 272 553 l 772 553 l 772 435 l 272 435 l 272 553 m 285 121 l 851 121 l 851 0 l 146 0 l 146 972 l 832 972 l 832 851 l 285 851 l 285 121 z "},"É":{"ha":931,"x_min":146,"x_max":851,"o":"m 272 553 l 772 553 l 772 435 l 272 435 l 272 553 m 285 121 l 851 121 l 851 0 l 146 0 l 146 972 l 832 972 l 832 851 l 285 851 l 285 121 z "},"Ĕ":{"ha":931,"x_min":146,"x_max":851,"o":"m 272 553 l 772 553 l 772 435 l 272 435 l 272 553 m 285 121 l 851 121 l 851 0 l 146 0 l 146 972 l 832 972 l 832 851 l 285 851 l 285 121 z "},"Ě":{"ha":931,"x_min":146,"x_max":851,"o":"m 272 553 l 772 553 l 772 435 l 272 435 l 272 553 m 285 121 l 851 121 l 851 0 l 146 0 l 146 972 l 832 972 l 832 851 l 285 851 l 285 121 z "},"Ḝ":{"ha":931,"x_min":146,"x_max":851,"o":"m 272 553 l 772 553 l 772 435 l 272 435 l 272 553 m 285 121 l 851 121 l 851 0 l 146 0 l 146 972 l 832 972 l 832 851 l 285 851 l 285 121 m 469 -311 q 403 -303 433 -311 q 346 -281 372 -296 l 375 -212 q 420 -231 397 -225 q 469 -236 443 -236 q 528 -222 510 -236 q 547 -181 547 -207 q 528 -141 547 -156 q 468 -126 510 -126 l 431 -126 l 465 10 l 542 10 l 521 -69 q 611 -107 581 -75 q 642 -185 642 -139 q 594 -277 642 -243 q 469 -311 547 -311 z "},"Ê":{"ha":931,"x_min":146,"x_max":851,"o":"m 272 553 l 772 553 l 772 435 l 272 435 l 272 553 m 285 121 l 851 121 l 851 0 l 146 0 l 146 972 l 832 972 l 832 851 l 285 851 l 285 121 z "},"Ế":{"ha":931,"x_min":146,"x_max":944,"o":"m 272 553 l 772 553 l 772 435 l 272 435 l 272 553 m 285 121 l 851 121 l 851 0 l 146 0 l 146 972 l 832 972 l 832 851 l 285 851 l 285 121 z "},"Ệ":{"ha":931,"x_min":146,"x_max":851,"o":"m 272 553 l 772 553 l 772 435 l 272 435 l 272 553 m 285 121 l 851 121 l 851 0 l 146 0 l 146 972 l 832 972 l 832 851 l 285 851 l 285 121 m 504 -272 q 454 -253 475 -272 q 433 -203 433 -233 q 454 -151 433 -171 q 504 -131 475 -131 q 554 -151 533 -131 q 575 -203 575 -171 q 554 -253 575 -233 q 504 -272 533 -272 z "},"Ề":{"ha":931,"x_min":146,"x_max":851,"o":"m 272 553 l 772 553 l 772 435 l 272 435 l 272 553 m 285 121 l 851 121 l 851 0 l 146 0 l 146 972 l 832 972 l 832 851 l 285 851 l 285 121 z "},"Ể":{"ha":931,"x_min":146,"x_max":851,"o":"m 272 553 l 772 553 l 772 435 l 272 435 l 272 553 m 285 121 l 851 121 l 851 0 l 146 0 l 146 972 l 832 972 l 832 851 l 285 851 l 285 121 z "},"Ễ":{"ha":931,"x_min":146,"x_max":851,"o":"m 272 553 l 772 553 l 772 435 l 272 435 l 272 553 m 285 121 l 851 121 l 851 0 l 146 0 l 146 972 l 832 972 l 832 851 l 285 851 l 285 121 z "},"Ȅ":{"ha":931,"x_min":146,"x_max":851,"o":"m 272 553 l 772 553 l 772 435 l 272 435 l 272 553 m 285 121 l 851 121 l 851 0 l 146 0 l 146 972 l 832 972 l 832 851 l 285 851 l 285 121 z "},"Ë":{"ha":931,"x_min":146,"x_max":851,"o":"m 272 553 l 772 553 l 772 435 l 272 435 l 272 553 m 285 121 l 851 121 l 851 0 l 146 0 l 146 972 l 832 972 l 832 851 l 285 851 l 285 121 z "},"Ė":{"ha":931,"x_min":146,"x_max":851,"o":"m 272 553 l 772 553 l 772 435 l 272 435 l 272 553 m 285 121 l 851 121 l 851 0 l 146 0 l 146 972 l 832 972 l 832 851 l 285 851 l 285 121 z "},"Ẹ":{"ha":931,"x_min":146,"x_max":851,"o":"m 272 553 l 772 553 l 772 435 l 272 435 l 272 553 m 285 121 l 851 121 l 851 0 l 146 0 l 146 972 l 832 972 l 832 851 l 285 851 l 285 121 m 504 -272 q 454 -253 475 -272 q 433 -203 433 -233 q 454 -151 433 -171 q 504 -131 475 -131 q 554 -151 533 -131 q 575 -203 575 -171 q 554 -253 575 -233 q 504 -272 533 -272 z "},"È":{"ha":931,"x_min":146,"x_max":851,"o":"m 272 553 l 772 553 l 772 435 l 272 435 l 272 553 m 285 121 l 851 121 l 851 0 l 146 0 l 146 972 l 832 972 l 832 851 l 285 851 l 285 121 z "},"Ẻ":{"ha":931,"x_min":146,"x_max":851,"o":"m 272 553 l 772 553 l 772 435 l 272 435 l 272 553 m 285 121 l 851 121 l 851 0 l 146 0 l 146 972 l 832 972 l 832 851 l 285 851 l 285 121 z "},"Ȇ":{"ha":931,"x_min":146,"x_max":851,"o":"m 272 553 l 772 553 l 772 435 l 272 435 l 272 553 m 285 121 l 851 121 l 851 0 l 146 0 l 146 972 l 832 972 l 832 851 l 285 851 l 285 121 z "},"Ē":{"ha":931,"x_min":146,"x_max":851,"o":"m 272 553 l 772 553 l 772 435 l 272 435 l 272 553 m 285 121 l 851 121 l 851 0 l 146 0 l 146 972 l 832 972 l 832 851 l 285 851 l 285 121 z "},"Ḗ":{"ha":931,"x_min":146,"x_max":851,"o":"m 272 553 l 772 553 l 772 435 l 272 435 l 272 553 m 285 121 l 851 121 l 851 0 l 146 0 l 146 972 l 832 972 l 832 851 l 285 851 l 285 121 z "},"Ḕ":{"ha":931,"x_min":146,"x_max":851,"o":"m 272 553 l 772 553 l 772 435 l 272 435 l 272 553 m 285 121 l 851 121 l 851 0 l 146 0 l 146 972 l 832 972 l 832 851 l 285 851 l 285 121 z "},"Ę":{"ha":931,"x_min":146,"x_max":883,"o":"m 272 553 l 772 553 l 772 435 l 272 435 l 272 553 m 285 121 l 851 121 l 851 0 l 146 0 l 146 972 l 832 972 l 832 851 l 285 851 l 285 121 m 757 -311 q 635 -272 679 -311 q 590 -171 590 -233 q 609 -96 590 -133 q 672 -22 628 -58 q 789 44 717 14 l 851 0 q 754 -54 790 -28 q 702 -107 718 -81 q 686 -161 686 -133 q 710 -215 686 -196 q 771 -233 735 -233 q 817 -226 794 -233 q 857 -210 840 -219 l 882 -278 q 824 -302 857 -293 q 757 -311 792 -311 z "},"Ẽ":{"ha":931,"x_min":146,"x_max":851,"o":"m 272 553 l 772 553 l 772 435 l 272 435 l 272 553 m 285 121 l 851 121 l 851 0 l 146 0 l 146 972 l 832 972 l 832 851 l 285 851 l 285 121 z "},"Ʒ":{"ha":865,"x_min":43,"x_max":797,"o":"m 413 -11 q 202 21 301 -11 q 43 106 103 53 l 94 215 q 229 140 146 169 q 410 110 313 110 q 592 157 528 110 q 657 286 657 204 q 594 410 657 364 q 400 456 532 456 l 319 456 l 319 551 l 633 907 l 646 854 l 81 854 l 81 972 l 751 972 l 751 878 l 439 524 l 379 564 l 425 564 q 632 529 550 564 q 756 431 714 494 q 797 286 797 368 q 755 136 797 204 q 628 28 713 68 q 413 -11 543 -11 z "},"Ǯ":{"ha":865,"x_min":43,"x_max":797,"o":"m 413 -11 q 202 21 301 -11 q 43 106 103 53 l 94 215 q 229 140 146 169 q 410 110 313 110 q 592 157 528 110 q 657 286 657 204 q 594 410 657 364 q 400 456 532 456 l 319 456 l 319 551 l 633 907 l 646 854 l 81 854 l 81 972 l 751 972 l 751 878 l 439 524 l 379 564 l 425 564 q 632 529 550 564 q 756 431 714 494 q 797 286 797 368 q 755 136 797 204 q 628 28 713 68 q 413 -11 543 -11 z "},"F":{"ha":882,"x_min":146,"x_max":832,"o":"m 271 513 l 772 513 l 772 393 l 271 393 l 271 513 m 285 0 l 146 0 l 146 972 l 832 972 l 832 851 l 285 851 l 285 0 z "},"G":{"ha":1072,"x_min":67,"x_max":961,"o":"m 585 -11 q 378 26 472 -11 q 214 130 283 63 q 106 288 144 197 q 67 486 67 378 q 106 685 67 594 q 215 842 144 775 q 379 947 285 910 q 588 983 474 983 q 799 946 703 983 q 961 833 894 908 l 875 747 q 745 833 815 806 q 593 860 675 860 q 438 832 510 860 q 315 754 367 804 q 234 635 263 704 q 206 486 206 567 q 234 338 206 407 q 315 219 263 269 q 438 140 367 168 q 592 113 508 113 q 741 137 669 113 q 874 218 813 161 l 953 113 q 784 20 881 51 q 585 -11 688 -11 m 819 131 l 819 492 l 953 492 l 953 113 l 819 131 z "},"Ğ":{"ha":1072,"x_min":67,"x_max":961,"o":"m 585 -11 q 378 26 472 -11 q 214 130 283 63 q 106 288 144 197 q 67 486 67 378 q 106 685 67 594 q 215 842 144 775 q 379 947 285 910 q 588 983 474 983 q 799 946 703 983 q 961 833 894 908 l 875 747 q 745 833 815 806 q 593 860 675 860 q 438 832 510 860 q 315 754 367 804 q 234 635 263 704 q 206 486 206 567 q 234 338 206 407 q 315 219 263 269 q 438 140 367 168 q 592 113 508 113 q 741 137 669 113 q 874 218 813 161 l 953 113 q 784 20 881 51 q 585 -11 688 -11 m 819 131 l 819 492 l 953 492 l 953 113 l 819 131 z "},"Ǧ":{"ha":1072,"x_min":67,"x_max":961,"o":"m 585 -11 q 378 26 472 -11 q 214 130 283 63 q 106 288 144 197 q 67 486 67 378 q 106 685 67 594 q 215 842 144 775 q 379 947 285 910 q 588 983 474 983 q 799 946 703 983 q 961 833 894 908 l 875 747 q 745 833 815 806 q 593 860 675 860 q 438 832 510 860 q 315 754 367 804 q 234 635 263 704 q 206 486 206 567 q 234 338 206 407 q 315 219 263 269 q 438 140 367 168 q 592 113 508 113 q 741 137 669 113 q 874 218 813 161 l 953 113 q 784 20 881 51 q 585 -11 688 -11 m 819 131 l 819 492 l 953 492 l 953 113 l 819 131 z "},"Ĝ":{"ha":1072,"x_min":67,"x_max":961,"o":"m 585 -11 q 378 26 472 -11 q 214 130 283 63 q 106 288 144 197 q 67 486 67 378 q 106 685 67 594 q 215 842 144 775 q 379 947 285 910 q 588 983 474 983 q 799 946 703 983 q 961 833 894 908 l 875 747 q 745 833 815 806 q 593 860 675 860 q 438 832 510 860 q 315 754 367 804 q 234 635 263 704 q 206 486 206 567 q 234 338 206 407 q 315 219 263 269 q 438 140 367 168 q 592 113 508 113 q 741 137 669 113 q 874 218 813 161 l 953 113 q 784 20 881 51 q 585 -11 688 -11 m 819 131 l 819 492 l 953 492 l 953 113 l 819 131 z "},"Ģ":{"ha":1072,"x_min":67,"x_max":961,"o":"m 585 -11 q 378 26 472 -11 q 214 130 283 63 q 106 288 144 197 q 67 486 67 378 q 106 685 67 594 q 215 842 144 775 q 379 947 285 910 q 588 983 474 983 q 799 946 703 983 q 961 833 894 908 l 875 747 q 745 833 815 806 q 593 860 675 860 q 438 832 510 860 q 315 754 367 804 q 234 635 263 704 q 206 486 206 567 q 234 338 206 407 q 315 219 263 269 q 438 140 367 168 q 592 113 508 113 q 741 137 669 113 q 874 218 813 161 l 953 113 q 784 20 881 51 q 585 -11 688 -11 m 819 131 l 819 492 l 953 492 l 953 113 l 819 131 m 504 -365 l 550 -207 l 563 -257 q 510 -240 529 -257 q 492 -194 492 -222 q 511 -149 492 -167 q 563 -131 531 -131 q 615 -149 596 -131 q 633 -194 633 -168 q 630 -226 633 -208 q 615 -265 626 -244 l 574 -365 l 504 -365 z "},"Ġ":{"ha":1072,"x_min":67,"x_max":961,"o":"m 585 -11 q 378 26 472 -11 q 214 130 283 63 q 106 288 144 197 q 67 486 67 378 q 106 685 67 594 q 215 842 144 775 q 379 947 285 910 q 588 983 474 983 q 799 946 703 983 q 961 833 894 908 l 875 747 q 745 833 815 806 q 593 860 675 860 q 438 832 510 860 q 315 754 367 804 q 234 635 263 704 q 206 486 206 567 q 234 338 206 407 q 315 219 263 269 q 438 140 367 168 q 592 113 508 113 q 741 137 669 113 q 874 218 813 161 l 953 113 q 784 20 881 51 q 585 -11 688 -11 m 819 131 l 819 492 l 953 492 l 953 113 l 819 131 z "},"Ḡ":{"ha":1072,"x_min":67,"x_max":961,"o":"m 585 -11 q 378 26 472 -11 q 214 130 283 63 q 106 288 144 197 q 67 486 67 378 q 106 685 67 594 q 215 842 144 775 q 379 947 285 910 q 588 983 474 983 q 799 946 703 983 q 961 833 894 908 l 875 747 q 745 833 815 806 q 593 860 675 860 q 438 832 510 860 q 315 754 367 804 q 234 635 263 704 q 206 486 206 567 q 234 338 206 407 q 315 219 263 269 q 438 140 367 168 q 592 113 508 113 q 741 137 669 113 q 874 218 813 161 l 953 113 q 784 20 881 51 q 585 -11 688 -11 m 819 131 l 819 492 l 953 492 l 953 113 l 819 131 z "},"Ǥ":{"ha":1121,"x_min":67,"x_max":1089,"o":"m 557 275 l 557 385 l 1089 385 l 1089 275 l 557 275 m 585 -11 q 378 26 472 -11 q 214 130 283 63 q 106 288 144 197 q 67 486 67 378 q 106 685 67 594 q 215 842 144 775 q 379 947 285 910 q 588 983 474 983 q 799 946 703 983 q 961 833 894 908 l 875 747 q 745 833 815 806 q 593 860 675 860 q 438 832 510 860 q 315 754 367 804 q 234 635 263 704 q 206 486 206 567 q 234 338 206 407 q 315 219 263 269 q 438 140 367 168 q 592 113 508 113 q 741 137 669 113 q 874 218 813 161 l 953 113 q 784 20 881 51 q 585 -11 688 -11 m 819 131 l 819 492 l 953 492 l 953 113 l 819 131 z "},"H":{"ha":1128,"x_min":146,"x_max":982,"o":"m 843 972 l 982 972 l 982 0 l 843 0 l 843 972 m 285 0 l 146 0 l 146 972 l 285 972 l 285 0 m 856 433 l 271 433 l 271 554 l 856 554 l 856 433 z "},"Ħ":{"ha":1149,"x_min":13,"x_max":1133,"o":"m 854 972 l 993 972 l 993 0 l 854 0 l 854 972 m 296 0 l 157 0 l 157 972 l 296 972 l 296 0 m 867 433 l 282 433 l 282 554 l 867 554 l 867 433 m 13 714 l 13 824 l 1133 824 l 1133 714 l 13 714 z "},"Ḫ":{"ha":1128,"x_min":146,"x_max":982,"o":"m 843 972 l 982 972 l 982 0 l 843 0 l 843 972 m 285 0 l 146 0 l 146 972 l 285 972 l 285 0 m 856 433 l 271 433 l 271 554 l 856 554 l 856 433 m 563 -290 q 404 -242 468 -290 q 338 -112 340 -193 l 425 -112 q 465 -189 425 -161 q 563 -217 504 -217 q 660 -189 621 -217 q 700 -112 700 -161 l 788 -112 q 721 -242 785 -193 q 563 -290 657 -290 z "},"Ȟ":{"ha":1128,"x_min":146,"x_max":982,"o":"m 843 972 l 982 972 l 982 0 l 843 0 l 843 972 m 285 0 l 146 0 l 146 972 l 285 972 l 285 0 m 856 433 l 271 433 l 271 554 l 856 554 l 856 433 z "},"Ĥ":{"ha":1128,"x_min":146,"x_max":982,"o":"m 843 972 l 982 972 l 982 0 l 843 0 l 843 972 m 285 0 l 146 0 l 146 972 l 285 972 l 285 0 m 856 433 l 271 433 l 271 554 l 856 554 l 856 433 z "},"Ḥ":{"ha":1128,"x_min":146,"x_max":982,"o":"m 843 972 l 982 972 l 982 0 l 843 0 l 843 972 m 285 0 l 146 0 l 146 972 l 285 972 l 285 0 m 856 433 l 271 433 l 271 554 l 856 554 l 856 433 m 563 -272 q 513 -253 533 -272 q 492 -203 492 -233 q 513 -151 492 -171 q 563 -131 533 -131 q 613 -151 592 -131 q 633 -203 633 -171 q 613 -253 633 -233 q 563 -272 592 -272 z "},"I":{"ha":431,"x_min":146,"x_max":285,"o":"m 146 0 l 146 972 l 285 972 l 285 0 l 146 0 z "},"Ĳ":{"ha":1000,"x_min":121,"x_max":863,"o":"m 454 -11 q 270 16 356 -11 q 121 88 185 43 l 175 199 q 308 135 235 157 q 457 113 381 113 q 654 188 585 113 q 724 419 724 263 l 724 972 l 863 972 l 863 426 q 811 185 863 282 q 669 38 760 88 q 454 -11 578 -11 m 138 429 l 138 972 l 276 972 l 276 429 l 138 429 z "},"Í":{"ha":431,"x_min":110,"x_max":469,"o":"m 146 0 l 146 972 l 285 972 l 285 0 l 146 0 z "},"Ĭ":{"ha":431,"x_min":-11,"x_max":440,"o":"m 146 0 l 146 972 l 285 972 l 285 0 l 146 0 z "},"Î":{"ha":431,"x_min":-33,"x_max":463,"o":"m 146 0 l 146 972 l 285 972 l 285 0 l 146 0 z "},"Ȉ":{"ha":431,"x_min":-114,"x_max":393,"o":"m 146 0 l 146 972 l 285 972 l 285 0 l 146 0 z "},"Ï":{"ha":431,"x_min":15,"x_max":415,"o":"m 146 0 l 146 972 l 285 972 l 285 0 l 146 0 z "},"Ḯ":{"ha":431,"x_min":21,"x_max":435,"o":"m 146 0 l 146 972 l 285 972 l 285 0 l 146 0 z "},"İ":{"ha":431,"x_min":133,"x_max":297,"o":"m 146 0 l 146 972 l 285 972 l 285 0 l 146 0 z "},"Ị":{"ha":431,"x_min":143,"x_max":286,"o":"m 146 0 l 146 972 l 285 972 l 285 0 l 146 0 m 215 -272 q 165 -253 186 -272 q 144 -203 144 -233 q 165 -151 144 -171 q 215 -131 186 -131 q 265 -151 244 -131 q 286 -203 286 -171 q 265 -253 286 -233 q 215 -272 244 -272 z "},"Ì":{"ha":431,"x_min":-39,"x_max":319,"o":"m 146 0 l 146 972 l 285 972 l 285 0 l 146 0 z "},"Ỉ":{"ha":431,"x_min":88,"x_max":356,"o":"m 146 0 l 146 972 l 285 972 l 285 0 l 146 0 z "},"Ȋ":{"ha":431,"x_min":-11,"x_max":440,"o":"m 146 0 l 146 972 l 285 972 l 285 0 l 146 0 z "},"Ī":{"ha":431,"x_min":31,"x_max":400,"o":"m 146 0 l 146 972 l 285 972 l 285 0 l 146 0 z "},"Į":{"ha":431,"x_min":108,"x_max":335,"o":"m 146 0 l 146 972 l 285 972 l 285 0 l 146 0 m 247 -311 q 147 -274 185 -311 q 108 -176 108 -237 q 138 -66 108 -122 q 236 43 167 -10 l 285 0 q 218 -90 233 -50 q 203 -161 203 -129 q 221 -214 203 -194 q 264 -233 239 -233 q 288 -229 276 -233 q 311 -217 300 -225 l 335 -283 q 247 -311 301 -311 z "},"Ĩ":{"ha":431,"x_min":-18,"x_max":449,"o":"m 146 0 l 146 972 l 285 972 l 285 0 l 146 0 z "},"J":{"ha":713,"x_min":-12,"x_max":575,"o":"m 271 -11 q 110 25 185 -11 q -12 129 35 61 l 68 224 q 159 138 108 168 q 271 108 210 108 q 438 306 438 108 l 438 851 l 86 851 l 86 972 l 575 972 l 575 313 q 498 69 575 150 q 271 -11 421 -11 z "},"Ĵ":{"ha":713,"x_min":-12,"x_max":579,"o":"m 271 -11 q 110 25 185 -11 q -12 129 35 61 l 68 224 q 159 138 108 168 q 271 108 210 108 q 438 306 438 108 l 438 851 l 86 851 l 86 972 l 575 972 l 575 313 q 498 69 575 150 q 271 -11 421 -11 z "},"K":{"ha":999,"x_min":146,"x_max":997,"o":"m 268 235 l 261 404 l 813 972 l 971 972 l 544 522 l 467 436 l 268 235 m 146 0 l 146 972 l 285 972 l 285 0 l 146 0 m 835 0 l 436 464 l 529 567 l 997 0 l 835 0 z "},"Ǩ":{"ha":999,"x_min":146,"x_max":997,"o":"m 268 235 l 261 404 l 813 972 l 971 972 l 544 522 l 467 436 l 268 235 m 146 0 l 146 972 l 285 972 l 285 0 l 146 0 m 835 0 l 436 464 l 529 567 l 997 0 l 835 0 z "},"Ķ":{"ha":999,"x_min":146,"x_max":997,"o":"m 268 235 l 261 404 l 813 972 l 971 972 l 544 522 l 467 436 l 268 235 m 146 0 l 146 972 l 285 972 l 285 0 l 146 0 m 835 0 l 436 464 l 529 567 l 997 0 l 835 0 m 463 -365 l 508 -207 l 521 -257 q 469 -240 488 -257 q 450 -194 450 -222 q 469 -149 450 -167 q 521 -131 489 -131 q 573 -149 554 -131 q 592 -194 592 -168 q 588 -226 592 -208 q 574 -265 585 -244 l 532 -365 l 463 -365 z "},"L":{"ha":825,"x_min":146,"x_max":811,"o":"m 146 0 l 146 972 l 285 972 l 285 121 l 811 121 l 811 0 l 146 0 z "},"Ǉ":{"ha":1538,"x_min":146,"x_max":1400,"o":"m 146 0 l 146 972 l 285 972 l 285 121 l 811 121 l 811 0 l 146 0 m 1096 -11 q 935 25 1010 -11 q 813 129 860 61 l 893 224 q 984 138 933 168 q 1096 108 1035 108 q 1263 306 1263 108 l 1263 851 l 911 851 l 911 972 l 1400 972 l 1400 313 q 1323 69 1400 150 q 1096 -11 1246 -11 z "},"Ĺ":{"ha":825,"x_min":110,"x_max":811,"o":"m 146 0 l 146 972 l 285 972 l 285 121 l 811 121 l 811 0 l 146 0 z "},"Ľ":{"ha":825,"x_min":146,"x_max":811,"o":"m 146 0 l 146 972 l 285 972 l 285 121 l 811 121 l 811 0 l 146 0 m 608 750 l 608 1018 l 718 1018 l 701 750 l 608 750 z "},"Ļ":{"ha":825,"x_min":146,"x_max":811,"o":"m 146 0 l 146 972 l 285 972 l 285 121 l 811 121 l 811 0 l 146 0 m 436 -365 l 482 -207 l 494 -257 q 442 -240 461 -257 q 424 -194 424 -222 q 443 -149 424 -167 q 494 -131 463 -131 q 547 -149 528 -131 q 565 -194 565 -168 q 562 -226 565 -208 q 547 -265 558 -244 l 506 -365 l 436 -365 z "},"Ŀ":{"ha":825,"x_min":146,"x_max":811,"o":"m 146 0 l 146 972 l 285 972 l 285 121 l 811 121 l 811 0 l 146 0 m 628 460 q 568 484 593 460 q 543 546 543 508 q 568 608 543 583 q 628 632 593 632 q 687 608 663 632 q 711 546 711 583 q 687 484 711 508 q 628 460 663 460 z "},"Ḷ":{"ha":825,"x_min":146,"x_max":811,"o":"m 146 0 l 146 972 l 285 972 l 285 121 l 811 121 l 811 0 l 146 0 m 494 -272 q 444 -253 465 -272 q 424 -203 424 -233 q 444 -151 424 -171 q 494 -131 465 -131 q 544 -151 524 -131 q 565 -203 565 -171 q 544 -253 565 -233 q 494 -272 524 -272 z "},"ǈ":{"ha":1218,"x_min":146,"x_max":1115,"o":"m 146 0 l 146 972 l 285 972 l 285 121 l 811 121 l 811 0 l 146 0 z "},"Ḻ":{"ha":825,"x_min":146,"x_max":811,"o":"m 146 0 l 146 972 l 285 972 l 285 121 l 811 121 l 811 0 l 146 0 m 268 -242 l 268 -157 l 721 -157 l 721 -242 l 268 -242 z "},"Ł":{"ha":835,"x_min":11,"x_max":822,"o":"m 157 0 l 157 972 l 296 972 l 296 121 l 822 121 l 822 0 l 157 0 m 72 343 l 11 421 l 450 754 l 511 676 l 72 343 z "},"M":{"ha":1326,"x_min":146,"x_max":1181,"o":"m 146 0 l 146 972 l 260 972 l 696 238 l 635 238 l 1065 972 l 1179 972 l 1181 0 l 1047 0 l 1046 763 l 1078 763 l 694 118 l 631 118 l 244 763 l 279 763 l 279 0 l 146 0 z "},"Ṃ":{"ha":1326,"x_min":146,"x_max":1181,"o":"m 146 0 l 146 972 l 260 972 l 696 238 l 635 238 l 1065 972 l 1179 972 l 1181 0 l 1047 0 l 1046 763 l 1078 763 l 694 118 l 631 118 l 244 763 l 279 763 l 279 0 l 146 0 m 663 -272 q 613 -253 633 -272 q 592 -203 592 -233 q 613 -151 592 -171 q 663 -131 633 -131 q 713 -151 692 -131 q 733 -203 733 -171 q 713 -253 733 -233 q 663 -272 692 -272 z "},"N":{"ha":1128,"x_min":146,"x_max":982,"o":"m 146 0 l 146 972 l 260 972 l 903 174 l 843 174 l 843 972 l 982 972 l 982 0 l 868 0 l 225 799 l 285 799 l 285 0 l 146 0 z "},"Ǌ":{"ha":1840,"x_min":146,"x_max":1703,"o":"m 146 0 l 146 972 l 260 972 l 903 174 l 843 174 l 843 972 l 982 972 l 982 0 l 868 0 l 225 799 l 285 799 l 285 0 l 146 0 m 1399 -11 q 1238 25 1313 -11 q 1115 129 1163 61 l 1196 224 q 1287 138 1236 168 q 1399 108 1338 108 q 1565 306 1565 108 l 1565 851 l 1214 851 l 1214 972 l 1703 972 l 1703 313 q 1626 69 1703 150 q 1399 -11 1549 -11 z "},"Ń":{"ha":1128,"x_min":146,"x_max":982,"o":"m 146 0 l 146 972 l 260 972 l 903 174 l 843 174 l 843 972 l 982 972 l 982 0 l 868 0 l 225 799 l 285 799 l 285 0 l 146 0 z "},"Ň":{"ha":1128,"x_min":146,"x_max":982,"o":"m 146 0 l 146 972 l 260 972 l 903 174 l 843 174 l 843 972 l 982 972 l 982 0 l 868 0 l 225 799 l 285 799 l 285 0 l 146 0 z "},"Ņ":{"ha":1128,"x_min":146,"x_max":982,"o":"m 146 0 l 146 972 l 260 972 l 903 174 l 843 174 l 843 972 l 982 972 l 982 0 l 868 0 l 225 799 l 285 799 l 285 0 l 146 0 m 504 -365 l 550 -207 l 563 -257 q 510 -240 529 -257 q 492 -194 492 -222 q 511 -149 492 -167 q 563 -131 531 -131 q 615 -149 596 -131 q 633 -194 633 -168 q 630 -226 633 -208 q 615 -265 626 -244 l 574 -365 l 504 -365 z "},"Ṅ":{"ha":1128,"x_min":146,"x_max":982,"o":"m 146 0 l 146 972 l 260 972 l 903 174 l 843 174 l 843 972 l 982 972 l 982 0 l 868 0 l 225 799 l 285 799 l 285 0 l 146 0 z "},"Ṇ":{"ha":1128,"x_min":146,"x_max":982,"o":"m 146 0 l 146 972 l 260 972 l 903 174 l 843 174 l 843 972 l 982 972 l 982 0 l 868 0 l 225 799 l 285 799 l 285 0 l 146 0 m 563 -272 q 513 -253 533 -272 q 492 -203 492 -233 q 513 -151 492 -171 q 563 -131 533 -131 q 613 -151 592 -131 q 633 -203 633 -171 q 613 -253 633 -233 q 563 -272 592 -272 z "},"Ŋ":{"ha":1128,"x_min":146,"x_max":982,"o":"m 146 0 l 146 972 l 260 972 l 903 174 l 868 0 l 225 799 l 285 799 l 285 0 l 146 0 m 681 -278 q 542 -249 607 -278 q 431 -168 476 -221 l 499 -68 q 578 -134 532 -110 q 681 -158 624 -158 q 843 40 843 -158 l 843 972 l 982 972 l 982 58 q 906 -195 982 -112 q 681 -278 829 -278 z "},"ǋ":{"ha":1521,"x_min":146,"x_max":1418,"o":"m 146 0 l 146 972 l 260 972 l 903 174 l 843 174 l 843 972 l 982 972 l 982 0 l 868 0 l 225 799 l 285 799 l 285 0 l 146 0 z "},"Ṉ":{"ha":1128,"x_min":146,"x_max":982,"o":"m 146 0 l 146 972 l 260 972 l 903 174 l 843 174 l 843 972 l 982 972 l 982 0 l 868 0 l 225 799 l 285 799 l 285 0 l 146 0 m 336 -242 l 336 -157 l 789 -157 l 789 -242 l 336 -242 z "},"Ñ":{"ha":1128,"x_min":146,"x_max":982,"o":"m 146 0 l 146 972 l 260 972 l 903 174 l 843 174 l 843 972 l 982 972 l 982 0 l 868 0 l 225 799 l 285 799 l 285 0 l 146 0 z "},"O":{"ha":1167,"x_min":67,"x_max":1100,"o":"m 585 -11 q 378 26 474 -11 q 214 131 283 64 q 106 289 144 199 q 67 486 67 379 q 106 683 67 593 q 214 841 144 774 q 378 946 283 908 q 585 983 472 983 q 790 947 696 983 q 953 842 883 910 q 1062 685 1024 775 q 1100 486 1100 594 q 1062 288 1100 378 q 953 130 1024 197 q 790 26 883 63 q 585 -11 696 -11 m 585 113 q 734 140 665 113 q 853 219 803 168 q 933 338 904 269 q 961 486 961 406 q 933 635 961 567 q 853 753 904 703 q 734 832 803 804 q 585 860 665 860 q 434 832 503 860 q 314 753 365 804 q 234 635 263 703 q 206 486 206 567 q 234 338 206 406 q 314 219 263 269 q 434 140 365 168 q 585 113 503 113 z "},"Ó":{"ha":1167,"x_min":67,"x_max":1100,"o":"m 585 -11 q 378 26 474 -11 q 214 131 283 64 q 106 289 144 199 q 67 486 67 379 q 106 683 67 593 q 214 841 144 774 q 378 946 283 908 q 585 983 472 983 q 790 947 696 983 q 953 842 883 910 q 1062 685 1024 775 q 1100 486 1100 594 q 1062 288 1100 378 q 953 130 1024 197 q 790 26 883 63 q 585 -11 696 -11 m 585 113 q 734 140 665 113 q 853 219 803 168 q 933 338 904 269 q 961 486 961 406 q 933 635 961 567 q 853 753 904 703 q 734 832 803 804 q 585 860 665 860 q 434 832 503 860 q 314 753 365 804 q 234 635 263 703 q 206 486 206 567 q 234 338 206 406 q 314 219 263 269 q 434 140 365 168 q 585 113 503 113 z "},"Ŏ":{"ha":1167,"x_min":67,"x_max":1100,"o":"m 585 -11 q 378 26 474 -11 q 214 131 283 64 q 106 289 144 199 q 67 486 67 379 q 106 683 67 593 q 214 841 144 774 q 378 946 283 908 q 585 983 472 983 q 790 947 696 983 q 953 842 883 910 q 1062 685 1024 775 q 1100 486 1100 594 q 1062 288 1100 378 q 953 130 1024 197 q 790 26 883 63 q 585 -11 696 -11 m 585 113 q 734 140 665 113 q 853 219 803 168 q 933 338 904 269 q 961 486 961 406 q 933 635 961 567 q 853 753 904 703 q 734 832 803 804 q 585 860 665 860 q 434 832 503 860 q 314 753 365 804 q 234 635 263 703 q 206 486 206 567 q 234 338 206 406 q 314 219 263 269 q 434 140 365 168 q 585 113 503 113 z "},"Ô":{"ha":1167,"x_min":67,"x_max":1100,"o":"m 585 -11 q 378 26 474 -11 q 214 131 283 64 q 106 289 144 199 q 67 486 67 379 q 106 683 67 593 q 214 841 144 774 q 378 946 283 908 q 585 983 472 983 q 790 947 696 983 q 953 842 883 910 q 1062 685 1024 775 q 1100 486 1100 594 q 1062 288 1100 378 q 953 130 1024 197 q 790 26 883 63 q 585 -11 696 -11 m 585 113 q 734 140 665 113 q 853 219 803 168 q 933 338 904 269 q 961 486 961 406 q 933 635 961 567 q 853 753 904 703 q 734 832 803 804 q 585 860 665 860 q 434 832 503 860 q 314 753 365 804 q 234 635 263 703 q 206 486 206 567 q 234 338 206 406 q 314 219 263 269 q 434 140 365 168 q 585 113 503 113 z "},"Ố":{"ha":1167,"x_min":67,"x_max":1100,"o":"m 585 -11 q 378 26 474 -11 q 214 131 283 64 q 106 289 144 199 q 67 486 67 379 q 106 683 67 593 q 214 841 144 774 q 378 946 283 908 q 585 983 472 983 q 790 947 696 983 q 953 842 883 910 q 1062 685 1024 775 q 1100 486 1100 594 q 1062 288 1100 378 q 953 130 1024 197 q 790 26 883 63 q 585 -11 696 -11 m 585 113 q 734 140 665 113 q 853 219 803 168 q 933 338 904 269 q 961 486 961 406 q 933 635 961 567 q 853 753 904 703 q 734 832 803 804 q 585 860 665 860 q 434 832 503 860 q 314 753 365 804 q 234 635 263 703 q 206 486 206 567 q 234 338 206 406 q 314 219 263 269 q 434 140 365 168 q 585 113 503 113 z "},"Ộ":{"ha":1167,"x_min":67,"x_max":1100,"o":"m 585 -11 q 378 26 474 -11 q 214 131 283 64 q 106 289 144 199 q 67 486 67 379 q 106 683 67 593 q 214 841 144 774 q 378 946 283 908 q 585 983 472 983 q 790 947 696 983 q 953 842 883 910 q 1062 685 1024 775 q 1100 486 1100 594 q 1062 288 1100 378 q 953 130 1024 197 q 790 26 883 63 q 585 -11 696 -11 m 585 113 q 734 140 665 113 q 853 219 803 168 q 933 338 904 269 q 961 486 961 406 q 933 635 961 567 q 853 753 904 703 q 734 832 803 804 q 585 860 665 860 q 434 832 503 860 q 314 753 365 804 q 234 635 263 703 q 206 486 206 567 q 234 338 206 406 q 314 219 263 269 q 434 140 365 168 q 585 113 503 113 m 585 -272 q 535 -253 556 -272 q 514 -203 514 -233 q 535 -151 514 -171 q 585 -131 556 -131 q 635 -151 614 -131 q 656 -203 656 -171 q 635 -253 656 -233 q 585 -272 614 -272 z "},"Ồ":{"ha":1167,"x_min":67,"x_max":1100,"o":"m 585 -11 q 378 26 474 -11 q 214 131 283 64 q 106 289 144 199 q 67 486 67 379 q 106 683 67 593 q 214 841 144 774 q 378 946 283 908 q 585 983 472 983 q 790 947 696 983 q 953 842 883 910 q 1062 685 1024 775 q 1100 486 1100 594 q 1062 288 1100 378 q 953 130 1024 197 q 790 26 883 63 q 585 -11 696 -11 m 585 113 q 734 140 665 113 q 853 219 803 168 q 933 338 904 269 q 961 486 961 406 q 933 635 961 567 q 853 753 904 703 q 734 832 803 804 q 585 860 665 860 q 434 832 503 860 q 314 753 365 804 q 234 635 263 703 q 206 486 206 567 q 234 338 206 406 q 314 219 263 269 q 434 140 365 168 q 585 113 503 113 z "},"Ổ":{"ha":1167,"x_min":67,"x_max":1100,"o":"m 585 -11 q 378 26 474 -11 q 214 131 283 64 q 106 289 144 199 q 67 486 67 379 q 106 683 67 593 q 214 841 144 774 q 378 946 283 908 q 585 983 472 983 q 790 947 696 983 q 953 842 883 910 q 1062 685 1024 775 q 1100 486 1100 594 q 1062 288 1100 378 q 953 130 1024 197 q 790 26 883 63 q 585 -11 696 -11 m 585 113 q 734 140 665 113 q 853 219 803 168 q 933 338 904 269 q 961 486 961 406 q 933 635 961 567 q 853 753 904 703 q 734 832 803 804 q 585 860 665 860 q 434 832 503 860 q 314 753 365 804 q 234 635 263 703 q 206 486 206 567 q 234 338 206 406 q 314 219 263 269 q 434 140 365 168 q 585 113 503 113 z "},"Ỗ":{"ha":1167,"x_min":67,"x_max":1100,"o":"m 585 -11 q 378 26 474 -11 q 214 131 283 64 q 106 289 144 199 q 67 486 67 379 q 106 683 67 593 q 214 841 144 774 q 378 946 283 908 q 585 983 472 983 q 790 947 696 983 q 953 842 883 910 q 1062 685 1024 775 q 1100 486 1100 594 q 1062 288 1100 378 q 953 130 1024 197 q 790 26 883 63 q 585 -11 696 -11 m 585 113 q 734 140 665 113 q 853 219 803 168 q 933 338 904 269 q 961 486 961 406 q 933 635 961 567 q 853 753 904 703 q 734 832 803 804 q 585 860 665 860 q 434 832 503 860 q 314 753 365 804 q 234 635 263 703 q 206 486 206 567 q 234 338 206 406 q 314 219 263 269 q 434 140 365 168 q 585 113 503 113 z "},"Ȍ":{"ha":1167,"x_min":67,"x_max":1100,"o":"m 585 -11 q 378 26 474 -11 q 214 131 283 64 q 106 289 144 199 q 67 486 67 379 q 106 683 67 593 q 214 841 144 774 q 378 946 283 908 q 585 983 472 983 q 790 947 696 983 q 953 842 883 910 q 1062 685 1024 775 q 1100 486 1100 594 q 1062 288 1100 378 q 953 130 1024 197 q 790 26 883 63 q 585 -11 696 -11 m 585 113 q 734 140 665 113 q 853 219 803 168 q 933 338 904 269 q 961 486 961 406 q 933 635 961 567 q 853 753 904 703 q 734 832 803 804 q 585 860 665 860 q 434 832 503 860 q 314 753 365 804 q 234 635 263 703 q 206 486 206 567 q 234 338 206 406 q 314 219 263 269 q 434 140 365 168 q 585 113 503 113 z "},"Ö":{"ha":1167,"x_min":67,"x_max":1100,"o":"m 585 -11 q 378 26 474 -11 q 214 131 283 64 q 106 289 144 199 q 67 486 67 379 q 106 683 67 593 q 214 841 144 774 q 378 946 283 908 q 585 983 472 983 q 790 947 696 983 q 953 842 883 910 q 1062 685 1024 775 q 1100 486 1100 594 q 1062 288 1100 378 q 953 130 1024 197 q 790 26 883 63 q 585 -11 696 -11 m 585 113 q 734 140 665 113 q 853 219 803 168 q 933 338 904 269 q 961 486 961 406 q 933 635 961 567 q 853 753 904 703 q 734 832 803 804 q 585 860 665 860 q 434 832 503 860 q 314 753 365 804 q 234 635 263 703 q 206 486 206 567 q 234 338 206 406 q 314 219 263 269 q 434 140 365 168 q 585 113 503 113 z "},"Ȫ":{"ha":1167,"x_min":67,"x_max":1100,"o":"m 585 -11 q 378 26 474 -11 q 214 131 283 64 q 106 289 144 199 q 67 486 67 379 q 106 683 67 593 q 214 841 144 774 q 378 946 283 908 q 585 983 472 983 q 790 947 696 983 q 953 842 883 910 q 1062 685 1024 775 q 1100 486 1100 594 q 1062 288 1100 378 q 953 130 1024 197 q 790 26 883 63 q 585 -11 696 -11 m 585 113 q 734 140 665 113 q 853 219 803 168 q 933 338 904 269 q 961 486 961 406 q 933 635 961 567 q 853 753 904 703 q 734 832 803 804 q 585 860 665 860 q 434 832 503 860 q 314 753 365 804 q 234 635 263 703 q 206 486 206 567 q 234 338 206 406 q 314 219 263 269 q 434 140 365 168 q 585 113 503 113 z "},"Ȱ":{"ha":1167,"x_min":67,"x_max":1100,"o":"m 585 -11 q 378 26 474 -11 q 214 131 283 64 q 106 289 144 199 q 67 486 67 379 q 106 683 67 593 q 214 841 144 774 q 378 946 283 908 q 585 983 472 983 q 790 947 696 983 q 953 842 883 910 q 1062 685 1024 775 q 1100 486 1100 594 q 1062 288 1100 378 q 953 130 1024 197 q 790 26 883 63 q 585 -11 696 -11 m 585 113 q 734 140 665 113 q 853 219 803 168 q 933 338 904 269 q 961 486 961 406 q 933 635 961 567 q 853 753 904 703 q 734 832 803 804 q 585 860 665 860 q 434 832 503 860 q 314 753 365 804 q 234 635 263 703 q 206 486 206 567 q 234 338 206 406 q 314 219 263 269 q 434 140 365 168 q 585 113 503 113 z "},"Ọ":{"ha":1167,"x_min":67,"x_max":1100,"o":"m 585 -11 q 378 26 474 -11 q 214 131 283 64 q 106 289 144 199 q 67 486 67 379 q 106 683 67 593 q 214 841 144 774 q 378 946 283 908 q 585 983 472 983 q 790 947 696 983 q 953 842 883 910 q 1062 685 1024 775 q 1100 486 1100 594 q 1062 288 1100 378 q 953 130 1024 197 q 790 26 883 63 q 585 -11 696 -11 m 585 113 q 734 140 665 113 q 853 219 803 168 q 933 338 904 269 q 961 486 961 406 q 933 635 961 567 q 853 753 904 703 q 734 832 803 804 q 585 860 665 860 q 434 832 503 860 q 314 753 365 804 q 234 635 263 703 q 206 486 206 567 q 234 338 206 406 q 314 219 263 269 q 434 140 365 168 q 585 113 503 113 m 585 -272 q 535 -253 556 -272 q 514 -203 514 -233 q 535 -151 514 -171 q 585 -131 556 -131 q 635 -151 614 -131 q 656 -203 656 -171 q 635 -253 656 -233 q 585 -272 614 -272 z "},"Ò":{"ha":1167,"x_min":67,"x_max":1100,"o":"m 585 -11 q 378 26 474 -11 q 214 131 283 64 q 106 289 144 199 q 67 486 67 379 q 106 683 67 593 q 214 841 144 774 q 378 946 283 908 q 585 983 472 983 q 790 947 696 983 q 953 842 883 910 q 1062 685 1024 775 q 1100 486 1100 594 q 1062 288 1100 378 q 953 130 1024 197 q 790 26 883 63 q 585 -11 696 -11 m 585 113 q 734 140 665 113 q 853 219 803 168 q 933 338 904 269 q 961 486 961 406 q 933 635 961 567 q 853 753 904 703 q 734 832 803 804 q 585 860 665 860 q 434 832 503 860 q 314 753 365 804 q 234 635 263 703 q 206 486 206 567 q 234 338 206 406 q 314 219 263 269 q 434 140 365 168 q 585 113 503 113 z "},"Ỏ":{"ha":1167,"x_min":67,"x_max":1100,"o":"m 585 -11 q 378 26 474 -11 q 214 131 283 64 q 106 289 144 199 q 67 486 67 379 q 106 683 67 593 q 214 841 144 774 q 378 946 283 908 q 585 983 472 983 q 790 947 696 983 q 953 842 883 910 q 1062 685 1024 775 q 1100 486 1100 594 q 1062 288 1100 378 q 953 130 1024 197 q 790 26 883 63 q 585 -11 696 -11 m 585 113 q 734 140 665 113 q 853 219 803 168 q 933 338 904 269 q 961 486 961 406 q 933 635 961 567 q 853 753 904 703 q 734 832 803 804 q 585 860 665 860 q 434 832 503 860 q 314 753 365 804 q 234 635 263 703 q 206 486 206 567 q 234 338 206 406 q 314 219 263 269 q 434 140 365 168 q 585 113 503 113 z "},"Ơ":{"ha":1167,"x_min":67,"x_max":1100,"o":"m 585 -11 q 378 26 474 -11 q 214 131 283 64 q 106 289 144 199 q 67 486 67 379 q 106 685 67 594 q 215 842 144 775 q 381 947 285 910 q 589 983 476 983 q 735 974 672 983 q 856 964 797 964 q 953 989 919 964 q 988 1065 988 1014 q 979 1112 988 1090 q 960 1151 971 1133 l 1043 1185 q 1072 1126 1061 1158 q 1082 1061 1082 1094 q 1022 925 1082 974 q 850 876 961 876 q 765 881 810 876 q 679 892 719 886 l 853 913 q 982 811 926 875 q 1069 665 1038 747 q 1100 486 1100 582 q 1062 288 1100 378 q 953 130 1024 197 q 790 26 883 63 q 585 -11 696 -11 m 585 113 q 734 141 665 113 q 853 219 803 169 q 933 338 904 269 q 961 486 961 406 q 933 634 961 565 q 853 753 904 703 q 734 831 803 803 q 585 860 665 860 q 434 832 503 860 q 314 753 365 804 q 234 635 263 703 q 206 486 206 567 q 234 339 206 407 q 314 219 263 271 q 434 140 365 168 q 585 113 503 113 z "},"Ớ":{"ha":1167,"x_min":67,"x_max":1100,"o":"m 585 -11 q 378 26 474 -11 q 214 131 283 64 q 106 289 144 199 q 67 486 67 379 q 106 685 67 594 q 215 842 144 775 q 381 947 285 910 q 589 983 476 983 q 735 974 672 983 q 856 964 797 964 q 953 989 919 964 q 988 1065 988 1014 q 979 1112 988 1090 q 960 1151 971 1133 l 1043 1185 q 1072 1126 1061 1158 q 1082 1061 1082 1094 q 1022 925 1082 974 q 850 876 961 876 q 765 881 810 876 q 679 892 719 886 l 853 913 q 982 811 926 875 q 1069 665 1038 747 q 1100 486 1100 582 q 1062 288 1100 378 q 953 130 1024 197 q 790 26 883 63 q 585 -11 696 -11 m 585 113 q 734 141 665 113 q 853 219 803 169 q 933 338 904 269 q 961 486 961 406 q 933 634 961 565 q 853 753 904 703 q 734 831 803 803 q 585 860 665 860 q 434 832 503 860 q 314 753 365 804 q 234 635 263 703 q 206 486 206 567 q 234 339 206 407 q 314 219 263 271 q 434 140 365 168 q 585 113 503 113 z "},"Ợ":{"ha":1167,"x_min":67,"x_max":1100,"o":"m 585 -11 q 378 26 474 -11 q 214 131 283 64 q 106 289 144 199 q 67 486 67 379 q 106 685 67 594 q 215 842 144 775 q 381 947 285 910 q 589 983 476 983 q 735 974 672 983 q 856 964 797 964 q 953 989 919 964 q 988 1065 988 1014 q 979 1112 988 1090 q 960 1151 971 1133 l 1043 1185 q 1072 1126 1061 1158 q 1082 1061 1082 1094 q 1022 925 1082 974 q 850 876 961 876 q 765 881 810 876 q 679 892 719 886 l 853 913 q 982 811 926 875 q 1069 665 1038 747 q 1100 486 1100 582 q 1062 288 1100 378 q 953 130 1024 197 q 790 26 883 63 q 585 -11 696 -11 m 585 113 q 734 141 665 113 q 853 219 803 169 q 933 338 904 269 q 961 486 961 406 q 933 634 961 565 q 853 753 904 703 q 734 831 803 803 q 585 860 665 860 q 434 832 503 860 q 314 753 365 804 q 234 635 263 703 q 206 486 206 567 q 234 339 206 407 q 314 219 263 271 q 434 140 365 168 q 585 113 503 113 m 585 -272 q 535 -253 556 -272 q 514 -203 514 -233 q 535 -151 514 -171 q 585 -131 556 -131 q 635 -151 614 -131 q 656 -203 656 -171 q 635 -253 656 -233 q 585 -272 614 -272 z "},"Ờ":{"ha":1167,"x_min":67,"x_max":1100,"o":"m 585 -11 q 378 26 474 -11 q 214 131 283 64 q 106 289 144 199 q 67 486 67 379 q 106 685 67 594 q 215 842 144 775 q 381 947 285 910 q 589 983 476 983 q 735 974 672 983 q 856 964 797 964 q 953 989 919 964 q 988 1065 988 1014 q 979 1112 988 1090 q 960 1151 971 1133 l 1043 1185 q 1072 1126 1061 1158 q 1082 1061 1082 1094 q 1022 925 1082 974 q 850 876 961 876 q 765 881 810 876 q 679 892 719 886 l 853 913 q 982 811 926 875 q 1069 665 1038 747 q 1100 486 1100 582 q 1062 288 1100 378 q 953 130 1024 197 q 790 26 883 63 q 585 -11 696 -11 m 585 113 q 734 141 665 113 q 853 219 803 169 q 933 338 904 269 q 961 486 961 406 q 933 634 961 565 q 853 753 904 703 q 734 831 803 803 q 585 860 665 860 q 434 832 503 860 q 314 753 365 804 q 234 635 263 703 q 206 486 206 567 q 234 339 206 407 q 314 219 263 271 q 434 140 365 168 q 585 113 503 113 z "},"Ở":{"ha":1167,"x_min":67,"x_max":1100,"o":"m 585 -11 q 378 26 474 -11 q 214 131 283 64 q 106 289 144 199 q 67 486 67 379 q 106 685 67 594 q 215 842 144 775 q 381 947 285 910 q 589 983 476 983 q 735 974 672 983 q 856 964 797 964 q 953 989 919 964 q 988 1065 988 1014 q 979 1112 988 1090 q 960 1151 971 1133 l 1043 1185 q 1072 1126 1061 1158 q 1082 1061 1082 1094 q 1022 925 1082 974 q 850 876 961 876 q 765 881 810 876 q 679 892 719 886 l 853 913 q 982 811 926 875 q 1069 665 1038 747 q 1100 486 1100 582 q 1062 288 1100 378 q 953 130 1024 197 q 790 26 883 63 q 585 -11 696 -11 m 585 113 q 734 141 665 113 q 853 219 803 169 q 933 338 904 269 q 961 486 961 406 q 933 634 961 565 q 853 753 904 703 q 734 831 803 803 q 585 860 665 860 q 434 832 503 860 q 314 753 365 804 q 234 635 263 703 q 206 486 206 567 q 234 339 206 407 q 314 219 263 271 q 434 140 365 168 q 585 113 503 113 z "},"Ỡ":{"ha":1167,"x_min":67,"x_max":1100,"o":"m 585 -11 q 378 26 474 -11 q 214 131 283 64 q 106 289 144 199 q 67 486 67 379 q 106 685 67 594 q 215 842 144 775 q 381 947 285 910 q 589 983 476 983 q 735 974 672 983 q 856 964 797 964 q 953 989 919 964 q 988 1065 988 1014 q 979 1112 988 1090 q 960 1151 971 1133 l 1043 1185 q 1072 1126 1061 1158 q 1082 1061 1082 1094 q 1022 925 1082 974 q 850 876 961 876 q 765 881 810 876 q 679 892 719 886 l 853 913 q 982 811 926 875 q 1069 665 1038 747 q 1100 486 1100 582 q 1062 288 1100 378 q 953 130 1024 197 q 790 26 883 63 q 585 -11 696 -11 m 585 113 q 734 141 665 113 q 853 219 803 169 q 933 338 904 269 q 961 486 961 406 q 933 634 961 565 q 853 753 904 703 q 734 831 803 803 q 585 860 665 860 q 434 832 503 860 q 314 753 365 804 q 234 635 263 703 q 206 486 206 567 q 234 339 206 407 q 314 219 263 271 q 434 140 365 168 q 585 113 503 113 z "},"Ő":{"ha":1167,"x_min":67,"x_max":1100,"o":"m 585 -11 q 378 26 474 -11 q 214 131 283 64 q 106 289 144 199 q 67 486 67 379 q 106 683 67 593 q 214 841 144 774 q 378 946 283 908 q 585 983 472 983 q 790 947 696 983 q 953 842 883 910 q 1062 685 1024 775 q 1100 486 1100 594 q 1062 288 1100 378 q 953 130 1024 197 q 790 26 883 63 q 585 -11 696 -11 m 585 113 q 734 140 665 113 q 853 219 803 168 q 933 338 904 269 q 961 486 961 406 q 933 635 961 567 q 853 753 904 703 q 734 832 803 804 q 585 860 665 860 q 434 832 503 860 q 314 753 365 804 q 234 635 263 703 q 206 486 206 567 q 234 338 206 406 q 314 219 263 269 q 434 140 365 168 q 585 113 503 113 z "},"Ȏ":{"ha":1167,"x_min":67,"x_max":1100,"o":"m 585 -11 q 378 26 474 -11 q 214 131 283 64 q 106 289 144 199 q 67 486 67 379 q 106 683 67 593 q 214 841 144 774 q 378 946 283 908 q 585 983 472 983 q 790 947 696 983 q 953 842 883 910 q 1062 685 1024 775 q 1100 486 1100 594 q 1062 288 1100 378 q 953 130 1024 197 q 790 26 883 63 q 585 -11 696 -11 m 585 113 q 734 140 665 113 q 853 219 803 168 q 933 338 904 269 q 961 486 961 406 q 933 635 961 567 q 853 753 904 703 q 734 832 803 804 q 585 860 665 860 q 434 832 503 860 q 314 753 365 804 q 234 635 263 703 q 206 486 206 567 q 234 338 206 406 q 314 219 263 269 q 434 140 365 168 q 585 113 503 113 z "},"Ō":{"ha":1167,"x_min":67,"x_max":1100,"o":"m 585 -11 q 378 26 474 -11 q 214 131 283 64 q 106 289 144 199 q 67 486 67 379 q 106 683 67 593 q 214 841 144 774 q 378 946 283 908 q 585 983 472 983 q 790 947 696 983 q 953 842 883 910 q 1062 685 1024 775 q 1100 486 1100 594 q 1062 288 1100 378 q 953 130 1024 197 q 790 26 883 63 q 585 -11 696 -11 m 585 113 q 734 140 665 113 q 853 219 803 168 q 933 338 904 269 q 961 486 961 406 q 933 635 961 567 q 853 753 904 703 q 734 832 803 804 q 585 860 665 860 q 434 832 503 860 q 314 753 365 804 q 234 635 263 703 q 206 486 206 567 q 234 338 206 406 q 314 219 263 269 q 434 140 365 168 q 585 113 503 113 z "},"Ṓ":{"ha":1167,"x_min":67,"x_max":1100,"o":"m 585 -11 q 378 26 474 -11 q 214 131 283 64 q 106 289 144 199 q 67 486 67 379 q 106 683 67 593 q 214 841 144 774 q 378 946 283 908 q 585 983 472 983 q 790 947 696 983 q 953 842 883 910 q 1062 685 1024 775 q 1100 486 1100 594 q 1062 288 1100 378 q 953 130 1024 197 q 790 26 883 63 q 585 -11 696 -11 m 585 113 q 734 140 665 113 q 853 219 803 168 q 933 338 904 269 q 961 486 961 406 q 933 635 961 567 q 853 753 904 703 q 734 832 803 804 q 585 860 665 860 q 434 832 503 860 q 314 753 365 804 q 234 635 263 703 q 206 486 206 567 q 234 338 206 406 q 314 219 263 269 q 434 140 365 168 q 585 113 503 113 z "},"Ṑ":{"ha":1167,"x_min":67,"x_max":1100,"o":"m 585 -11 q 378 26 474 -11 q 214 131 283 64 q 106 289 144 199 q 67 486 67 379 q 106 683 67 593 q 214 841 144 774 q 378 946 283 908 q 585 983 472 983 q 790 947 696 983 q 953 842 883 910 q 1062 685 1024 775 q 1100 486 1100 594 q 1062 288 1100 378 q 953 130 1024 197 q 790 26 883 63 q 585 -11 696 -11 m 585 113 q 734 140 665 113 q 853 219 803 168 q 933 338 904 269 q 961 486 961 406 q 933 635 961 567 q 853 753 904 703 q 734 832 803 804 q 585 860 665 860 q 434 832 503 860 q 314 753 365 804 q 234 635 263 703 q 206 486 206 567 q 234 338 206 406 q 314 219 263 269 q 434 140 365 168 q 585 113 503 113 z "},"Ǫ":{"ha":1167,"x_min":67,"x_max":1100,"o":"m 596 -311 q 474 -272 518 -311 q 429 -171 429 -233 q 448 -95 429 -133 q 510 -21 467 -57 q 628 44 554 15 l 632 -8 q 606 -10 618 -10 q 585 -11 594 -11 q 378 26 472 -11 q 215 130 285 63 q 106 288 144 197 q 67 486 67 378 q 106 685 67 594 q 215 842 144 775 q 378 947 285 910 q 585 983 472 983 q 790 947 696 983 q 953 842 883 910 q 1062 685 1024 775 q 1100 486 1100 594 q 1050 264 1100 363 q 916 100 1000 165 q 728 8 832 35 q 619 -33 665 -7 q 549 -92 574 -60 q 524 -161 524 -124 q 549 -215 524 -196 q 610 -233 574 -233 q 655 -226 632 -233 q 694 -210 678 -219 l 721 -278 q 663 -302 696 -293 q 596 -311 631 -311 m 585 113 q 734 140 665 113 q 853 219 803 168 q 933 338 904 269 q 961 486 961 406 q 933 635 961 567 q 853 753 904 703 q 734 832 803 804 q 585 860 665 860 q 434 832 503 860 q 314 753 365 804 q 234 635 263 703 q 206 486 206 567 q 234 338 206 406 q 314 219 263 269 q 434 140 365 168 q 585 113 503 113 z "},"Ø":{"ha":1167,"x_min":67,"x_max":1100,"o":"m 585 -11 q 378 26 474 -11 q 214 131 283 64 q 106 289 144 199 q 67 486 67 379 q 106 683 67 593 q 214 841 144 774 q 378 946 283 908 q 585 983 472 983 q 790 947 696 983 q 953 842 883 910 q 1062 685 1024 775 q 1100 486 1100 594 q 1062 288 1100 378 q 953 130 1024 197 q 790 26 883 63 q 585 -11 696 -11 m 585 113 q 734 140 665 113 q 853 219 803 168 q 933 338 904 269 q 961 486 961 406 q 933 635 961 567 q 853 753 904 703 q 734 832 803 804 q 585 860 665 860 q 434 832 503 860 q 314 753 365 804 q 234 635 263 703 q 206 486 206 567 q 234 338 206 406 q 314 219 263 269 q 434 140 365 168 q 585 113 503 113 m 113 -97 l 949 1069 l 1057 1069 l 221 -97 l 113 -97 z "},"Ǿ":{"ha":1167,"x_min":67,"x_max":1100,"o":"m 585 -11 q 378 26 474 -11 q 214 131 283 64 q 106 289 144 199 q 67 486 67 379 q 106 683 67 593 q 214 841 144 774 q 378 946 283 908 q 585 983 472 983 q 790 947 696 983 q 953 842 883 910 q 1062 685 1024 775 q 1100 486 1100 594 q 1062 288 1100 378 q 953 130 1024 197 q 790 26 883 63 q 585 -11 696 -11 m 585 113 q 734 140 665 113 q 853 219 803 168 q 933 338 904 269 q 961 486 961 406 q 933 635 961 567 q 853 753 904 703 q 734 832 803 804 q 585 860 665 860 q 434 832 503 860 q 314 753 365 804 q 234 635 263 703 q 206 486 206 567 q 234 338 206 406 q 314 219 263 269 q 434 140 365 168 q 585 113 503 113 m 113 -97 l 949 1069 l 1057 1069 l 221 -97 l 113 -97 z "},"Õ":{"ha":1167,"x_min":67,"x_max":1100,"o":"m 585 -11 q 378 26 474 -11 q 214 131 283 64 q 106 289 144 199 q 67 486 67 379 q 106 683 67 593 q 214 841 144 774 q 378 946 283 908 q 585 983 472 983 q 790 947 696 983 q 953 842 883 910 q 1062 685 1024 775 q 1100 486 1100 594 q 1062 288 1100 378 q 953 130 1024 197 q 790 26 883 63 q 585 -11 696 -11 m 585 113 q 734 140 665 113 q 853 219 803 168 q 933 338 904 269 q 961 486 961 406 q 933 635 961 567 q 853 753 904 703 q 734 832 803 804 q 585 860 665 860 q 434 832 503 860 q 314 753 365 804 q 234 635 263 703 q 206 486 206 567 q 234 338 206 406 q 314 219 263 269 q 434 140 365 168 q 585 113 503 113 z "},"Ṍ":{"ha":1167,"x_min":67,"x_max":1100,"o":"m 585 -11 q 378 26 474 -11 q 214 131 283 64 q 106 289 144 199 q 67 486 67 379 q 106 683 67 593 q 214 841 144 774 q 378 946 283 908 q 585 983 472 983 q 790 947 696 983 q 953 842 883 910 q 1062 685 1024 775 q 1100 486 1100 594 q 1062 288 1100 378 q 953 130 1024 197 q 790 26 883 63 q 585 -11 696 -11 m 585 113 q 734 140 665 113 q 853 219 803 168 q 933 338 904 269 q 961 486 961 406 q 933 635 961 567 q 853 753 904 703 q 734 832 803 804 q 585 860 665 860 q 434 832 503 860 q 314 753 365 804 q 234 635 263 703 q 206 486 206 567 q 234 338 206 406 q 314 219 263 269 q 434 140 365 168 q 585 113 503 113 z "},"Ṏ":{"ha":1167,"x_min":67,"x_max":1100,"o":"m 585 -11 q 378 26 474 -11 q 214 131 283 64 q 106 289 144 199 q 67 486 67 379 q 106 683 67 593 q 214 841 144 774 q 378 946 283 908 q 585 983 472 983 q 790 947 696 983 q 953 842 883 910 q 1062 685 1024 775 q 1100 486 1100 594 q 1062 288 1100 378 q 953 130 1024 197 q 790 26 883 63 q 585 -11 696 -11 m 585 113 q 734 140 665 113 q 853 219 803 168 q 933 338 904 269 q 961 486 961 406 q 933 635 961 567 q 853 753 904 703 q 734 832 803 804 q 585 860 665 860 q 434 832 503 860 q 314 753 365 804 q 234 635 263 703 q 206 486 206 567 q 234 338 206 406 q 314 219 263 269 q 434 140 365 168 q 585 113 503 113 z "},"Ȭ":{"ha":1167,"x_min":67,"x_max":1100,"o":"m 585 -11 q 378 26 474 -11 q 214 131 283 64 q 106 289 144 199 q 67 486 67 379 q 106 683 67 593 q 214 841 144 774 q 378 946 283 908 q 585 983 472 983 q 790 947 696 983 q 953 842 883 910 q 1062 685 1024 775 q 1100 486 1100 594 q 1062 288 1100 378 q 953 130 1024 197 q 790 26 883 63 q 585 -11 696 -11 m 585 113 q 734 140 665 113 q 853 219 803 168 q 933 338 904 269 q 961 486 961 406 q 933 635 961 567 q 853 753 904 703 q 734 832 803 804 q 585 860 665 860 q 434 832 503 860 q 314 753 365 804 q 234 635 263 703 q 206 486 206 567 q 234 338 206 406 q 314 219 263 269 q 434 140 365 168 q 585 113 503 113 z "},"Œ":{"ha":1564,"x_min":67,"x_max":1485,"o":"m 592 0 q 318 61 436 0 q 133 231 200 122 q 67 485 67 340 q 133 740 67 629 q 318 911 200 850 q 592 972 436 972 l 814 972 l 814 851 l 599 851 q 392 806 481 851 q 254 677 303 760 q 206 485 206 594 q 254 294 206 376 q 392 167 303 213 q 599 121 481 121 l 814 121 l 814 0 l 592 0 m 906 553 l 1406 553 l 1406 435 l 906 435 l 906 553 m 917 121 l 1485 121 l 1485 0 l 779 0 l 779 972 l 1465 972 l 1465 851 l 917 851 l 917 121 z "},"P":{"ha":1003,"x_min":146,"x_max":931,"o":"m 146 0 l 146 972 l 525 972 q 743 932 653 972 q 882 815 833 892 q 931 633 931 739 q 882 452 931 528 q 743 335 833 376 q 525 294 653 294 l 222 294 l 285 360 l 285 0 l 146 0 m 285 346 l 222 415 l 521 415 q 723 472 654 415 q 792 633 792 529 q 723 794 792 738 q 521 851 654 851 l 222 851 l 285 921 l 285 346 z "},"Þ":{"ha":1003,"x_min":146,"x_max":931,"o":"m 251 174 l 251 293 l 521 293 q 723 351 654 293 q 792 513 792 408 q 723 675 792 618 q 521 732 654 732 l 251 732 l 251 853 l 525 853 q 743 812 653 853 q 882 695 833 771 q 931 514 931 619 q 882 331 931 408 q 743 214 833 254 q 525 174 653 174 l 251 174 m 146 0 l 146 972 l 285 972 l 285 0 l 146 0 z "},"Q":{"ha":1167,"x_min":67,"x_max":1147,"o":"m 585 -11 q 378 26 474 -11 q 214 131 283 64 q 106 289 144 199 q 67 486 67 379 q 106 683 67 593 q 214 841 144 774 q 378 946 283 908 q 585 983 472 983 q 790 947 696 983 q 953 842 883 910 q 1062 685 1024 775 q 1100 486 1100 594 q 1062 288 1100 378 q 953 130 1024 197 q 790 26 883 63 q 585 -11 696 -11 m 903 -203 q 810 -191 854 -203 q 721 -153 765 -179 q 629 -87 676 -128 q 526 14 582 -46 l 675 53 q 755 -31 717 1 q 831 -78 793 -64 q 904 -93 868 -93 q 1082 -10 1008 -93 l 1147 -89 q 903 -203 1053 -203 m 585 113 q 734 140 665 113 q 853 219 803 168 q 933 339 904 271 q 961 486 961 407 q 933 635 961 567 q 853 753 904 703 q 734 832 803 804 q 585 860 665 860 q 434 832 503 860 q 314 753 365 804 q 234 635 263 703 q 206 486 206 567 q 234 339 206 407 q 314 219 263 271 q 434 140 365 168 q 585 113 503 113 z "},"R":{"ha":1010,"x_min":146,"x_max":947,"o":"m 146 0 l 146 972 l 525 972 q 743 932 653 972 q 882 815 833 892 q 931 633 931 739 q 882 452 931 528 q 743 336 833 376 q 525 296 653 296 l 222 296 l 285 360 l 285 0 l 146 0 m 796 0 l 549 353 l 697 353 l 947 0 l 796 0 m 285 346 l 222 414 l 521 414 q 723 472 654 414 q 792 633 792 529 q 723 794 792 738 q 521 851 654 851 l 222 851 l 285 921 l 285 346 z "},"Ŕ":{"ha":1010,"x_min":146,"x_max":947,"o":"m 146 0 l 146 972 l 525 972 q 743 932 653 972 q 882 815 833 892 q 931 633 931 739 q 882 452 931 528 q 743 336 833 376 q 525 296 653 296 l 222 296 l 285 360 l 285 0 l 146 0 m 796 0 l 549 353 l 697 353 l 947 0 l 796 0 m 285 346 l 222 414 l 521 414 q 723 472 654 414 q 792 633 792 529 q 723 794 792 738 q 521 851 654 851 l 222 851 l 285 921 l 285 346 z "},"Ř":{"ha":1010,"x_min":146,"x_max":947,"o":"m 146 0 l 146 972 l 525 972 q 743 932 653 972 q 882 815 833 892 q 931 633 931 739 q 882 452 931 528 q 743 336 833 376 q 525 296 653 296 l 222 296 l 285 360 l 285 0 l 146 0 m 796 0 l 549 353 l 697 353 l 947 0 l 796 0 m 285 346 l 222 414 l 521 414 q 723 472 654 414 q 792 633 792 529 q 723 794 792 738 q 521 851 654 851 l 222 851 l 285 921 l 285 346 z "},"Ŗ":{"ha":1010,"x_min":146,"x_max":947,"o":"m 146 0 l 146 972 l 525 972 q 743 932 653 972 q 882 815 833 892 q 931 633 931 739 q 882 452 931 528 q 743 336 833 376 q 525 296 653 296 l 222 296 l 285 360 l 285 0 l 146 0 m 796 0 l 549 353 l 697 353 l 947 0 l 796 0 m 285 346 l 222 414 l 521 414 q 723 472 654 414 q 792 633 792 529 q 723 794 792 738 q 521 851 654 851 l 222 851 l 285 921 l 285 346 m 457 -365 l 503 -207 l 515 -257 q 463 -240 482 -257 q 444 -194 444 -222 q 464 -149 444 -167 q 515 -131 483 -131 q 567 -149 549 -131 q 586 -194 586 -168 q 583 -226 586 -208 q 568 -265 579 -244 l 526 -365 l 457 -365 z "},"Ȑ":{"ha":1010,"x_min":146,"x_max":947,"o":"m 146 0 l 146 972 l 525 972 q 743 932 653 972 q 882 815 833 892 q 931 633 931 739 q 882 452 931 528 q 743 336 833 376 q 525 296 653 296 l 222 296 l 285 360 l 285 0 l 146 0 m 796 0 l 549 353 l 697 353 l 947 0 l 796 0 m 285 346 l 222 414 l 521 414 q 723 472 654 414 q 792 633 792 529 q 723 794 792 738 q 521 851 654 851 l 222 851 l 285 921 l 285 346 z "},"Ṛ":{"ha":1010,"x_min":146,"x_max":947,"o":"m 146 0 l 146 972 l 525 972 q 743 932 653 972 q 882 815 833 892 q 931 633 931 739 q 882 452 931 528 q 743 336 833 376 q 525 296 653 296 l 222 296 l 285 360 l 285 0 l 146 0 m 796 0 l 549 353 l 697 353 l 947 0 l 796 0 m 285 346 l 222 414 l 521 414 q 723 472 654 414 q 792 633 792 529 q 723 794 792 738 q 521 851 654 851 l 222 851 l 285 921 l 285 346 m 515 -272 q 465 -253 486 -272 q 444 -203 444 -233 q 465 -151 444 -171 q 515 -131 486 -131 q 565 -151 544 -131 q 586 -203 586 -171 q 565 -253 586 -233 q 515 -272 544 -272 z "},"Ȓ":{"ha":1010,"x_min":146,"x_max":947,"o":"m 146 0 l 146 972 l 525 972 q 743 932 653 972 q 882 815 833 892 q 931 633 931 739 q 882 452 931 528 q 743 336 833 376 q 525 296 653 296 l 222 296 l 285 360 l 285 0 l 146 0 m 796 0 l 549 353 l 697 353 l 947 0 l 796 0 m 285 346 l 222 414 l 521 414 q 723 472 654 414 q 792 633 792 529 q 723 794 792 738 q 521 851 654 851 l 222 851 l 285 921 l 285 346 z "},"Ṟ":{"ha":1010,"x_min":146,"x_max":947,"o":"m 146 0 l 146 972 l 525 972 q 743 932 653 972 q 882 815 833 892 q 931 633 931 739 q 882 452 931 528 q 743 336 833 376 q 525 296 653 296 l 222 296 l 285 360 l 285 0 l 146 0 m 796 0 l 549 353 l 697 353 l 947 0 l 796 0 m 285 346 l 222 414 l 521 414 q 723 472 654 414 q 792 633 792 529 q 723 794 792 738 q 521 851 654 851 l 222 851 l 285 921 l 285 346 m 289 -242 l 289 -157 l 742 -157 l 742 -242 l 289 -242 z "},"S":{"ha":863,"x_min":57,"x_max":806,"o":"m 429 -11 q 217 23 318 -11 q 57 111 115 57 l 108 219 q 250 139 164 171 q 429 107 336 107 q 567 126 514 107 q 644 180 619 146 q 669 257 669 214 q 637 338 669 307 q 552 387 604 368 q 438 419 500 406 q 312 452 375 433 q 197 500 249 471 q 113 578 144 529 q 81 706 81 628 q 120 844 81 781 q 242 945 160 907 q 453 983 325 983 q 621 961 538 983 q 765 897 704 939 l 719 786 q 588 847 657 828 q 453 865 518 865 q 318 844 371 865 q 241 789 265 824 q 217 711 217 754 q 249 629 217 660 q 334 581 282 599 q 449 548 386 563 q 574 515 511 533 q 690 468 638 497 q 774 390 742 439 q 806 265 806 342 q 765 128 806 192 q 641 27 725 65 q 429 -11 557 -11 z "},"Ś":{"ha":863,"x_min":57,"x_max":806,"o":"m 429 -11 q 217 23 318 -11 q 57 111 115 57 l 108 219 q 250 139 164 171 q 429 107 336 107 q 567 126 514 107 q 644 180 619 146 q 669 257 669 214 q 637 338 669 307 q 552 387 604 368 q 438 419 500 406 q 312 452 375 433 q 197 500 249 471 q 113 578 144 529 q 81 706 81 628 q 120 844 81 781 q 242 945 160 907 q 453 983 325 983 q 621 961 538 983 q 765 897 704 939 l 719 786 q 588 847 657 828 q 453 865 518 865 q 318 844 371 865 q 241 789 265 824 q 217 711 217 754 q 249 629 217 660 q 334 581 282 599 q 449 548 386 563 q 574 515 511 533 q 690 468 638 497 q 774 390 742 439 q 806 265 806 342 q 765 128 806 192 q 641 27 725 65 q 429 -11 557 -11 z "},"Ṥ":{"ha":863,"x_min":57,"x_max":806,"o":"m 429 -11 q 217 23 318 -11 q 57 111 115 57 l 108 219 q 250 139 164 171 q 429 107 336 107 q 567 126 514 107 q 644 180 619 146 q 669 257 669 214 q 637 338 669 307 q 552 387 604 368 q 438 419 500 406 q 312 452 375 433 q 197 500 249 471 q 113 578 144 529 q 81 706 81 628 q 120 844 81 781 q 242 945 160 907 q 453 983 325 983 q 621 961 538 983 q 765 897 704 939 l 719 786 q 588 847 657 828 q 453 865 518 865 q 318 844 371 865 q 241 789 265 824 q 217 711 217 754 q 249 629 217 660 q 334 581 282 599 q 449 548 386 563 q 574 515 511 533 q 690 468 638 497 q 774 390 742 439 q 806 265 806 342 q 765 128 806 192 q 641 27 725 65 q 429 -11 557 -11 z "},"Ꞌ":{"ha":358,"x_min":111,"x_max":247,"o":"m 111 413 l 111 972 l 247 972 l 231 413 l 111 413 z "},"Š":{"ha":863,"x_min":57,"x_max":806,"o":"m 429 -11 q 217 23 318 -11 q 57 111 115 57 l 108 219 q 250 139 164 171 q 429 107 336 107 q 567 126 514 107 q 644 180 619 146 q 669 257 669 214 q 637 338 669 307 q 552 387 604 368 q 438 419 500 406 q 312 452 375 433 q 197 500 249 471 q 113 578 144 529 q 81 706 81 628 q 120 844 81 781 q 242 945 160 907 q 453 983 325 983 q 621 961 538 983 q 765 897 704 939 l 719 786 q 588 847 657 828 q 453 865 518 865 q 318 844 371 865 q 241 789 265 824 q 217 711 217 754 q 249 629 217 660 q 334 581 282 599 q 449 548 386 563 q 574 515 511 533 q 690 468 638 497 q 774 390 742 439 q 806 265 806 342 q 765 128 806 192 q 641 27 725 65 q 429 -11 557 -11 z "},"Ṧ":{"ha":863,"x_min":57,"x_max":806,"o":"m 429 -11 q 217 23 318 -11 q 57 111 115 57 l 108 219 q 250 139 164 171 q 429 107 336 107 q 567 126 514 107 q 644 180 619 146 q 669 257 669 214 q 637 338 669 307 q 552 387 604 368 q 438 419 500 406 q 312 452 375 433 q 197 500 249 471 q 113 578 144 529 q 81 706 81 628 q 120 844 81 781 q 242 945 160 907 q 453 983 325 983 q 621 961 538 983 q 765 897 704 939 l 719 786 q 588 847 657 828 q 453 865 518 865 q 318 844 371 865 q 241 789 265 824 q 217 711 217 754 q 249 629 217 660 q 334 581 282 599 q 449 548 386 563 q 574 515 511 533 q 690 468 638 497 q 774 390 742 439 q 806 265 806 342 q 765 128 806 192 q 641 27 725 65 q 429 -11 557 -11 z "},"Ş":{"ha":863,"x_min":57,"x_max":806,"o":"m 429 -11 q 217 23 318 -11 q 57 111 115 57 l 108 219 q 250 139 164 171 q 429 107 336 107 q 567 126 514 107 q 644 180 619 146 q 669 257 669 214 q 637 338 669 307 q 552 387 604 368 q 438 419 500 406 q 312 452 375 433 q 197 500 249 471 q 113 578 144 529 q 81 706 81 628 q 120 844 81 781 q 242 945 160 907 q 453 983 325 983 q 621 961 538 983 q 765 897 704 939 l 719 786 q 588 847 657 828 q 453 865 518 865 q 318 844 371 865 q 241 789 265 824 q 217 711 217 754 q 249 629 217 660 q 334 581 282 599 q 449 548 386 563 q 574 515 511 533 q 690 468 638 497 q 774 390 742 439 q 806 265 806 342 q 765 128 806 192 q 641 27 725 65 q 429 -11 557 -11 m 413 -311 q 346 -303 376 -311 q 289 -281 315 -296 l 318 -212 q 363 -231 340 -225 q 413 -236 386 -236 q 472 -222 453 -236 q 490 -181 490 -207 q 472 -141 490 -156 q 411 -126 453 -126 l 374 -126 l 408 10 l 485 10 l 464 -69 q 554 -107 524 -75 q 585 -185 585 -139 q 538 -277 585 -243 q 413 -311 490 -311 z "},"Ŝ":{"ha":863,"x_min":57,"x_max":806,"o":"m 429 -11 q 217 23 318 -11 q 57 111 115 57 l 108 219 q 250 139 164 171 q 429 107 336 107 q 567 126 514 107 q 644 180 619 146 q 669 257 669 214 q 637 338 669 307 q 552 387 604 368 q 438 419 500 406 q 312 452 375 433 q 197 500 249 471 q 113 578 144 529 q 81 706 81 628 q 120 844 81 781 q 242 945 160 907 q 453 983 325 983 q 621 961 538 983 q 765 897 704 939 l 719 786 q 588 847 657 828 q 453 865 518 865 q 318 844 371 865 q 241 789 265 824 q 217 711 217 754 q 249 629 217 660 q 334 581 282 599 q 449 548 386 563 q 574 515 511 533 q 690 468 638 497 q 774 390 742 439 q 806 265 806 342 q 765 128 806 192 q 641 27 725 65 q 429 -11 557 -11 z "},"Ș":{"ha":863,"x_min":57,"x_max":806,"o":"m 429 -11 q 217 23 318 -11 q 57 111 115 57 l 108 219 q 250 139 164 171 q 429 107 336 107 q 567 126 514 107 q 644 180 619 146 q 669 257 669 214 q 637 338 669 307 q 552 387 604 368 q 438 419 500 406 q 312 452 375 433 q 197 500 249 471 q 113 578 144 529 q 81 706 81 628 q 120 844 81 781 q 242 945 160 907 q 453 983 325 983 q 621 961 538 983 q 765 897 704 939 l 719 786 q 588 847 657 828 q 453 865 518 865 q 318 844 371 865 q 241 789 265 824 q 217 711 217 754 q 249 629 217 660 q 334 581 282 599 q 449 548 386 563 q 574 515 511 533 q 690 468 638 497 q 774 390 742 439 q 806 265 806 342 q 765 128 806 192 q 641 27 725 65 q 429 -11 557 -11 m 389 -365 l 435 -207 l 447 -257 q 395 -240 414 -257 q 376 -194 376 -222 q 396 -149 376 -167 q 447 -131 415 -131 q 499 -149 481 -131 q 518 -194 518 -168 q 515 -226 518 -208 q 500 -265 511 -244 l 458 -365 l 389 -365 z "},"Ṡ":{"ha":863,"x_min":57,"x_max":806,"o":"m 429 -11 q 217 23 318 -11 q 57 111 115 57 l 108 219 q 250 139 164 171 q 429 107 336 107 q 567 126 514 107 q 644 180 619 146 q 669 257 669 214 q 637 338 669 307 q 552 387 604 368 q 438 419 500 406 q 312 452 375 433 q 197 500 249 471 q 113 578 144 529 q 81 706 81 628 q 120 844 81 781 q 242 945 160 907 q 453 983 325 983 q 621 961 538 983 q 765 897 704 939 l 719 786 q 588 847 657 828 q 453 865 518 865 q 318 844 371 865 q 241 789 265 824 q 217 711 217 754 q 249 629 217 660 q 334 581 282 599 q 449 548 386 563 q 574 515 511 533 q 690 468 638 497 q 774 390 742 439 q 806 265 806 342 q 765 128 806 192 q 641 27 725 65 q 429 -11 557 -11 z "},"Ṣ":{"ha":863,"x_min":57,"x_max":806,"o":"m 429 -11 q 217 23 318 -11 q 57 111 115 57 l 108 219 q 250 139 164 171 q 429 107 336 107 q 567 126 514 107 q 644 180 619 146 q 669 257 669 214 q 637 338 669 307 q 552 387 604 368 q 438 419 500 406 q 312 452 375 433 q 197 500 249 471 q 113 578 144 529 q 81 706 81 628 q 120 844 81 781 q 242 945 160 907 q 453 983 325 983 q 621 961 538 983 q 765 897 704 939 l 719 786 q 588 847 657 828 q 453 865 518 865 q 318 844 371 865 q 241 789 265 824 q 217 711 217 754 q 249 629 217 660 q 334 581 282 599 q 449 548 386 563 q 574 515 511 533 q 690 468 638 497 q 774 390 742 439 q 806 265 806 342 q 765 128 806 192 q 641 27 725 65 q 429 -11 557 -11 m 447 -272 q 397 -253 418 -272 q 376 -203 376 -233 q 397 -151 376 -171 q 447 -131 418 -131 q 497 -151 476 -131 q 518 -203 518 -171 q 497 -253 518 -233 q 447 -272 476 -272 z "},"Ṩ":{"ha":863,"x_min":57,"x_max":806,"o":"m 429 -11 q 217 23 318 -11 q 57 111 115 57 l 108 219 q 250 139 164 171 q 429 107 336 107 q 567 126 514 107 q 644 180 619 146 q 669 257 669 214 q 637 338 669 307 q 552 387 604 368 q 438 419 500 406 q 312 452 375 433 q 197 500 249 471 q 113 578 144 529 q 81 706 81 628 q 120 844 81 781 q 242 945 160 907 q 453 983 325 983 q 621 961 538 983 q 765 897 704 939 l 719 786 q 588 847 657 828 q 453 865 518 865 q 318 844 371 865 q 241 789 265 824 q 217 711 217 754 q 249 629 217 660 q 334 581 282 599 q 449 548 386 563 q 574 515 511 533 q 690 468 638 497 q 774 390 742 439 q 806 265 806 342 q 765 128 806 192 q 641 27 725 65 q 429 -11 557 -11 m 447 -272 q 397 -253 418 -272 q 376 -203 376 -233 q 397 -151 376 -171 q 447 -131 418 -131 q 497 -151 476 -131 q 518 -203 518 -171 q 497 -253 518 -233 q 447 -272 476 -272 z "},"ẞ":{"ha":1060,"x_min":138,"x_max":989,"o":"m 644 -11 q 544 -3 593 -11 q 453 24 496 6 l 475 140 q 551 115 510 124 q 638 107 592 107 q 792 151 735 107 q 849 285 849 196 q 791 417 849 372 q 635 463 733 463 q 575 458 606 463 q 521 447 544 454 l 494 514 l 821 879 l 838 785 q 717 846 783 826 q 579 865 651 865 q 353 785 429 865 q 276 558 276 706 l 276 0 l 138 0 l 138 563 q 189 786 138 692 q 337 932 240 881 q 569 983 433 983 q 690 973 631 983 q 803 942 749 963 q 897 888 857 921 l 897 797 l 607 476 l 550 557 q 601 568 574 565 q 657 571 628 571 q 827 538 751 571 q 946 439 903 504 q 989 279 989 374 q 946 120 989 185 q 825 22 903 56 q 644 -11 747 -11 z "},"Ə":{"ha":1135,"x_min":67,"x_max":1068,"o":"m 568 -11 q 368 26 460 -11 q 209 131 276 64 q 104 291 142 199 q 67 492 67 383 l 67 531 l 944 531 l 944 413 l 160 413 l 204 486 q 231 332 204 401 q 306 213 257 263 q 421 136 354 164 q 568 108 488 108 q 715 135 649 108 q 828 212 781 163 q 903 329 876 261 q 929 479 929 397 l 929 492 q 901 638 929 571 q 822 755 872 706 q 703 832 771 804 q 558 860 636 860 q 447 847 501 860 q 342 810 392 835 q 253 746 293 785 l 169 842 q 276 919 215 888 q 408 967 336 950 q 560 983 481 983 q 763 947 671 983 q 924 842 856 910 q 1031 685 993 775 q 1068 488 1068 594 q 1031 290 1068 381 q 925 131 993 199 q 766 26 857 64 q 568 -11 675 -11 z "},"T":{"ha":815,"x_min":6,"x_max":810,"o":"m 339 0 l 339 851 l 6 851 l 6 972 l 810 972 l 810 851 l 476 851 l 476 0 l 339 0 z "},"Ŧ":{"ha":815,"x_min":6,"x_max":810,"o":"m 339 0 l 339 851 l 6 851 l 6 972 l 810 972 l 810 851 l 476 851 l 476 0 l 339 0 m 129 417 l 129 526 l 685 526 l 685 417 l 129 417 z "},"Ť":{"ha":815,"x_min":6,"x_max":810,"o":"m 339 0 l 339 851 l 6 851 l 6 972 l 810 972 l 810 851 l 476 851 l 476 0 l 339 0 z "},"Ţ":{"ha":815,"x_min":6,"x_max":810,"o":"m 339 0 l 339 851 l 6 851 l 6 972 l 810 972 l 810 851 l 476 851 l 476 0 l 339 0 m 372 -311 q 306 -303 336 -311 q 249 -281 275 -296 l 278 -212 q 323 -231 300 -225 q 372 -236 346 -236 q 431 -222 413 -236 q 450 -181 450 -207 q 431 -141 450 -156 q 371 -126 413 -126 l 333 -126 l 368 10 l 444 10 l 424 -69 q 514 -107 483 -75 q 544 -185 544 -139 q 497 -277 544 -243 q 372 -311 450 -311 z "},"Ț":{"ha":815,"x_min":6,"x_max":810,"o":"m 339 0 l 339 851 l 6 851 l 6 972 l 810 972 l 810 851 l 476 851 l 476 0 l 339 0 m 349 -365 l 394 -207 l 407 -257 q 355 -240 374 -257 q 336 -194 336 -222 q 356 -149 336 -167 q 407 -131 375 -131 q 459 -149 440 -131 q 478 -194 478 -168 q 474 -226 478 -208 q 460 -265 471 -244 l 418 -365 l 349 -365 z "},"Ṭ":{"ha":815,"x_min":6,"x_max":810,"o":"m 339 0 l 339 851 l 6 851 l 6 972 l 810 972 l 810 851 l 476 851 l 476 0 l 339 0 m 407 -272 q 357 -253 378 -272 q 336 -203 336 -233 q 357 -151 336 -171 q 407 -131 378 -131 q 457 -151 436 -131 q 478 -203 478 -171 q 457 -253 478 -233 q 407 -272 436 -272 z "},"Ṯ":{"ha":815,"x_min":6,"x_max":810,"o":"m 339 0 l 339 851 l 6 851 l 6 972 l 810 972 l 810 851 l 476 851 l 476 0 l 339 0 m 181 -242 l 181 -157 l 633 -157 l 633 -242 l 181 -242 z "},"U":{"ha":1099,"x_min":138,"x_max":960,"o":"m 549 -11 q 247 99 357 -11 q 138 419 138 208 l 138 972 l 276 972 l 276 425 q 348 188 276 263 q 550 113 419 113 q 753 188 682 113 q 825 425 825 263 l 825 972 l 960 972 l 960 419 q 851 99 960 208 q 549 -11 742 -11 z "},"Ú":{"ha":1099,"x_min":138,"x_max":960,"o":"m 549 -11 q 247 99 357 -11 q 138 419 138 208 l 138 972 l 276 972 l 276 425 q 348 188 276 263 q 550 113 419 113 q 753 188 682 113 q 825 425 825 263 l 825 972 l 960 972 l 960 419 q 851 99 960 208 q 549 -11 742 -11 z "},"Ŭ":{"ha":1099,"x_min":138,"x_max":960,"o":"m 549 -11 q 247 99 357 -11 q 138 419 138 208 l 138 972 l 276 972 l 276 425 q 348 188 276 263 q 550 113 419 113 q 753 188 682 113 q 825 425 825 263 l 825 972 l 960 972 l 960 419 q 851 99 960 208 q 549 -11 742 -11 z "},"Ǔ":{"ha":1099,"x_min":138,"x_max":960,"o":"m 549 -11 q 247 99 357 -11 q 138 419 138 208 l 138 972 l 276 972 l 276 425 q 348 188 276 263 q 550 113 419 113 q 753 188 682 113 q 825 425 825 263 l 825 972 l 960 972 l 960 419 q 851 99 960 208 q 549 -11 742 -11 z "},"Û":{"ha":1099,"x_min":138,"x_max":960,"o":"m 549 -11 q 247 99 357 -11 q 138 419 138 208 l 138 972 l 276 972 l 276 425 q 348 188 276 263 q 550 113 419 113 q 753 188 682 113 q 825 425 825 263 l 825 972 l 960 972 l 960 419 q 851 99 960 208 q 549 -11 742 -11 z "},"Ȕ":{"ha":1099,"x_min":138,"x_max":960,"o":"m 549 -11 q 247 99 357 -11 q 138 419 138 208 l 138 972 l 276 972 l 276 425 q 348 188 276 263 q 550 113 419 113 q 753 188 682 113 q 825 425 825 263 l 825 972 l 960 972 l 960 419 q 851 99 960 208 q 549 -11 742 -11 z "},"Ü":{"ha":1099,"x_min":138,"x_max":960,"o":"m 549 -11 q 247 99 357 -11 q 138 419 138 208 l 138 972 l 276 972 l 276 425 q 348 188 276 263 q 550 113 419 113 q 753 188 682 113 q 825 425 825 263 l 825 972 l 960 972 l 960 419 q 851 99 960 208 q 549 -11 742 -11 z "},"Ụ":{"ha":1099,"x_min":138,"x_max":960,"o":"m 549 -11 q 247 99 357 -11 q 138 419 138 208 l 138 972 l 276 972 l 276 425 q 348 188 276 263 q 550 113 419 113 q 753 188 682 113 q 825 425 825 263 l 825 972 l 960 972 l 960 419 q 851 99 960 208 q 549 -11 742 -11 m 550 -272 q 500 -253 521 -272 q 479 -203 479 -233 q 500 -151 479 -171 q 550 -131 521 -131 q 600 -151 579 -131 q 621 -203 621 -171 q 600 -253 621 -233 q 550 -272 579 -272 z "},"Ù":{"ha":1099,"x_min":138,"x_max":960,"o":"m 549 -11 q 247 99 357 -11 q 138 419 138 208 l 138 972 l 276 972 l 276 425 q 348 188 276 263 q 550 113 419 113 q 753 188 682 113 q 825 425 825 263 l 825 972 l 960 972 l 960 419 q 851 99 960 208 q 549 -11 742 -11 z "},"Ủ":{"ha":1099,"x_min":138,"x_max":960,"o":"m 549 -11 q 247 99 357 -11 q 138 419 138 208 l 138 972 l 276 972 l 276 425 q 348 188 276 263 q 550 113 419 113 q 753 188 682 113 q 825 425 825 263 l 825 972 l 960 972 l 960 419 q 851 99 960 208 q 549 -11 742 -11 z "},"Ư":{"ha":1108,"x_min":138,"x_max":1101,"o":"m 549 -11 q 247 99 357 -11 q 138 419 138 208 l 138 972 l 276 972 l 276 425 q 348 188 276 263 q 550 113 419 113 q 753 188 682 113 q 825 425 825 263 l 825 972 l 960 972 l 960 419 q 851 99 960 208 q 549 -11 742 -11 m 892 871 l 892 972 l 917 972 q 984 998 963 972 q 1006 1063 1006 1024 q 998 1111 1006 1089 q 978 1150 990 1133 l 1063 1182 q 1092 1126 1082 1158 q 1101 1058 1101 1094 q 1053 923 1101 975 q 917 871 1004 871 l 892 871 z "},"Ứ":{"ha":1108,"x_min":138,"x_max":1101,"o":"m 549 -11 q 247 99 357 -11 q 138 419 138 208 l 138 972 l 276 972 l 276 425 q 348 188 276 263 q 550 113 419 113 q 753 188 682 113 q 825 425 825 263 l 825 972 l 960 972 l 960 419 q 851 99 960 208 q 549 -11 742 -11 m 892 871 l 892 972 l 917 972 q 984 998 963 972 q 1006 1063 1006 1024 q 998 1111 1006 1089 q 978 1150 990 1133 l 1063 1182 q 1092 1126 1082 1158 q 1101 1058 1101 1094 q 1053 923 1101 975 q 917 871 1004 871 l 892 871 z "},"Ự":{"ha":1108,"x_min":138,"x_max":1101,"o":"m 549 -11 q 247 99 357 -11 q 138 419 138 208 l 138 972 l 276 972 l 276 425 q 348 188 276 263 q 550 113 419 113 q 753 188 682 113 q 825 425 825 263 l 825 972 l 960 972 l 960 419 q 851 99 960 208 q 549 -11 742 -11 m 892 871 l 892 972 l 917 972 q 984 998 963 972 q 1006 1063 1006 1024 q 998 1111 1006 1089 q 978 1150 990 1133 l 1063 1182 q 1092 1126 1082 1158 q 1101 1058 1101 1094 q 1053 923 1101 975 q 917 871 1004 871 l 892 871 m 550 -272 q 500 -253 521 -272 q 479 -203 479 -233 q 500 -151 479 -171 q 550 -131 521 -131 q 600 -151 579 -131 q 621 -203 621 -171 q 600 -253 621 -233 q 550 -272 579 -272 z "},"Ừ":{"ha":1108,"x_min":138,"x_max":1101,"o":"m 549 -11 q 247 99 357 -11 q 138 419 138 208 l 138 972 l 276 972 l 276 425 q 348 188 276 263 q 550 113 419 113 q 753 188 682 113 q 825 425 825 263 l 825 972 l 960 972 l 960 419 q 851 99 960 208 q 549 -11 742 -11 m 892 871 l 892 972 l 917 972 q 984 998 963 972 q 1006 1063 1006 1024 q 998 1111 1006 1089 q 978 1150 990 1133 l 1063 1182 q 1092 1126 1082 1158 q 1101 1058 1101 1094 q 1053 923 1101 975 q 917 871 1004 871 l 892 871 z "},"Ử":{"ha":1108,"x_min":138,"x_max":1101,"o":"m 549 -11 q 247 99 357 -11 q 138 419 138 208 l 138 972 l 276 972 l 276 425 q 348 188 276 263 q 550 113 419 113 q 753 188 682 113 q 825 425 825 263 l 825 972 l 960 972 l 960 419 q 851 99 960 208 q 549 -11 742 -11 m 892 871 l 892 972 l 917 972 q 984 998 963 972 q 1006 1063 1006 1024 q 998 1111 1006 1089 q 978 1150 990 1133 l 1063 1182 q 1092 1126 1082 1158 q 1101 1058 1101 1094 q 1053 923 1101 975 q 917 871 1004 871 l 892 871 z "},"Ữ":{"ha":1108,"x_min":138,"x_max":1101,"o":"m 549 -11 q 247 99 357 -11 q 138 419 138 208 l 138 972 l 276 972 l 276 425 q 348 188 276 263 q 550 113 419 113 q 753 188 682 113 q 825 425 825 263 l 825 972 l 960 972 l 960 419 q 851 99 960 208 q 549 -11 742 -11 m 892 871 l 892 972 l 917 972 q 984 998 963 972 q 1006 1063 1006 1024 q 998 1111 1006 1089 q 978 1150 990 1133 l 1063 1182 q 1092 1126 1082 1158 q 1101 1058 1101 1094 q 1053 923 1101 975 q 917 871 1004 871 l 892 871 z "},"Ű":{"ha":1099,"x_min":138,"x_max":960,"o":"m 549 -11 q 247 99 357 -11 q 138 419 138 208 l 138 972 l 276 972 l 276 425 q 348 188 276 263 q 550 113 419 113 q 753 188 682 113 q 825 425 825 263 l 825 972 l 960 972 l 960 419 q 851 99 960 208 q 549 -11 742 -11 z "},"Ȗ":{"ha":1099,"x_min":138,"x_max":960,"o":"m 549 -11 q 247 99 357 -11 q 138 419 138 208 l 138 972 l 276 972 l 276 425 q 348 188 276 263 q 550 113 419 113 q 753 188 682 113 q 825 425 825 263 l 825 972 l 960 972 l 960 419 q 851 99 960 208 q 549 -11 742 -11 z "},"Ū":{"ha":1099,"x_min":138,"x_max":960,"o":"m 549 -11 q 247 99 357 -11 q 138 419 138 208 l 138 972 l 276 972 l 276 425 q 348 188 276 263 q 550 113 419 113 q 753 188 682 113 q 825 425 825 263 l 825 972 l 960 972 l 960 419 q 851 99 960 208 q 549 -11 742 -11 z "},"Ṻ":{"ha":1099,"x_min":138,"x_max":960,"o":"m 549 -11 q 247 99 357 -11 q 138 419 138 208 l 138 972 l 276 972 l 276 425 q 348 188 276 263 q 550 113 419 113 q 753 188 682 113 q 825 425 825 263 l 825 972 l 960 972 l 960 419 q 851 99 960 208 q 549 -11 742 -11 z "},"Ų":{"ha":1099,"x_min":138,"x_max":960,"o":"m 825 972 l 960 972 l 960 419 q 892 151 960 250 q 708 11 824 53 q 583 -48 626 -18 q 524 -106 540 -78 q 508 -161 508 -135 q 533 -215 508 -196 q 594 -233 557 -233 q 640 -226 617 -233 q 679 -210 663 -219 l 706 -278 q 647 -302 679 -293 q 581 -311 615 -311 q 458 -272 503 -311 q 414 -171 414 -233 q 433 -95 414 -133 q 494 -21 451 -57 q 613 44 538 15 l 608 -8 q 579 -10 594 -10 q 549 -11 564 -11 q 247 99 357 -11 q 138 419 138 208 l 138 972 l 276 972 l 276 425 q 348 188 276 263 q 550 113 419 113 q 753 188 682 113 q 825 425 825 263 l 825 972 z "},"Ů":{"ha":1099,"x_min":138,"x_max":960,"o":"m 549 -11 q 247 99 357 -11 q 138 419 138 208 l 138 972 l 276 972 l 276 425 q 348 188 276 263 q 550 113 419 113 q 753 188 682 113 q 825 425 825 263 l 825 972 l 960 972 l 960 419 q 851 99 960 208 q 549 -11 742 -11 m 549 1061 q 471 1082 506 1061 q 416 1136 436 1103 q 396 1211 396 1169 q 416 1288 396 1253 q 471 1343 436 1322 q 549 1364 506 1364 q 628 1343 593 1364 q 683 1288 663 1322 q 703 1211 703 1253 q 683 1136 703 1169 q 628 1082 663 1103 q 549 1061 593 1061 m 549 1119 q 615 1146 589 1119 q 640 1211 640 1172 q 615 1278 640 1251 q 549 1304 589 1304 q 484 1278 510 1304 q 458 1211 458 1253 q 483 1146 458 1172 q 549 1119 508 1119 z "},"Ũ":{"ha":1099,"x_min":138,"x_max":960,"o":"m 549 -11 q 247 99 357 -11 q 138 419 138 208 l 138 972 l 276 972 l 276 425 q 348 188 276 263 q 550 113 419 113 q 753 188 682 113 q 825 425 825 263 l 825 972 l 960 972 l 960 419 q 851 99 960 208 q 549 -11 742 -11 z "},"Ṹ":{"ha":1099,"x_min":138,"x_max":960,"o":"m 549 -11 q 247 99 357 -11 q 138 419 138 208 l 138 972 l 276 972 l 276 425 q 348 188 276 263 q 550 113 419 113 q 753 188 682 113 q 825 425 825 263 l 825 972 l 960 972 l 960 419 q 851 99 960 208 q 549 -11 742 -11 z "},"V":{"ha":989,"x_min":-1,"x_max":990,"o":"m 426 0 l -1 972 l 149 972 l 542 75 l 456 75 l 851 972 l 990 972 l 564 0 l 426 0 z "},"W":{"ha":1564,"x_min":44,"x_max":1519,"o":"m 369 0 l 44 972 l 188 972 l 486 75 l 414 75 l 724 972 l 851 972 l 1154 75 l 1085 75 l 1388 972 l 1519 972 l 1194 0 l 1049 0 l 765 832 l 803 832 l 518 0 l 369 0 z "},"Ẃ":{"ha":1564,"x_min":44,"x_max":1519,"o":"m 369 0 l 44 972 l 188 972 l 486 75 l 414 75 l 724 972 l 851 972 l 1154 75 l 1085 75 l 1388 972 l 1519 972 l 1194 0 l 1049 0 l 765 832 l 803 832 l 518 0 l 369 0 z "},"Ŵ":{"ha":1564,"x_min":44,"x_max":1519,"o":"m 369 0 l 44 972 l 188 972 l 486 75 l 414 75 l 724 972 l 851 972 l 1154 75 l 1085 75 l 1388 972 l 1519 972 l 1194 0 l 1049 0 l 765 832 l 803 832 l 518 0 l 369 0 z "},"Ẅ":{"ha":1564,"x_min":44,"x_max":1519,"o":"m 369 0 l 44 972 l 188 972 l 486 75 l 414 75 l 724 972 l 851 972 l 1154 75 l 1085 75 l 1388 972 l 1519 972 l 1194 0 l 1049 0 l 765 832 l 803 832 l 518 0 l 369 0 z "},"Ẁ":{"ha":1564,"x_min":44,"x_max":1519,"o":"m 369 0 l 44 972 l 188 972 l 486 75 l 414 75 l 724 972 l 851 972 l 1154 75 l 1085 75 l 1388 972 l 1519 972 l 1194 0 l 1049 0 l 765 832 l 803 832 l 518 0 l 369 0 z "},"X":{"ha":935,"x_min":18,"x_max":917,"o":"m 18 0 l 422 551 l 422 444 l 40 972 l 199 972 l 501 557 l 439 556 l 740 972 l 892 972 l 513 453 l 513 553 l 917 0 l 757 0 l 435 443 l 496 443 l 178 0 l 18 0 z "},"Y":{"ha":899,"x_min":-6,"x_max":904,"o":"m 381 0 l 381 372 l 413 286 l -6 972 l 143 972 l 494 393 l 414 393 l 767 972 l 904 972 l 488 286 l 518 372 l 518 0 l 381 0 z "},"Ý":{"ha":899,"x_min":-6,"x_max":904,"o":"m 381 0 l 381 372 l 413 286 l -6 972 l 143 972 l 494 393 l 414 393 l 767 972 l 904 972 l 488 286 l 518 372 l 518 0 l 381 0 z "},"Ŷ":{"ha":899,"x_min":-6,"x_max":904,"o":"m 381 0 l 381 372 l 413 286 l -6 972 l 143 972 l 494 393 l 414 393 l 767 972 l 904 972 l 488 286 l 518 372 l 518 0 l 381 0 z "},"Ÿ":{"ha":899,"x_min":-6,"x_max":904,"o":"m 381 0 l 381 372 l 413 286 l -6 972 l 143 972 l 494 393 l 414 393 l 767 972 l 904 972 l 488 286 l 518 372 l 518 0 l 381 0 z "},"Ẏ":{"ha":899,"x_min":-6,"x_max":904,"o":"m 381 0 l 381 372 l 413 286 l -6 972 l 143 972 l 494 393 l 414 393 l 767 972 l 904 972 l 488 286 l 518 372 l 518 0 l 381 0 z "},"Ỵ":{"ha":899,"x_min":-6,"x_max":904,"o":"m 381 0 l 381 372 l 413 286 l -6 972 l 143 972 l 494 393 l 414 393 l 767 972 l 904 972 l 488 286 l 518 372 l 518 0 l 381 0 m 450 -272 q 400 -253 421 -272 q 379 -203 379 -233 q 400 -151 379 -171 q 450 -131 421 -131 q 500 -151 479 -131 q 521 -203 521 -171 q 500 -253 521 -233 q 450 -272 479 -272 z "},"Ỳ":{"ha":899,"x_min":-6,"x_max":904,"o":"m 381 0 l 381 372 l 413 286 l -6 972 l 143 972 l 494 393 l 414 393 l 767 972 l 904 972 l 488 286 l 518 372 l 518 0 l 381 0 z "},"Ỷ":{"ha":899,"x_min":-6,"x_max":904,"o":"m 381 0 l 381 372 l 413 286 l -6 972 l 143 972 l 494 393 l 414 393 l 767 972 l 904 972 l 488 286 l 518 372 l 518 0 l 381 0 z "},"Ȳ":{"ha":899,"x_min":-6,"x_max":904,"o":"m 381 0 l 381 372 l 413 286 l -6 972 l 143 972 l 494 393 l 414 393 l 767 972 l 904 972 l 488 286 l 518 372 l 518 0 l 381 0 z "},"Ỹ":{"ha":899,"x_min":-6,"x_max":904,"o":"m 381 0 l 381 372 l 413 286 l -6 972 l 143 972 l 494 393 l 414 393 l 767 972 l 904 972 l 488 286 l 518 372 l 518 0 l 381 0 z "},"Z":{"ha":913,"x_min":60,"x_max":872,"o":"m 60 0 l 60 94 l 714 906 l 729 851 l 69 851 l 69 972 l 854 972 l 854 878 l 203 67 l 186 121 l 872 121 l 872 0 l 60 0 z "},"Ź":{"ha":913,"x_min":60,"x_max":872,"o":"m 60 0 l 60 94 l 714 906 l 729 851 l 69 851 l 69 972 l 854 972 l 854 878 l 203 67 l 186 121 l 872 121 l 872 0 l 60 0 z "},"Ž":{"ha":913,"x_min":60,"x_max":872,"o":"m 60 0 l 60 94 l 714 906 l 729 851 l 69 851 l 69 972 l 854 972 l 854 878 l 203 67 l 186 121 l 872 121 l 872 0 l 60 0 z "},"Ż":{"ha":913,"x_min":60,"x_max":872,"o":"m 60 0 l 60 94 l 714 906 l 729 851 l 69 851 l 69 972 l 854 972 l 854 878 l 203 67 l 186 121 l 872 121 l 872 0 l 60 0 z "},"Ẓ":{"ha":913,"x_min":60,"x_max":872,"o":"m 60 0 l 60 94 l 714 906 l 729 851 l 69 851 l 69 972 l 854 972 l 854 878 l 203 67 l 186 121 l 872 121 l 872 0 l 60 0 m 475 -272 q 425 -253 446 -272 q 404 -203 404 -233 q 425 -151 404 -171 q 475 -131 446 -131 q 525 -151 504 -131 q 546 -203 546 -171 q 525 -253 546 -233 q 475 -272 504 -272 z "},"a":{"ha":831,"x_min":69,"x_max":710,"o":"m 583 0 l 583 156 l 576 185 l 576 450 q 527 581 576 535 q 379 628 478 628 q 251 606 314 628 q 146 549 189 585 l 90 649 q 227 719 147 694 q 394 743 307 743 q 628 669 546 743 q 710 444 710 596 l 710 0 l 583 0 m 342 -8 q 198 19 260 -8 q 103 97 136 47 q 69 208 69 146 q 98 317 69 268 q 191 394 126 365 q 365 424 256 424 l 599 424 l 599 328 l 371 328 q 236 294 271 328 q 201 214 201 261 q 244 127 201 160 q 364 94 288 94 q 495 128 439 94 q 576 225 551 161 l 603 133 q 510 30 576 68 q 342 -8 443 -8 z "},"á":{"ha":831,"x_min":69,"x_max":710,"o":"m 583 0 l 583 156 l 576 185 l 576 450 q 527 581 576 535 q 379 628 478 628 q 251 606 314 628 q 146 549 189 585 l 90 649 q 227 719 147 694 q 394 743 307 743 q 628 669 546 743 q 710 444 710 596 l 710 0 l 583 0 m 342 -8 q 198 19 260 -8 q 103 97 136 47 q 69 208 69 146 q 98 317 69 268 q 191 394 126 365 q 365 424 256 424 l 599 424 l 599 328 l 371 328 q 236 294 271 328 q 201 214 201 261 q 244 127 201 160 q 364 94 288 94 q 495 128 439 94 q 576 225 551 161 l 603 133 q 510 30 576 68 q 342 -8 443 -8 m 300 843 l 489 1024 l 658 1024 l 425 843 l 300 843 z "},"ă":{"ha":831,"x_min":69,"x_max":710,"o":"m 583 0 l 583 156 l 576 185 l 576 450 q 527 581 576 535 q 379 628 478 628 q 251 606 314 628 q 146 549 189 585 l 90 649 q 227 719 147 694 q 394 743 307 743 q 628 669 546 743 q 710 444 710 596 l 710 0 l 583 0 m 342 -8 q 198 19 260 -8 q 103 97 136 47 q 69 208 69 146 q 98 317 69 268 q 191 394 126 365 q 365 424 256 424 l 599 424 l 599 328 l 371 328 q 236 294 271 328 q 201 214 201 261 q 244 127 201 160 q 364 94 288 94 q 495 128 439 94 q 576 225 551 161 l 603 133 q 510 30 576 68 q 342 -8 443 -8 m 404 835 q 246 885 310 835 q 179 1024 182 936 l 269 1024 q 311 942 272 972 q 404 913 350 913 q 498 942 458 913 q 539 1024 538 972 l 629 1024 q 563 885 626 936 q 404 835 499 835 z "},"ắ":{"ha":831,"x_min":69,"x_max":710,"o":"m 583 0 l 583 156 l 576 185 l 576 450 q 527 581 576 535 q 379 628 478 628 q 251 606 314 628 q 146 549 189 585 l 90 649 q 227 719 147 694 q 394 743 307 743 q 628 669 546 743 q 710 444 710 596 l 710 0 l 583 0 m 342 -8 q 198 19 260 -8 q 103 97 136 47 q 69 208 69 146 q 98 317 69 268 q 191 394 126 365 q 365 424 256 424 l 599 424 l 599 328 l 371 328 q 236 294 271 328 q 201 214 201 261 q 244 127 201 160 q 364 94 288 94 q 495 128 439 94 q 576 225 551 161 l 603 133 q 510 30 576 68 q 342 -8 443 -8 z "},"ặ":{"ha":831,"x_min":69,"x_max":710,"o":"m 583 0 l 583 156 l 576 185 l 576 450 q 527 581 576 535 q 379 628 478 628 q 251 606 314 628 q 146 549 189 585 l 90 649 q 227 719 147 694 q 394 743 307 743 q 628 669 546 743 q 710 444 710 596 l 710 0 l 583 0 m 342 -8 q 198 19 260 -8 q 103 97 136 47 q 69 208 69 146 q 98 317 69 268 q 191 394 126 365 q 365 424 256 424 l 599 424 l 599 328 l 371 328 q 236 294 271 328 q 201 214 201 261 q 244 127 201 160 q 364 94 288 94 q 495 128 439 94 q 576 225 551 161 l 603 133 q 510 30 576 68 q 342 -8 443 -8 m 401 -272 q 351 -253 372 -272 q 331 -203 331 -233 q 351 -151 331 -171 q 401 -131 372 -131 q 451 -151 431 -131 q 472 -203 472 -171 q 451 -253 472 -233 q 401 -272 431 -272 m 404 835 q 246 885 310 835 q 179 1024 182 936 l 269 1024 q 311 942 272 972 q 404 913 350 913 q 498 942 458 913 q 539 1024 538 972 l 629 1024 q 563 885 626 936 q 404 835 499 835 z "},"ằ":{"ha":831,"x_min":69,"x_max":710,"o":"m 583 0 l 583 156 l 576 185 l 576 450 q 527 581 576 535 q 379 628 478 628 q 251 606 314 628 q 146 549 189 585 l 90 649 q 227 719 147 694 q 394 743 307 743 q 628 669 546 743 q 710 444 710 596 l 710 0 l 583 0 m 342 -8 q 198 19 260 -8 q 103 97 136 47 q 69 208 69 146 q 98 317 69 268 q 191 394 126 365 q 365 424 256 424 l 599 424 l 599 328 l 371 328 q 236 294 271 328 q 201 214 201 261 q 244 127 201 160 q 364 94 288 94 q 495 128 439 94 q 576 225 551 161 l 603 133 q 510 30 576 68 q 342 -8 443 -8 z "},"ẳ":{"ha":831,"x_min":69,"x_max":710,"o":"m 583 0 l 583 156 l 576 185 l 576 450 q 527 581 576 535 q 379 628 478 628 q 251 606 314 628 q 146 549 189 585 l 90 649 q 227 719 147 694 q 394 743 307 743 q 628 669 546 743 q 710 444 710 596 l 710 0 l 583 0 m 342 -8 q 198 19 260 -8 q 103 97 136 47 q 69 208 69 146 q 98 317 69 268 q 191 394 126 365 q 365 424 256 424 l 599 424 l 599 328 l 371 328 q 236 294 271 328 q 201 214 201 261 q 244 127 201 160 q 364 94 288 94 q 495 128 439 94 q 576 225 551 161 l 603 133 q 510 30 576 68 q 342 -8 443 -8 z "},"ẵ":{"ha":831,"x_min":69,"x_max":710,"o":"m 583 0 l 583 156 l 576 185 l 576 450 q 527 581 576 535 q 379 628 478 628 q 251 606 314 628 q 146 549 189 585 l 90 649 q 227 719 147 694 q 394 743 307 743 q 628 669 546 743 q 710 444 710 596 l 710 0 l 583 0 m 342 -8 q 198 19 260 -8 q 103 97 136 47 q 69 208 69 146 q 98 317 69 268 q 191 394 126 365 q 365 424 256 424 l 599 424 l 599 328 l 371 328 q 236 294 271 328 q 201 214 201 261 q 244 127 201 160 q 364 94 288 94 q 495 128 439 94 q 576 225 551 161 l 603 133 q 510 30 576 68 q 342 -8 443 -8 z "},"ǎ":{"ha":831,"x_min":69,"x_max":710,"o":"m 583 0 l 583 156 l 576 185 l 576 450 q 527 581 576 535 q 379 628 478 628 q 251 606 314 628 q 146 549 189 585 l 90 649 q 227 719 147 694 q 394 743 307 743 q 628 669 546 743 q 710 444 710 596 l 710 0 l 583 0 m 342 -8 q 198 19 260 -8 q 103 97 136 47 q 69 208 69 146 q 98 317 69 268 q 191 394 126 365 q 365 424 256 424 l 599 424 l 599 328 l 371 328 q 236 294 271 328 q 201 214 201 261 q 244 127 201 160 q 364 94 288 94 q 495 128 439 94 q 576 225 551 161 l 603 133 q 510 30 576 68 q 342 -8 443 -8 m 340 843 l 156 1024 l 276 1024 l 460 872 l 349 872 l 532 1024 l 653 1024 l 468 843 l 340 843 z "},"â":{"ha":831,"x_min":69,"x_max":710,"o":"m 583 0 l 583 156 l 576 185 l 576 450 q 527 581 576 535 q 379 628 478 628 q 251 606 314 628 q 146 549 189 585 l 90 649 q 227 719 147 694 q 394 743 307 743 q 628 669 546 743 q 710 444 710 596 l 710 0 l 583 0 m 342 -8 q 198 19 260 -8 q 103 97 136 47 q 69 208 69 146 q 98 317 69 268 q 191 394 126 365 q 365 424 256 424 l 599 424 l 599 328 l 371 328 q 236 294 271 328 q 201 214 201 261 q 244 127 201 160 q 364 94 288 94 q 495 128 439 94 q 576 225 551 161 l 603 133 q 510 30 576 68 q 342 -8 443 -8 m 156 843 l 340 1024 l 468 1024 l 653 843 l 532 843 l 349 996 l 460 996 l 276 843 l 156 843 z "},"ấ":{"ha":831,"x_min":69,"x_max":857,"o":"m 583 0 l 583 156 l 576 185 l 576 450 q 527 581 576 535 q 379 628 478 628 q 251 606 314 628 q 146 549 189 585 l 90 649 q 227 719 147 694 q 394 743 307 743 q 628 669 546 743 q 710 444 710 596 l 710 0 l 583 0 m 342 -8 q 198 19 260 -8 q 103 97 136 47 q 69 208 69 146 q 98 317 69 268 q 191 394 126 365 q 365 424 256 424 l 599 424 l 599 328 l 371 328 q 236 294 271 328 q 201 214 201 261 q 244 127 201 160 q 364 94 288 94 q 495 128 439 94 q 576 225 551 161 l 603 133 q 510 30 576 68 q 342 -8 443 -8 z "},"ậ":{"ha":831,"x_min":69,"x_max":710,"o":"m 583 0 l 583 156 l 576 185 l 576 450 q 527 581 576 535 q 379 628 478 628 q 251 606 314 628 q 146 549 189 585 l 90 649 q 227 719 147 694 q 394 743 307 743 q 628 669 546 743 q 710 444 710 596 l 710 0 l 583 0 m 342 -8 q 198 19 260 -8 q 103 97 136 47 q 69 208 69 146 q 98 317 69 268 q 191 394 126 365 q 365 424 256 424 l 599 424 l 599 328 l 371 328 q 236 294 271 328 q 201 214 201 261 q 244 127 201 160 q 364 94 288 94 q 495 128 439 94 q 576 225 551 161 l 603 133 q 510 30 576 68 q 342 -8 443 -8 m 401 -272 q 351 -253 372 -272 q 331 -203 331 -233 q 351 -151 331 -171 q 401 -131 372 -131 q 451 -151 431 -131 q 472 -203 472 -171 q 451 -253 472 -233 q 401 -272 431 -272 m 156 843 l 340 1024 l 468 1024 l 653 843 l 532 843 l 349 996 l 460 996 l 276 843 l 156 843 z "},"ầ":{"ha":831,"x_min":69,"x_max":733,"o":"m 583 0 l 583 156 l 576 185 l 576 450 q 527 581 576 535 q 379 628 478 628 q 251 606 314 628 q 146 549 189 585 l 90 649 q 227 719 147 694 q 394 743 307 743 q 628 669 546 743 q 710 444 710 596 l 710 0 l 583 0 m 342 -8 q 198 19 260 -8 q 103 97 136 47 q 69 208 69 146 q 98 317 69 268 q 191 394 126 365 q 365 424 256 424 l 599 424 l 599 328 l 371 328 q 236 294 271 328 q 201 214 201 261 q 244 127 201 160 q 364 94 288 94 q 495 128 439 94 q 576 225 551 161 l 603 133 q 510 30 576 68 q 342 -8 443 -8 z "},"ẩ":{"ha":831,"x_min":69,"x_max":710,"o":"m 583 0 l 583 156 l 576 185 l 576 450 q 527 581 576 535 q 379 628 478 628 q 251 606 314 628 q 146 549 189 585 l 90 649 q 227 719 147 694 q 394 743 307 743 q 628 669 546 743 q 710 444 710 596 l 710 0 l 583 0 m 342 -8 q 198 19 260 -8 q 103 97 136 47 q 69 208 69 146 q 98 317 69 268 q 191 394 126 365 q 365 424 256 424 l 599 424 l 599 328 l 371 328 q 236 294 271 328 q 201 214 201 261 q 244 127 201 160 q 364 94 288 94 q 495 128 439 94 q 576 225 551 161 l 603 133 q 510 30 576 68 q 342 -8 443 -8 z "},"ẫ":{"ha":831,"x_min":69,"x_max":710,"o":"m 583 0 l 583 156 l 576 185 l 576 450 q 527 581 576 535 q 379 628 478 628 q 251 606 314 628 q 146 549 189 585 l 90 649 q 227 719 147 694 q 394 743 307 743 q 628 669 546 743 q 710 444 710 596 l 710 0 l 583 0 m 342 -8 q 198 19 260 -8 q 103 97 136 47 q 69 208 69 146 q 98 317 69 268 q 191 394 126 365 q 365 424 256 424 l 599 424 l 599 328 l 371 328 q 236 294 271 328 q 201 214 201 261 q 244 127 201 160 q 364 94 288 94 q 495 128 439 94 q 576 225 551 161 l 603 133 q 510 30 576 68 q 342 -8 443 -8 z "},"ȁ":{"ha":831,"x_min":69,"x_max":710,"o":"m 583 0 l 583 156 l 576 185 l 576 450 q 527 581 576 535 q 379 628 478 628 q 251 606 314 628 q 146 549 189 585 l 90 649 q 227 719 147 694 q 394 743 307 743 q 628 669 546 743 q 710 444 710 596 l 710 0 l 583 0 m 342 -8 q 198 19 260 -8 q 103 97 136 47 q 69 208 69 146 q 98 317 69 268 q 191 394 126 365 q 365 424 256 424 l 599 424 l 599 328 l 371 328 q 236 294 271 328 q 201 214 201 261 q 244 127 201 160 q 364 94 288 94 q 495 128 439 94 q 576 225 551 161 l 603 133 q 510 30 576 68 q 342 -8 443 -8 m 469 843 l 315 1024 l 457 1024 l 582 843 l 469 843 m 226 843 l 75 1024 l 215 1024 l 339 843 l 226 843 z "},"ä":{"ha":831,"x_min":69,"x_max":710,"o":"m 583 0 l 583 156 l 576 185 l 576 450 q 527 581 576 535 q 379 628 478 628 q 251 606 314 628 q 146 549 189 585 l 90 649 q 227 719 147 694 q 394 743 307 743 q 628 669 546 743 q 710 444 710 596 l 710 0 l 583 0 m 342 -8 q 198 19 260 -8 q 103 97 136 47 q 69 208 69 146 q 98 317 69 268 q 191 394 126 365 q 365 424 256 424 l 599 424 l 599 328 l 371 328 q 236 294 271 328 q 201 214 201 261 q 244 127 201 160 q 364 94 288 94 q 495 128 439 94 q 576 225 551 161 l 603 133 q 510 30 576 68 q 342 -8 443 -8 m 533 867 q 483 887 504 867 q 463 938 463 907 q 483 990 463 969 q 533 1010 504 1010 q 583 990 563 1010 q 604 938 604 969 q 583 887 604 907 q 533 867 563 867 m 275 867 q 225 887 246 867 q 204 938 204 907 q 225 990 204 969 q 275 1010 246 1010 q 325 990 304 1010 q 346 938 346 969 q 325 887 346 907 q 275 867 304 867 z "},"ạ":{"ha":831,"x_min":69,"x_max":710,"o":"m 583 0 l 583 156 l 576 185 l 576 450 q 527 581 576 535 q 379 628 478 628 q 251 606 314 628 q 146 549 189 585 l 90 649 q 227 719 147 694 q 394 743 307 743 q 628 669 546 743 q 710 444 710 596 l 710 0 l 583 0 m 342 -8 q 198 19 260 -8 q 103 97 136 47 q 69 208 69 146 q 98 317 69 268 q 191 394 126 365 q 365 424 256 424 l 599 424 l 599 328 l 371 328 q 236 294 271 328 q 201 214 201 261 q 244 127 201 160 q 364 94 288 94 q 495 128 439 94 q 576 225 551 161 l 603 133 q 510 30 576 68 q 342 -8 443 -8 m 401 -272 q 351 -253 372 -272 q 331 -203 331 -233 q 351 -151 331 -171 q 401 -131 372 -131 q 451 -151 431 -131 q 472 -203 472 -171 q 451 -253 472 -233 q 401 -272 431 -272 z "},"à":{"ha":831,"x_min":69,"x_max":710,"o":"m 583 0 l 583 156 l 576 185 l 576 450 q 527 581 576 535 q 379 628 478 628 q 251 606 314 628 q 146 549 189 585 l 90 649 q 227 719 147 694 q 394 743 307 743 q 628 669 546 743 q 710 444 710 596 l 710 0 l 583 0 m 342 -8 q 198 19 260 -8 q 103 97 136 47 q 69 208 69 146 q 98 317 69 268 q 191 394 126 365 q 365 424 256 424 l 599 424 l 599 328 l 371 328 q 236 294 271 328 q 201 214 201 261 q 244 127 201 160 q 364 94 288 94 q 495 128 439 94 q 576 225 551 161 l 603 133 q 510 30 576 68 q 342 -8 443 -8 m 383 843 l 150 1024 l 319 1024 l 508 843 l 383 843 z "},"ả":{"ha":831,"x_min":69,"x_max":710,"o":"m 583 0 l 583 156 l 576 185 l 576 450 q 527 581 576 535 q 379 628 478 628 q 251 606 314 628 q 146 549 189 585 l 90 649 q 227 719 147 694 q 394 743 307 743 q 628 669 546 743 q 710 444 710 596 l 710 0 l 583 0 m 342 -8 q 198 19 260 -8 q 103 97 136 47 q 69 208 69 146 q 98 317 69 268 q 191 394 126 365 q 365 424 256 424 l 599 424 l 599 328 l 371 328 q 236 294 271 328 q 201 214 201 261 q 244 127 201 160 q 364 94 288 94 q 495 128 439 94 q 576 225 551 161 l 603 133 q 510 30 576 68 q 342 -8 443 -8 m 431 831 l 385 885 q 444 927 425 904 q 463 978 463 950 q 443 1025 463 1007 q 390 1043 424 1043 q 307 1017 347 1043 l 276 1079 q 337 1108 303 1099 q 403 1118 371 1118 q 506 1083 467 1118 q 544 989 544 1047 q 517 898 544 938 q 431 831 489 858 z "},"ȃ":{"ha":831,"x_min":69,"x_max":710,"o":"m 583 0 l 583 156 l 576 185 l 576 450 q 527 581 576 535 q 379 628 478 628 q 251 606 314 628 q 146 549 189 585 l 90 649 q 227 719 147 694 q 394 743 307 743 q 628 669 546 743 q 710 444 710 596 l 710 0 l 583 0 m 342 -8 q 198 19 260 -8 q 103 97 136 47 q 69 208 69 146 q 98 317 69 268 q 191 394 126 365 q 365 424 256 424 l 599 424 l 599 328 l 371 328 q 236 294 271 328 q 201 214 201 261 q 244 127 201 160 q 364 94 288 94 q 495 128 439 94 q 576 225 551 161 l 603 133 q 510 30 576 68 q 342 -8 443 -8 m 179 843 q 246 981 182 931 q 404 1032 310 1032 q 563 981 499 1032 q 629 843 626 931 l 539 843 q 498 924 538 894 q 404 954 458 954 q 311 924 350 954 q 269 843 272 894 l 179 843 z "},"ā":{"ha":831,"x_min":69,"x_max":710,"o":"m 583 0 l 583 156 l 576 185 l 576 450 q 527 581 576 535 q 379 628 478 628 q 251 606 314 628 q 146 549 189 585 l 90 649 q 227 719 147 694 q 394 743 307 743 q 628 669 546 743 q 710 444 710 596 l 710 0 l 583 0 m 342 -8 q 198 19 260 -8 q 103 97 136 47 q 69 208 69 146 q 98 317 69 268 q 191 394 126 365 q 365 424 256 424 l 599 424 l 599 328 l 371 328 q 236 294 271 328 q 201 214 201 261 q 244 127 201 160 q 364 94 288 94 q 495 128 439 94 q 576 225 551 161 l 603 133 q 510 30 576 68 q 342 -8 443 -8 m 178 892 l 178 975 l 631 975 l 631 892 l 178 892 z "},"ą":{"ha":831,"x_min":69,"x_max":742,"o":"m 583 0 l 583 156 l 576 185 l 576 450 q 527 581 576 535 q 379 628 478 628 q 251 606 314 628 q 146 549 189 585 l 90 649 q 227 719 147 694 q 394 743 307 743 q 628 669 546 743 q 710 444 710 596 l 710 0 l 583 0 m 342 -8 q 198 19 260 -8 q 103 97 136 47 q 69 208 69 146 q 98 317 69 268 q 191 394 126 365 q 365 424 256 424 l 599 424 l 599 328 l 371 328 q 236 294 271 328 q 201 214 201 261 q 244 127 201 160 q 364 94 288 94 q 495 128 439 94 q 576 225 551 161 l 603 133 q 510 30 576 68 q 342 -8 443 -8 m 615 -311 q 493 -272 538 -311 q 449 -171 449 -233 q 467 -96 449 -133 q 531 -22 486 -58 q 647 44 575 14 l 710 0 q 613 -54 649 -28 q 560 -107 576 -81 q 544 -161 544 -133 q 569 -215 544 -196 q 629 -233 593 -233 q 676 -226 653 -233 q 715 -210 699 -219 l 740 -278 q 683 -302 715 -293 q 615 -311 650 -311 z "},"å":{"ha":831,"x_min":69,"x_max":710,"o":"m 583 0 l 583 156 l 576 185 l 576 450 q 527 581 576 535 q 379 628 478 628 q 251 606 314 628 q 146 549 189 585 l 90 649 q 227 719 147 694 q 394 743 307 743 q 628 669 546 743 q 710 444 710 596 l 710 0 l 583 0 m 342 -8 q 198 19 260 -8 q 103 97 136 47 q 69 208 69 146 q 98 317 69 268 q 191 394 126 365 q 365 424 256 424 l 599 424 l 599 328 l 371 328 q 236 294 271 328 q 201 214 201 261 q 244 127 201 160 q 364 94 288 94 q 495 128 439 94 q 576 225 551 161 l 603 133 q 510 30 576 68 q 342 -8 443 -8 m 403 825 q 325 846 360 825 q 270 900 290 867 q 250 975 250 933 q 270 1051 250 1017 q 325 1107 290 1086 q 403 1128 360 1128 q 482 1107 447 1128 q 537 1051 517 1086 q 557 975 557 1017 q 537 900 557 933 q 482 846 517 867 q 403 825 447 825 m 403 883 q 469 910 443 883 q 494 975 494 936 q 469 1042 494 1015 q 403 1068 443 1068 q 338 1042 364 1068 q 313 975 313 1017 q 338 910 313 936 q 403 883 363 883 z "},"ǻ":{"ha":831,"x_min":69,"x_max":710,"o":"m 583 0 l 583 156 l 576 185 l 576 450 q 527 581 576 535 q 379 628 478 628 q 251 606 314 628 q 146 549 189 585 l 90 649 q 227 719 147 694 q 394 743 307 743 q 628 669 546 743 q 710 444 710 596 l 710 0 l 583 0 m 342 -8 q 198 19 260 -8 q 103 97 136 47 q 69 208 69 146 q 98 317 69 268 q 191 394 126 365 q 365 424 256 424 l 599 424 l 599 328 l 371 328 q 236 294 271 328 q 201 214 201 261 q 244 127 201 160 q 364 94 288 94 q 495 128 439 94 q 576 225 551 161 l 603 133 q 510 30 576 68 q 342 -8 443 -8 m 403 825 q 325 846 360 825 q 270 900 290 867 q 250 975 250 933 q 270 1051 250 1017 q 325 1107 290 1086 q 403 1128 360 1128 q 482 1107 447 1128 q 537 1051 517 1086 q 557 975 557 1017 q 537 900 557 933 q 482 846 517 867 q 403 825 447 825 m 403 883 q 469 910 443 883 q 494 975 494 936 q 469 1042 494 1015 q 403 1068 443 1068 q 338 1042 364 1068 q 313 975 313 1017 q 338 910 313 936 q 403 883 363 883 m 517 1051 l 446 1076 l 594 1226 l 664 1169 l 517 1051 z "},"ã":{"ha":831,"x_min":69,"x_max":710,"o":"m 583 0 l 583 156 l 576 185 l 576 450 q 527 581 576 535 q 379 628 478 628 q 251 606 314 628 q 146 549 189 585 l 90 649 q 227 719 147 694 q 394 743 307 743 q 628 669 546 743 q 710 444 710 596 l 710 0 l 583 0 m 342 -8 q 198 19 260 -8 q 103 97 136 47 q 69 208 69 146 q 98 317 69 268 q 191 394 126 365 q 365 424 256 424 l 599 424 l 599 328 l 371 328 q 236 294 271 328 q 201 214 201 261 q 244 127 201 160 q 364 94 288 94 q 495 128 439 94 q 576 225 551 161 l 603 133 q 510 30 576 68 q 342 -8 443 -8 m 501 847 q 442 861 468 847 q 396 894 417 875 q 356 926 375 913 q 317 940 336 940 q 267 917 286 940 q 246 854 249 894 l 171 854 q 210 978 174 932 q 307 1024 246 1024 q 367 1009 340 1024 q 414 976 393 994 q 453 943 435 957 q 492 929 472 929 q 542 951 522 929 q 563 1013 561 974 l 638 1013 q 599 893 636 939 q 501 847 563 847 z "},"æ":{"ha":1374,"x_min":69,"x_max":1315,"o":"m 356 -8 q 145 53 221 -8 q 69 214 69 115 q 98 317 69 269 q 191 393 126 364 q 365 422 256 422 l 597 422 l 597 326 l 371 326 q 237 294 272 326 q 201 217 201 261 q 245 127 201 160 q 367 94 289 94 q 521 145 465 94 q 576 279 576 196 l 576 450 q 527 581 576 535 q 381 628 478 628 q 251 606 314 628 q 146 549 189 585 l 90 649 q 227 719 147 694 q 393 743 307 743 q 596 692 521 743 q 692 543 671 642 l 628 551 q 755 692 671 640 q 949 743 839 743 q 1095 716 1028 743 q 1212 639 1163 689 q 1288 521 1261 589 q 1315 372 1315 453 q 1315 347 1315 358 q 1311 326 1314 336 l 683 326 l 683 422 l 1242 422 l 1186 386 q 1153 519 1186 465 q 1065 602 1119 574 q 947 631 1010 631 q 833 602 888 631 q 744 519 778 574 q 710 383 710 464 l 710 361 q 743 230 710 288 q 837 140 776 172 q 978 108 897 108 q 1096 131 1043 108 q 1190 197 1149 153 l 1265 111 q 1140 22 1214 51 q 974 -8 1065 -8 q 814 18 889 -8 q 683 100 739 44 q 597 243 628 156 l 683 240 q 616 92 667 147 q 497 15 565 38 q 356 -8 428 -8 z "},"ǽ":{"ha":1374,"x_min":69,"x_max":1315,"o":"m 356 -8 q 145 53 221 -8 q 69 214 69 115 q 98 317 69 269 q 191 393 126 364 q 365 422 256 422 l 597 422 l 597 326 l 371 326 q 237 294 272 326 q 201 217 201 261 q 245 127 201 160 q 367 94 289 94 q 521 145 465 94 q 576 279 576 196 l 576 450 q 527 581 576 535 q 381 628 478 628 q 251 606 314 628 q 146 549 189 585 l 90 649 q 227 719 147 694 q 393 743 307 743 q 596 692 521 743 q 692 543 671 642 l 628 551 q 755 692 671 640 q 949 743 839 743 q 1095 716 1028 743 q 1212 639 1163 689 q 1288 521 1261 589 q 1315 372 1315 453 q 1315 347 1315 358 q 1311 326 1314 336 l 683 326 l 683 422 l 1242 422 l 1186 386 q 1153 519 1186 465 q 1065 602 1119 574 q 947 631 1010 631 q 833 602 888 631 q 744 519 778 574 q 710 383 710 464 l 710 361 q 743 230 710 288 q 837 140 776 172 q 978 108 897 108 q 1096 131 1043 108 q 1190 197 1149 153 l 1265 111 q 1140 22 1214 51 q 974 -8 1065 -8 q 814 18 889 -8 q 683 100 739 44 q 597 243 628 156 l 683 240 q 616 92 667 147 q 497 15 565 38 q 356 -8 428 -8 m 539 843 l 728 1024 l 897 1024 l 664 843 l 539 843 z "},"b":{"ha":947,"x_min":126,"x_max":889,"o":"m 517 -8 q 347 34 422 -8 q 227 160 271 76 q 183 368 183 243 q 228 576 183 493 q 349 701 274 660 q 517 743 425 743 q 708 696 625 743 q 840 565 792 649 q 889 368 889 481 q 840 171 889 256 q 708 39 792 86 q 517 -8 625 -8 m 126 0 l 126 1031 l 260 1031 l 260 540 l 246 369 l 254 199 l 254 0 l 126 0 m 506 108 q 633 140 576 108 q 722 231 689 172 q 754 368 754 290 q 722 505 754 447 q 633 594 689 563 q 506 626 576 626 q 380 594 436 626 q 291 505 324 563 q 258 368 258 447 q 291 231 258 290 q 380 140 324 172 q 506 108 436 108 z "},"c":{"ha":793,"x_min":58,"x_max":747,"o":"m 447 -8 q 247 40 335 -8 q 108 174 158 89 q 58 368 58 258 q 108 563 58 478 q 247 695 158 647 q 447 743 335 743 q 626 703 547 743 q 747 586 704 664 l 646 521 q 558 601 610 575 q 446 626 506 626 q 317 594 374 626 q 226 505 260 563 q 193 368 193 447 q 226 231 193 289 q 317 140 260 172 q 446 108 374 108 q 558 134 506 108 q 646 214 610 160 l 747 150 q 626 33 704 74 q 447 -8 547 -8 z "},"ć":{"ha":793,"x_min":58,"x_max":747,"o":"m 447 -8 q 247 40 335 -8 q 108 174 158 89 q 58 368 58 258 q 108 563 58 478 q 247 695 158 647 q 447 743 335 743 q 626 703 547 743 q 747 586 704 664 l 646 521 q 558 601 610 575 q 446 626 506 626 q 317 594 374 626 q 226 505 260 563 q 193 368 193 447 q 226 231 193 289 q 317 140 260 172 q 446 108 374 108 q 558 134 506 108 q 646 214 610 160 l 747 150 q 626 33 704 74 q 447 -8 547 -8 m 317 843 l 506 1024 l 675 1024 l 442 843 l 317 843 z "},"č":{"ha":793,"x_min":58,"x_max":747,"o":"m 447 -8 q 247 40 335 -8 q 108 174 158 89 q 58 368 58 258 q 108 563 58 478 q 247 695 158 647 q 447 743 335 743 q 626 703 547 743 q 747 586 704 664 l 646 521 q 558 601 610 575 q 446 626 506 626 q 317 594 374 626 q 226 505 260 563 q 193 368 193 447 q 226 231 193 289 q 317 140 260 172 q 446 108 374 108 q 558 134 506 108 q 646 214 610 160 l 747 150 q 626 33 704 74 q 447 -8 547 -8 m 357 843 l 172 1024 l 293 1024 l 476 872 l 365 872 l 549 1024 l 669 1024 l 485 843 l 357 843 z "},"ç":{"ha":793,"x_min":58,"x_max":747,"o":"m 447 -8 q 247 40 335 -8 q 108 174 158 89 q 58 368 58 258 q 108 563 58 478 q 247 695 158 647 q 447 743 335 743 q 626 703 547 743 q 747 586 704 664 l 646 521 q 558 601 610 575 q 446 626 506 626 q 317 594 374 626 q 226 505 260 563 q 193 368 193 447 q 226 231 193 289 q 317 140 260 172 q 446 108 374 108 q 558 134 506 108 q 646 214 610 160 l 747 150 q 626 33 704 74 q 447 -8 547 -8 m 382 -311 q 315 -303 346 -311 q 258 -281 285 -296 l 288 -212 q 333 -231 310 -225 q 382 -236 356 -236 q 441 -222 422 -236 q 460 -181 460 -207 q 441 -141 460 -156 q 381 -126 422 -126 l 343 -126 l 378 10 l 454 10 l 433 -69 q 524 -107 493 -75 q 554 -185 554 -139 q 507 -277 554 -243 q 382 -311 460 -311 z "},"ḉ":{"ha":793,"x_min":58,"x_max":747,"o":"m 447 -8 q 247 40 335 -8 q 108 174 158 89 q 58 368 58 258 q 108 563 58 478 q 247 695 158 647 q 447 743 335 743 q 626 703 547 743 q 747 586 704 664 l 646 521 q 558 601 610 575 q 446 626 506 626 q 317 594 374 626 q 226 505 260 563 q 193 368 193 447 q 226 231 193 289 q 317 140 260 172 q 446 108 374 108 q 558 134 506 108 q 646 214 610 160 l 747 150 q 626 33 704 74 q 447 -8 547 -8 m 382 -311 q 315 -303 346 -311 q 258 -281 285 -296 l 288 -212 q 333 -231 310 -225 q 382 -236 356 -236 q 441 -222 422 -236 q 460 -181 460 -207 q 441 -141 460 -156 q 381 -126 422 -126 l 343 -126 l 378 10 l 454 10 l 433 -69 q 524 -107 493 -75 q 554 -185 554 -139 q 507 -277 554 -243 q 382 -311 460 -311 m 317 843 l 506 1024 l 675 1024 l 442 843 l 317 843 z "},"ĉ":{"ha":793,"x_min":58,"x_max":747,"o":"m 447 -8 q 247 40 335 -8 q 108 174 158 89 q 58 368 58 258 q 108 563 58 478 q 247 695 158 647 q 447 743 335 743 q 626 703 547 743 q 747 586 704 664 l 646 521 q 558 601 610 575 q 446 626 506 626 q 317 594 374 626 q 226 505 260 563 q 193 368 193 447 q 226 231 193 289 q 317 140 260 172 q 446 108 374 108 q 558 134 506 108 q 646 214 610 160 l 747 150 q 626 33 704 74 q 447 -8 547 -8 m 172 843 l 357 1024 l 485 1024 l 669 843 l 549 843 l 365 996 l 476 996 l 293 843 l 172 843 z "},"ċ":{"ha":793,"x_min":58,"x_max":747,"o":"m 447 -8 q 247 40 335 -8 q 108 174 158 89 q 58 368 58 258 q 108 563 58 478 q 247 695 158 647 q 447 743 335 743 q 626 703 547 743 q 747 586 704 664 l 646 521 q 558 601 610 575 q 446 626 506 626 q 317 594 374 626 q 226 505 260 563 q 193 368 193 447 q 226 231 193 289 q 317 140 260 172 q 446 108 374 108 q 558 134 506 108 q 646 214 610 160 l 747 150 q 626 33 704 74 q 447 -8 547 -8 m 421 868 q 363 892 386 868 q 339 950 339 915 q 363 1008 339 985 q 421 1032 386 1032 q 479 1008 456 1032 q 503 950 503 985 q 479 892 503 915 q 421 868 456 868 z "},"d":{"ha":947,"x_min":58,"x_max":821,"o":"m 431 -8 q 240 39 324 -8 q 107 171 156 86 q 58 368 58 256 q 107 565 58 481 q 240 696 156 649 q 431 743 324 743 q 599 701 524 743 q 719 576 674 660 q 764 368 764 493 q 720 160 764 243 q 601 34 676 76 q 431 -8 526 -8 m 442 108 q 567 140 511 108 q 656 231 624 172 q 689 368 689 290 q 656 505 689 447 q 567 594 624 563 q 442 626 511 626 q 315 594 371 626 q 226 505 260 563 q 193 368 193 447 q 226 231 193 290 q 315 140 260 172 q 442 108 371 108 m 693 0 l 693 199 l 701 369 l 688 540 l 688 1031 l 821 1031 l 821 0 l 693 0 z "},"ð":{"ha":889,"x_min":58,"x_max":831,"o":"m 408 -11 q 231 27 310 -11 q 105 135 151 65 q 58 300 58 204 q 105 464 58 394 q 231 572 151 533 q 413 610 311 610 q 558 581 493 610 q 669 499 624 553 q 731 368 714 446 l 679 349 q 692 429 689 388 q 696 508 696 471 q 653 724 696 638 q 533 853 611 810 q 349 896 456 896 q 238 887 289 896 q 147 864 188 878 l 125 978 q 226 1000 169 992 q 349 1008 283 1008 q 602 949 494 1008 q 770 771 710 889 q 831 479 831 653 q 781 218 831 328 q 638 49 731 108 q 408 -11 544 -11 m 418 101 q 548 130 494 101 q 629 203 601 158 q 657 300 657 249 q 627 401 657 356 q 546 472 597 446 q 426 497 494 497 q 256 443 318 497 q 193 300 193 389 q 222 196 193 240 q 301 126 250 151 q 418 101 351 101 m 214 667 l 178 754 l 749 985 l 785 896 l 214 667 z "},"ď":{"ha":947,"x_min":58,"x_max":1056,"o":"m 431 -8 q 240 39 324 -8 q 107 171 156 86 q 58 368 58 256 q 107 565 58 481 q 240 696 156 649 q 431 743 324 743 q 599 701 524 743 q 719 576 674 660 q 764 368 764 493 q 720 160 764 243 q 601 34 676 76 q 431 -8 526 -8 m 442 108 q 567 140 511 108 q 656 231 624 172 q 689 368 689 290 q 656 505 689 447 q 567 594 624 563 q 442 626 511 626 q 315 594 371 626 q 226 505 260 563 q 193 368 193 447 q 226 231 193 290 q 315 140 260 172 q 442 108 371 108 m 693 0 l 693 199 l 701 369 l 688 540 l 688 1031 l 821 1031 l 821 0 l 693 0 m 944 808 l 944 1076 l 1054 1076 l 1038 808 l 944 808 z "},"đ":{"ha":947,"x_min":58,"x_max":947,"o":"m 431 -8 q 240 39 324 -8 q 107 171 156 86 q 58 368 58 256 q 107 565 58 481 q 240 696 156 649 q 431 743 324 743 q 599 701 524 743 q 719 576 674 660 q 764 368 764 493 q 720 160 764 243 q 601 34 676 76 q 431 -8 526 -8 m 442 108 q 567 140 511 108 q 656 231 624 172 q 689 368 689 290 q 656 505 689 447 q 567 594 624 563 q 442 626 511 626 q 315 594 371 626 q 226 505 260 563 q 193 368 193 447 q 226 231 193 290 q 315 140 260 172 q 442 108 371 108 m 693 0 l 693 199 l 701 369 l 688 540 l 688 1031 l 821 1031 l 821 0 l 693 0 m 397 835 l 397 929 l 947 929 l 947 835 l 397 835 z "},"ḍ":{"ha":947,"x_min":58,"x_max":821,"o":"m 431 -8 q 240 39 324 -8 q 107 171 156 86 q 58 368 58 256 q 107 565 58 481 q 240 696 156 649 q 431 743 324 743 q 599 701 524 743 q 719 576 674 660 q 764 368 764 493 q 720 160 764 243 q 601 34 676 76 q 431 -8 526 -8 m 442 108 q 567 140 511 108 q 656 231 624 172 q 689 368 689 290 q 656 505 689 447 q 567 594 624 563 q 442 626 511 626 q 315 594 371 626 q 226 505 260 563 q 193 368 193 447 q 226 231 193 290 q 315 140 260 172 q 442 108 371 108 m 693 0 l 693 199 l 701 369 l 688 540 l 688 1031 l 821 1031 l 821 0 l 693 0 m 482 -272 q 432 -253 453 -272 q 411 -203 411 -233 q 432 -151 411 -171 q 482 -131 453 -131 q 532 -151 511 -131 q 553 -203 553 -171 q 532 -253 553 -233 q 482 -272 511 -272 z "},"ḏ":{"ha":947,"x_min":58,"x_max":821,"o":"m 431 -8 q 240 39 324 -8 q 107 171 156 86 q 58 368 58 256 q 107 565 58 481 q 240 696 156 649 q 431 743 324 743 q 599 701 524 743 q 719 576 674 660 q 764 368 764 493 q 720 160 764 243 q 601 34 676 76 q 431 -8 526 -8 m 442 108 q 567 140 511 108 q 656 231 624 172 q 689 368 689 290 q 656 505 689 447 q 567 594 624 563 q 442 626 511 626 q 315 594 371 626 q 226 505 260 563 q 193 368 193 447 q 226 231 193 290 q 315 140 260 172 q 442 108 371 108 m 693 0 l 693 199 l 701 369 l 688 540 l 688 1031 l 821 1031 l 821 0 l 693 0 m 256 -242 l 256 -157 l 708 -157 l 708 -242 l 256 -242 z "},"ǆ":{"ha":1682,"x_min":58,"x_max":1614,"o":"m 431 -8 q 240 39 324 -8 q 107 171 156 86 q 58 368 58 256 q 107 565 58 481 q 240 696 156 649 q 431 743 324 743 q 599 701 524 743 q 719 576 674 660 q 764 368 764 493 q 720 160 764 243 q 601 34 676 76 q 431 -8 526 -8 m 442 108 q 567 140 511 108 q 656 231 624 172 q 689 368 689 290 q 656 505 689 447 q 567 594 624 563 q 442 626 511 626 q 315 594 371 626 q 226 505 260 563 q 193 368 193 447 q 226 231 193 290 q 315 140 260 172 q 442 108 371 108 m 693 0 l 693 199 l 701 369 l 688 540 l 688 1031 l 821 1031 l 821 0 l 693 0 z "},"e":{"ha":850,"x_min":58,"x_max":792,"o":"m 454 -8 q 247 40 336 -8 q 108 174 157 89 q 58 368 58 258 q 106 563 58 478 q 238 695 154 647 q 428 743 322 743 q 617 696 535 743 q 745 563 699 649 q 792 364 792 478 q 791 344 792 356 q 789 324 790 333 l 163 324 l 163 419 l 719 419 l 665 386 q 636 513 667 457 q 552 599 606 568 q 428 631 499 631 q 304 599 358 631 q 219 512 250 568 q 189 383 189 456 l 189 361 q 223 230 189 288 q 318 140 257 172 q 458 108 379 108 q 577 131 524 108 q 671 197 631 153 l 744 111 q 620 22 694 53 q 454 -8 546 -8 z "},"é":{"ha":850,"x_min":58,"x_max":792,"o":"m 454 -8 q 247 40 336 -8 q 108 174 157 89 q 58 368 58 258 q 106 563 58 478 q 238 695 154 647 q 428 743 322 743 q 617 696 535 743 q 745 563 699 649 q 792 364 792 478 q 791 344 792 356 q 789 324 790 333 l 163 324 l 163 419 l 719 419 l 665 386 q 636 513 667 457 q 552 599 606 568 q 428 631 499 631 q 304 599 358 631 q 219 512 250 568 q 189 383 189 456 l 189 361 q 223 230 189 288 q 318 140 257 172 q 458 108 379 108 q 577 131 524 108 q 671 197 631 153 l 744 111 q 620 22 694 53 q 454 -8 546 -8 m 322 843 l 511 1024 l 681 1024 l 447 843 l 322 843 z "},"ĕ":{"ha":850,"x_min":58,"x_max":792,"o":"m 454 -8 q 247 40 336 -8 q 108 174 157 89 q 58 368 58 258 q 106 563 58 478 q 238 695 154 647 q 428 743 322 743 q 617 696 535 743 q 745 563 699 649 q 792 364 792 478 q 791 344 792 356 q 789 324 790 333 l 163 324 l 163 419 l 719 419 l 665 386 q 636 513 667 457 q 552 599 606 568 q 428 631 499 631 q 304 599 358 631 q 219 512 250 568 q 189 383 189 456 l 189 361 q 223 230 189 288 q 318 140 257 172 q 458 108 379 108 q 577 131 524 108 q 671 197 631 153 l 744 111 q 620 22 694 53 q 454 -8 546 -8 m 426 835 q 268 885 332 835 q 201 1024 204 936 l 292 1024 q 333 942 294 972 q 426 913 372 913 q 520 942 481 913 q 561 1024 560 972 l 651 1024 q 585 885 649 936 q 426 835 521 835 z "},"ě":{"ha":850,"x_min":58,"x_max":792,"o":"m 454 -8 q 247 40 336 -8 q 108 174 157 89 q 58 368 58 258 q 106 563 58 478 q 238 695 154 647 q 428 743 322 743 q 617 696 535 743 q 745 563 699 649 q 792 364 792 478 q 791 344 792 356 q 789 324 790 333 l 163 324 l 163 419 l 719 419 l 665 386 q 636 513 667 457 q 552 599 606 568 q 428 631 499 631 q 304 599 358 631 q 219 512 250 568 q 189 383 189 456 l 189 361 q 223 230 189 288 q 318 140 257 172 q 458 108 379 108 q 577 131 524 108 q 671 197 631 153 l 744 111 q 620 22 694 53 q 454 -8 546 -8 m 363 843 l 178 1024 l 299 1024 l 482 872 l 371 872 l 554 1024 l 675 1024 l 490 843 l 363 843 z "},"ḝ":{"ha":850,"x_min":58,"x_max":792,"o":"m 454 -8 q 247 40 336 -8 q 108 174 157 89 q 58 368 58 258 q 106 563 58 478 q 238 695 154 647 q 428 743 322 743 q 617 696 535 743 q 745 563 699 649 q 792 364 792 478 q 791 344 792 356 q 789 324 790 333 l 163 324 l 163 419 l 719 419 l 665 386 q 636 513 667 457 q 552 599 606 568 q 428 631 499 631 q 304 599 358 631 q 219 512 250 568 q 189 383 189 456 l 189 361 q 223 230 189 288 q 318 140 257 172 q 458 108 379 108 q 577 131 524 108 q 671 197 631 153 l 744 111 q 620 22 694 53 q 454 -8 546 -8 m 392 -311 q 325 -303 356 -311 q 268 -281 294 -296 l 297 -212 q 342 -231 319 -225 q 392 -236 365 -236 q 451 -222 432 -236 q 469 -181 469 -207 q 451 -141 469 -156 q 390 -126 432 -126 l 353 -126 l 388 10 l 464 10 l 443 -69 q 533 -107 503 -75 q 564 -185 564 -139 q 517 -277 564 -243 q 392 -311 469 -311 m 426 835 q 268 885 332 835 q 201 1024 204 936 l 292 1024 q 333 942 294 972 q 426 913 372 913 q 520 942 481 913 q 561 1024 560 972 l 651 1024 q 585 885 649 936 q 426 835 521 835 z "},"ê":{"ha":850,"x_min":58,"x_max":792,"o":"m 454 -8 q 247 40 336 -8 q 108 174 157 89 q 58 368 58 258 q 106 563 58 478 q 238 695 154 647 q 428 743 322 743 q 617 696 535 743 q 745 563 699 649 q 792 364 792 478 q 791 344 792 356 q 789 324 790 333 l 163 324 l 163 419 l 719 419 l 665 386 q 636 513 667 457 q 552 599 606 568 q 428 631 499 631 q 304 599 358 631 q 219 512 250 568 q 189 383 189 456 l 189 361 q 223 230 189 288 q 318 140 257 172 q 458 108 379 108 q 577 131 524 108 q 671 197 631 153 l 744 111 q 620 22 694 53 q 454 -8 546 -8 m 178 843 l 363 1024 l 490 1024 l 675 843 l 554 843 l 371 996 l 482 996 l 299 843 l 178 843 z "},"ế":{"ha":850,"x_min":58,"x_max":879,"o":"m 454 -8 q 247 40 336 -8 q 108 174 157 89 q 58 368 58 258 q 106 563 58 478 q 238 695 154 647 q 428 743 322 743 q 617 696 535 743 q 745 563 699 649 q 792 364 792 478 q 791 344 792 356 q 789 324 790 333 l 163 324 l 163 419 l 719 419 l 665 386 q 636 513 667 457 q 552 599 606 568 q 428 631 499 631 q 304 599 358 631 q 219 512 250 568 q 189 383 189 456 l 189 361 q 223 230 189 288 q 318 140 257 172 q 458 108 379 108 q 577 131 524 108 q 671 197 631 153 l 744 111 q 620 22 694 53 q 454 -8 546 -8 z "},"ệ":{"ha":850,"x_min":58,"x_max":792,"o":"m 454 -8 q 247 40 336 -8 q 108 174 157 89 q 58 368 58 258 q 106 563 58 478 q 238 695 154 647 q 428 743 322 743 q 617 696 535 743 q 745 563 699 649 q 792 364 792 478 q 791 344 792 356 q 789 324 790 333 l 163 324 l 163 419 l 719 419 l 665 386 q 636 513 667 457 q 552 599 606 568 q 428 631 499 631 q 304 599 358 631 q 219 512 250 568 q 189 383 189 456 l 189 361 q 223 230 189 288 q 318 140 257 172 q 458 108 379 108 q 577 131 524 108 q 671 197 631 153 l 744 111 q 620 22 694 53 q 454 -8 546 -8 m 426 -272 q 376 -253 397 -272 q 356 -203 356 -233 q 376 -151 356 -171 q 426 -131 397 -131 q 476 -151 456 -131 q 497 -203 497 -171 q 476 -253 497 -233 q 426 -272 456 -272 m 178 843 l 363 1024 l 490 1024 l 675 843 l 554 843 l 371 996 l 482 996 l 299 843 l 178 843 z "},"ề":{"ha":850,"x_min":58,"x_max":792,"o":"m 454 -8 q 247 40 336 -8 q 108 174 157 89 q 58 368 58 258 q 106 563 58 478 q 238 695 154 647 q 428 743 322 743 q 617 696 535 743 q 745 563 699 649 q 792 364 792 478 q 791 344 792 356 q 789 324 790 333 l 163 324 l 163 419 l 719 419 l 665 386 q 636 513 667 457 q 552 599 606 568 q 428 631 499 631 q 304 599 358 631 q 219 512 250 568 q 189 383 189 456 l 189 361 q 223 230 189 288 q 318 140 257 172 q 458 108 379 108 q 577 131 524 108 q 671 197 631 153 l 744 111 q 620 22 694 53 q 454 -8 546 -8 z "},"ể":{"ha":850,"x_min":58,"x_max":792,"o":"m 454 -8 q 247 40 336 -8 q 108 174 157 89 q 58 368 58 258 q 106 563 58 478 q 238 695 154 647 q 428 743 322 743 q 617 696 535 743 q 745 563 699 649 q 792 364 792 478 q 791 344 792 356 q 789 324 790 333 l 163 324 l 163 419 l 719 419 l 665 386 q 636 513 667 457 q 552 599 606 568 q 428 631 499 631 q 304 599 358 631 q 219 512 250 568 q 189 383 189 456 l 189 361 q 223 230 189 288 q 318 140 257 172 q 458 108 379 108 q 577 131 524 108 q 671 197 631 153 l 744 111 q 620 22 694 53 q 454 -8 546 -8 z "},"ễ":{"ha":850,"x_min":58,"x_max":792,"o":"m 454 -8 q 247 40 336 -8 q 108 174 157 89 q 58 368 58 258 q 106 563 58 478 q 238 695 154 647 q 428 743 322 743 q 617 696 535 743 q 745 563 699 649 q 792 364 792 478 q 791 344 792 356 q 789 324 790 333 l 163 324 l 163 419 l 719 419 l 665 386 q 636 513 667 457 q 552 599 606 568 q 428 631 499 631 q 304 599 358 631 q 219 512 250 568 q 189 383 189 456 l 189 361 q 223 230 189 288 q 318 140 257 172 q 458 108 379 108 q 577 131 524 108 q 671 197 631 153 l 744 111 q 620 22 694 53 q 454 -8 546 -8 z "},"ȅ":{"ha":850,"x_min":58,"x_max":792,"o":"m 454 -8 q 247 40 336 -8 q 108 174 157 89 q 58 368 58 258 q 106 563 58 478 q 238 695 154 647 q 428 743 322 743 q 617 696 535 743 q 745 563 699 649 q 792 364 792 478 q 791 344 792 356 q 789 324 790 333 l 163 324 l 163 419 l 719 419 l 665 386 q 636 513 667 457 q 552 599 606 568 q 428 631 499 631 q 304 599 358 631 q 219 512 250 568 q 189 383 189 456 l 189 361 q 223 230 189 288 q 318 140 257 172 q 458 108 379 108 q 577 131 524 108 q 671 197 631 153 l 744 111 q 620 22 694 53 q 454 -8 546 -8 m 492 843 l 338 1024 l 479 1024 l 604 843 l 492 843 m 249 843 l 97 1024 l 238 1024 l 361 843 l 249 843 z "},"ë":{"ha":850,"x_min":58,"x_max":792,"o":"m 454 -8 q 247 40 336 -8 q 108 174 157 89 q 58 368 58 258 q 106 563 58 478 q 238 695 154 647 q 428 743 322 743 q 617 696 535 743 q 745 563 699 649 q 792 364 792 478 q 791 344 792 356 q 789 324 790 333 l 163 324 l 163 419 l 719 419 l 665 386 q 636 513 667 457 q 552 599 606 568 q 428 631 499 631 q 304 599 358 631 q 219 512 250 568 q 189 383 189 456 l 189 361 q 223 230 189 288 q 318 140 257 172 q 458 108 379 108 q 577 131 524 108 q 671 197 631 153 l 744 111 q 620 22 694 53 q 454 -8 546 -8 m 556 867 q 506 887 526 867 q 485 938 485 907 q 506 990 485 969 q 556 1010 526 1010 q 606 990 585 1010 q 626 938 626 969 q 606 887 626 907 q 556 867 585 867 m 297 867 q 247 887 268 867 q 226 938 226 907 q 247 990 226 969 q 297 1010 268 1010 q 347 990 326 1010 q 368 938 368 969 q 347 887 368 907 q 297 867 326 867 z "},"ė":{"ha":850,"x_min":58,"x_max":792,"o":"m 454 -8 q 247 40 336 -8 q 108 174 157 89 q 58 368 58 258 q 106 563 58 478 q 238 695 154 647 q 428 743 322 743 q 617 696 535 743 q 745 563 699 649 q 792 364 792 478 q 791 344 792 356 q 789 324 790 333 l 163 324 l 163 419 l 719 419 l 665 386 q 636 513 667 457 q 552 599 606 568 q 428 631 499 631 q 304 599 358 631 q 219 512 250 568 q 189 383 189 456 l 189 361 q 223 230 189 288 q 318 140 257 172 q 458 108 379 108 q 577 131 524 108 q 671 197 631 153 l 744 111 q 620 22 694 53 q 454 -8 546 -8 m 426 868 q 368 892 392 868 q 344 950 344 915 q 368 1008 344 985 q 426 1032 392 1032 q 485 1008 461 1032 q 508 950 508 985 q 485 892 508 915 q 426 868 461 868 z "},"ẹ":{"ha":850,"x_min":58,"x_max":792,"o":"m 454 -8 q 247 40 336 -8 q 108 174 157 89 q 58 368 58 258 q 106 563 58 478 q 238 695 154 647 q 428 743 322 743 q 617 696 535 743 q 745 563 699 649 q 792 364 792 478 q 791 344 792 356 q 789 324 790 333 l 163 324 l 163 419 l 719 419 l 665 386 q 636 513 667 457 q 552 599 606 568 q 428 631 499 631 q 304 599 358 631 q 219 512 250 568 q 189 383 189 456 l 189 361 q 223 230 189 288 q 318 140 257 172 q 458 108 379 108 q 577 131 524 108 q 671 197 631 153 l 744 111 q 620 22 694 53 q 454 -8 546 -8 m 426 -272 q 376 -253 397 -272 q 356 -203 356 -233 q 376 -151 356 -171 q 426 -131 397 -131 q 476 -151 456 -131 q 497 -203 497 -171 q 476 -253 497 -233 q 426 -272 456 -272 z "},"è":{"ha":850,"x_min":58,"x_max":792,"o":"m 454 -8 q 247 40 336 -8 q 108 174 157 89 q 58 368 58 258 q 106 563 58 478 q 238 695 154 647 q 428 743 322 743 q 617 696 535 743 q 745 563 699 649 q 792 364 792 478 q 791 344 792 356 q 789 324 790 333 l 163 324 l 163 419 l 719 419 l 665 386 q 636 513 667 457 q 552 599 606 568 q 428 631 499 631 q 304 599 358 631 q 219 512 250 568 q 189 383 189 456 l 189 361 q 223 230 189 288 q 318 140 257 172 q 458 108 379 108 q 577 131 524 108 q 671 197 631 153 l 744 111 q 620 22 694 53 q 454 -8 546 -8 m 406 843 l 172 1024 l 342 1024 l 531 843 l 406 843 z "},"ẻ":{"ha":850,"x_min":58,"x_max":792,"o":"m 454 -8 q 247 40 336 -8 q 108 174 157 89 q 58 368 58 258 q 106 563 58 478 q 238 695 154 647 q 428 743 322 743 q 617 696 535 743 q 745 563 699 649 q 792 364 792 478 q 791 344 792 356 q 789 324 790 333 l 163 324 l 163 419 l 719 419 l 665 386 q 636 513 667 457 q 552 599 606 568 q 428 631 499 631 q 304 599 358 631 q 219 512 250 568 q 189 383 189 456 l 189 361 q 223 230 189 288 q 318 140 257 172 q 458 108 379 108 q 577 131 524 108 q 671 197 631 153 l 744 111 q 620 22 694 53 q 454 -8 546 -8 m 453 831 l 407 885 q 466 927 447 904 q 485 978 485 950 q 465 1025 485 1007 q 413 1043 446 1043 q 329 1017 369 1043 l 299 1079 q 359 1108 325 1099 q 425 1118 393 1118 q 528 1083 489 1118 q 567 989 567 1047 q 539 898 567 938 q 453 831 511 858 z "},"ȇ":{"ha":850,"x_min":58,"x_max":792,"o":"m 454 -8 q 247 40 336 -8 q 108 174 157 89 q 58 368 58 258 q 106 563 58 478 q 238 695 154 647 q 428 743 322 743 q 617 696 535 743 q 745 563 699 649 q 792 364 792 478 q 791 344 792 356 q 789 324 790 333 l 163 324 l 163 419 l 719 419 l 665 386 q 636 513 667 457 q 552 599 606 568 q 428 631 499 631 q 304 599 358 631 q 219 512 250 568 q 189 383 189 456 l 189 361 q 223 230 189 288 q 318 140 257 172 q 458 108 379 108 q 577 131 524 108 q 671 197 631 153 l 744 111 q 620 22 694 53 q 454 -8 546 -8 m 201 843 q 268 981 204 931 q 426 1032 332 1032 q 585 981 521 1032 q 651 843 649 931 l 561 843 q 520 924 560 894 q 426 954 481 954 q 333 924 372 954 q 292 843 294 894 l 201 843 z "},"ē":{"ha":850,"x_min":58,"x_max":792,"o":"m 454 -8 q 247 40 336 -8 q 108 174 157 89 q 58 368 58 258 q 106 563 58 478 q 238 695 154 647 q 428 743 322 743 q 617 696 535 743 q 745 563 699 649 q 792 364 792 478 q 791 344 792 356 q 789 324 790 333 l 163 324 l 163 419 l 719 419 l 665 386 q 636 513 667 457 q 552 599 606 568 q 428 631 499 631 q 304 599 358 631 q 219 512 250 568 q 189 383 189 456 l 189 361 q 223 230 189 288 q 318 140 257 172 q 458 108 379 108 q 577 131 524 108 q 671 197 631 153 l 744 111 q 620 22 694 53 q 454 -8 546 -8 m 200 892 l 200 975 l 653 975 l 653 892 l 200 892 z "},"ḗ":{"ha":850,"x_min":58,"x_max":792,"o":"m 454 -8 q 247 40 336 -8 q 108 174 157 89 q 58 368 58 258 q 106 563 58 478 q 238 695 154 647 q 428 743 322 743 q 617 696 535 743 q 745 563 699 649 q 792 364 792 478 q 791 344 792 356 q 789 324 790 333 l 163 324 l 163 419 l 719 419 l 665 386 q 636 513 667 457 q 552 599 606 568 q 428 631 499 631 q 304 599 358 631 q 219 512 250 568 q 189 383 189 456 l 189 361 q 223 230 189 288 q 318 140 257 172 q 458 108 379 108 q 577 131 524 108 q 671 197 631 153 l 744 111 q 620 22 694 53 q 454 -8 546 -8 z "},"ḕ":{"ha":850,"x_min":58,"x_max":792,"o":"m 454 -8 q 247 40 336 -8 q 108 174 157 89 q 58 368 58 258 q 106 563 58 478 q 238 695 154 647 q 428 743 322 743 q 617 696 535 743 q 745 563 699 649 q 792 364 792 478 q 791 344 792 356 q 789 324 790 333 l 163 324 l 163 419 l 719 419 l 665 386 q 636 513 667 457 q 552 599 606 568 q 428 631 499 631 q 304 599 358 631 q 219 512 250 568 q 189 383 189 456 l 189 361 q 223 230 189 288 q 318 140 257 172 q 458 108 379 108 q 577 131 524 108 q 671 197 631 153 l 744 111 q 620 22 694 53 q 454 -8 546 -8 z "},"ę":{"ha":850,"x_min":58,"x_max":792,"o":"m 606 -311 q 484 -271 529 -311 q 439 -165 439 -231 q 465 -65 439 -118 q 551 35 492 -11 l 599 15 q 530 -2 567 4 q 454 -8 493 -8 q 247 40 336 -8 q 108 174 157 89 q 58 368 58 258 q 106 563 58 478 q 238 695 154 647 q 428 743 322 743 q 617 696 535 743 q 745 563 699 649 q 792 364 792 478 q 791 344 792 356 q 789 324 790 333 l 163 324 l 163 419 l 719 419 l 665 386 q 636 513 667 457 q 552 599 606 568 q 428 631 499 631 q 304 599 358 631 q 219 512 250 568 q 189 383 189 456 l 189 361 q 223 230 189 288 q 318 140 257 172 q 458 108 379 108 q 577 131 524 108 q 671 197 631 153 l 744 111 q 719 86 733 97 q 690 61 706 75 q 595 -29 629 10 q 547 -99 561 -68 q 533 -157 533 -129 q 558 -215 533 -196 q 619 -233 582 -233 q 665 -226 642 -233 q 704 -210 688 -219 l 731 -278 q 672 -302 704 -293 q 606 -311 640 -311 z "},"ẽ":{"ha":850,"x_min":58,"x_max":792,"o":"m 454 -8 q 247 40 336 -8 q 108 174 157 89 q 58 368 58 258 q 106 563 58 478 q 238 695 154 647 q 428 743 322 743 q 617 696 535 743 q 745 563 699 649 q 792 364 792 478 q 791 344 792 356 q 789 324 790 333 l 163 324 l 163 419 l 719 419 l 665 386 q 636 513 667 457 q 552 599 606 568 q 428 631 499 631 q 304 599 358 631 q 219 512 250 568 q 189 383 189 456 l 189 361 q 223 230 189 288 q 318 140 257 172 q 458 108 379 108 q 577 131 524 108 q 671 197 631 153 l 744 111 q 620 22 694 53 q 454 -8 546 -8 m 524 847 q 465 861 490 847 q 418 894 439 875 q 378 926 397 913 q 339 940 358 940 q 290 917 308 940 q 268 854 271 894 l 193 854 q 232 978 196 932 q 329 1024 268 1024 q 389 1009 363 1024 q 436 976 415 994 q 476 943 457 957 q 514 929 494 929 q 564 951 544 929 q 585 1013 583 974 l 660 1013 q 622 893 658 939 q 524 847 585 847 z "},"ə":{"ha":850,"x_min":58,"x_max":792,"o":"m 396 743 q 604 695 515 743 q 742 563 693 647 q 792 368 792 478 q 744 174 792 258 q 613 40 696 89 q 422 -8 529 -8 q 234 40 317 -8 q 105 173 151 88 q 58 371 58 258 q 59 392 58 381 q 61 413 60 403 l 688 413 l 688 315 l 132 315 l 185 349 q 215 223 185 278 q 299 137 246 168 q 422 106 353 106 q 547 137 493 106 q 631 224 601 168 q 661 353 661 281 l 661 375 q 628 506 661 450 q 534 594 594 563 q 393 626 474 626 q 274 605 328 626 q 179 538 221 583 l 107 624 q 231 713 156 682 q 396 743 306 743 z "},"ʒ":{"ha":732,"x_min":-28,"x_max":686,"o":"m 322 -279 q 122 -246 215 -279 q -28 -157 28 -212 l 24 -46 q 149 -125 71 -94 q 317 -156 228 -156 q 490 -107 431 -156 q 549 26 549 -58 q 492 157 549 108 q 311 206 435 206 l 232 206 l 232 300 l 525 668 l 538 618 l 7 618 l 7 736 l 644 736 l 644 640 l 350 271 l 290 314 l 335 314 q 599 234 511 314 q 686 26 686 154 q 646 -127 686 -58 q 525 -237 606 -196 q 322 -279 444 -279 z "},"ǯ":{"ha":732,"x_min":-28,"x_max":686,"o":"m 322 -279 q 122 -246 215 -279 q -28 -157 28 -212 l 24 -46 q 149 -125 71 -94 q 317 -156 228 -156 q 490 -107 431 -156 q 549 26 549 -58 q 492 157 549 108 q 311 206 435 206 l 232 206 l 232 300 l 525 668 l 538 618 l 7 618 l 7 736 l 644 736 l 644 640 l 350 271 l 290 314 l 335 314 q 599 234 511 314 q 686 26 686 154 q 646 -127 686 -58 q 525 -237 606 -196 q 322 -279 444 -279 m 250 843 l 65 1024 l 186 1024 l 369 872 l 258 872 l 442 1024 l 563 1024 l 378 843 l 250 843 z "},"f":{"ha":490,"x_min":21,"x_max":539,"o":"m 146 0 l 146 801 q 209 974 146 910 q 389 1039 272 1039 q 472 1028 432 1039 q 539 996 511 1018 l 499 894 q 451 920 478 911 q 396 929 425 929 q 307 897 338 929 q 276 800 276 864 l 276 701 l 279 640 l 279 0 l 146 0 m 21 626 l 21 736 l 490 736 l 490 626 l 21 626 z "},"g":{"ha":958,"x_min":58,"x_max":831,"o":"m 449 -278 q 252 -249 347 -278 q 97 -168 157 -221 l 161 -65 q 288 -135 213 -110 q 444 -161 363 -161 q 636 -100 575 -161 q 697 86 697 -39 l 697 242 l 711 388 l 704 535 l 704 736 l 831 736 l 831 100 q 733 -186 831 -94 q 449 -278 636 -278 m 432 31 q 241 76 325 31 q 108 201 157 121 q 58 388 58 282 q 108 574 58 494 q 241 699 157 654 q 432 743 325 743 q 604 705 526 743 q 728 588 682 667 q 775 388 775 508 q 728 189 775 268 q 604 70 682 110 q 432 31 526 31 m 447 147 q 578 178 521 147 q 667 263 635 208 q 700 388 700 317 q 667 513 700 458 q 578 597 635 567 q 447 626 521 626 q 316 597 374 626 q 226 513 258 567 q 193 388 193 458 q 226 263 193 317 q 316 178 258 208 q 447 147 374 147 z "},"ğ":{"ha":958,"x_min":58,"x_max":831,"o":"m 449 -278 q 252 -249 347 -278 q 97 -168 157 -221 l 161 -65 q 288 -135 213 -110 q 444 -161 363 -161 q 636 -100 575 -161 q 697 86 697 -39 l 697 242 l 711 388 l 704 535 l 704 736 l 831 736 l 831 100 q 733 -186 831 -94 q 449 -278 636 -278 m 432 31 q 241 76 325 31 q 108 201 157 121 q 58 388 58 282 q 108 574 58 494 q 241 699 157 654 q 432 743 325 743 q 604 705 526 743 q 728 588 682 667 q 775 388 775 508 q 728 189 775 268 q 604 70 682 110 q 432 31 526 31 m 447 147 q 578 178 521 147 q 667 263 635 208 q 700 388 700 317 q 667 513 700 458 q 578 597 635 567 q 447 626 521 626 q 316 597 374 626 q 226 513 258 567 q 193 388 193 458 q 226 263 193 317 q 316 178 258 208 q 447 147 374 147 m 457 835 q 299 885 363 835 q 232 1024 235 936 l 322 1024 q 364 942 325 972 q 457 913 403 913 q 551 942 511 913 q 592 1024 590 972 l 682 1024 q 615 885 679 936 q 457 835 551 835 z "},"ǧ":{"ha":958,"x_min":58,"x_max":831,"o":"m 449 -278 q 252 -249 347 -278 q 97 -168 157 -221 l 161 -65 q 288 -135 213 -110 q 444 -161 363 -161 q 636 -100 575 -161 q 697 86 697 -39 l 697 242 l 711 388 l 704 535 l 704 736 l 831 736 l 831 100 q 733 -186 831 -94 q 449 -278 636 -278 m 432 31 q 241 76 325 31 q 108 201 157 121 q 58 388 58 282 q 108 574 58 494 q 241 699 157 654 q 432 743 325 743 q 604 705 526 743 q 728 588 682 667 q 775 388 775 508 q 728 189 775 268 q 604 70 682 110 q 432 31 526 31 m 447 147 q 578 178 521 147 q 667 263 635 208 q 700 388 700 317 q 667 513 700 458 q 578 597 635 567 q 447 626 521 626 q 316 597 374 626 q 226 513 258 567 q 193 388 193 458 q 226 263 193 317 q 316 178 258 208 q 447 147 374 147 m 393 843 l 208 1024 l 329 1024 l 513 872 l 401 872 l 585 1024 l 706 1024 l 521 843 l 393 843 z "},"ĝ":{"ha":958,"x_min":58,"x_max":831,"o":"m 449 -278 q 252 -249 347 -278 q 97 -168 157 -221 l 161 -65 q 288 -135 213 -110 q 444 -161 363 -161 q 636 -100 575 -161 q 697 86 697 -39 l 697 242 l 711 388 l 704 535 l 704 736 l 831 736 l 831 100 q 733 -186 831 -94 q 449 -278 636 -278 m 432 31 q 241 76 325 31 q 108 201 157 121 q 58 388 58 282 q 108 574 58 494 q 241 699 157 654 q 432 743 325 743 q 604 705 526 743 q 728 588 682 667 q 775 388 775 508 q 728 189 775 268 q 604 70 682 110 q 432 31 526 31 m 447 147 q 578 178 521 147 q 667 263 635 208 q 700 388 700 317 q 667 513 700 458 q 578 597 635 567 q 447 626 521 626 q 316 597 374 626 q 226 513 258 567 q 193 388 193 458 q 226 263 193 317 q 316 178 258 208 q 447 147 374 147 m 208 843 l 393 1024 l 521 1024 l 706 843 l 585 843 l 401 996 l 513 996 l 329 843 l 208 843 z "},"ģ":{"ha":958,"x_min":58,"x_max":831,"o":"m 449 -278 q 252 -249 347 -278 q 97 -168 157 -221 l 161 -65 q 288 -135 213 -110 q 444 -161 363 -161 q 636 -100 575 -161 q 697 86 697 -39 l 697 242 l 711 388 l 704 535 l 704 736 l 831 736 l 831 100 q 733 -186 831 -94 q 449 -278 636 -278 m 432 31 q 241 76 325 31 q 108 201 157 121 q 58 388 58 282 q 108 574 58 494 q 241 699 157 654 q 432 743 325 743 q 604 705 526 743 q 728 588 682 667 q 775 388 775 508 q 728 189 775 268 q 604 70 682 110 q 432 31 526 31 m 447 147 q 578 178 521 147 q 667 263 635 208 q 700 388 700 317 q 667 513 700 458 q 578 597 635 567 q 447 626 521 626 q 316 597 374 626 q 226 513 258 567 q 193 388 193 458 q 226 263 193 317 q 316 178 258 208 q 447 147 374 147 m 457 835 q 399 853 419 835 q 379 899 379 872 q 384 929 379 913 q 400 968 389 946 l 451 1099 l 528 1099 l 474 911 l 457 961 q 514 944 493 961 q 535 899 535 928 q 515 853 535 871 q 457 835 494 835 z "},"ġ":{"ha":958,"x_min":58,"x_max":831,"o":"m 449 -278 q 252 -249 347 -278 q 97 -168 157 -221 l 161 -65 q 288 -135 213 -110 q 444 -161 363 -161 q 636 -100 575 -161 q 697 86 697 -39 l 697 242 l 711 388 l 704 535 l 704 736 l 831 736 l 831 100 q 733 -186 831 -94 q 449 -278 636 -278 m 432 31 q 241 76 325 31 q 108 201 157 121 q 58 388 58 282 q 108 574 58 494 q 241 699 157 654 q 432 743 325 743 q 604 705 526 743 q 728 588 682 667 q 775 388 775 508 q 728 189 775 268 q 604 70 682 110 q 432 31 526 31 m 447 147 q 578 178 521 147 q 667 263 635 208 q 700 388 700 317 q 667 513 700 458 q 578 597 635 567 q 447 626 521 626 q 316 597 374 626 q 226 513 258 567 q 193 388 193 458 q 226 263 193 317 q 316 178 258 208 q 447 147 374 147 m 457 868 q 399 892 422 868 q 375 950 375 915 q 399 1008 375 985 q 457 1032 422 1032 q 515 1008 492 1032 q 539 950 539 985 q 515 892 539 915 q 457 868 492 868 z "},"ḡ":{"ha":958,"x_min":58,"x_max":831,"o":"m 449 -278 q 252 -249 347 -278 q 97 -168 157 -221 l 161 -65 q 288 -135 213 -110 q 444 -161 363 -161 q 636 -100 575 -161 q 697 86 697 -39 l 697 242 l 711 388 l 704 535 l 704 736 l 831 736 l 831 100 q 733 -186 831 -94 q 449 -278 636 -278 m 432 31 q 241 76 325 31 q 108 201 157 121 q 58 388 58 282 q 108 574 58 494 q 241 699 157 654 q 432 743 325 743 q 604 705 526 743 q 728 588 682 667 q 775 388 775 508 q 728 189 775 268 q 604 70 682 110 q 432 31 526 31 m 447 147 q 578 178 521 147 q 667 263 635 208 q 700 388 700 317 q 667 513 700 458 q 578 597 635 567 q 447 626 521 626 q 316 597 374 626 q 226 513 258 567 q 193 388 193 458 q 226 263 193 317 q 316 178 258 208 q 447 147 374 147 m 231 892 l 231 975 l 683 975 l 683 892 l 231 892 z "},"ǥ":{"ha":969,"x_min":58,"x_max":919,"o":"m 449 -278 q 252 -249 347 -278 q 97 -168 157 -221 l 161 -65 q 288 -135 213 -110 q 444 -161 363 -161 q 636 -100 575 -161 q 697 86 697 -39 l 697 242 l 711 388 l 704 535 l 704 736 l 831 736 l 831 100 q 733 -186 831 -94 q 449 -278 636 -278 m 394 -81 l 394 10 l 919 11 l 919 -81 l 394 -81 m 432 60 q 241 103 325 60 q 108 224 157 147 q 58 403 58 301 q 108 581 58 504 q 241 701 157 658 q 432 743 325 743 q 604 706 526 743 q 728 593 682 668 q 775 403 775 518 q 728 211 775 288 q 604 97 682 135 q 432 60 526 60 m 447 172 q 578 201 521 172 q 667 283 635 231 q 700 403 700 335 q 667 523 700 472 q 578 603 635 574 q 447 632 521 632 q 316 603 374 632 q 226 523 258 574 q 193 403 193 472 q 226 283 193 335 q 316 201 258 231 q 447 172 374 172 z "},"h":{"ha":946,"x_min":126,"x_max":825,"o":"m 519 743 q 678 708 610 743 q 786 603 747 674 q 825 424 825 532 l 825 0 l 692 0 l 692 408 q 640 569 692 515 q 493 624 588 624 q 369 596 422 624 q 288 514 317 568 q 260 379 260 460 l 260 0 l 126 0 l 126 1031 l 260 1031 l 260 538 l 233 590 q 344 703 269 663 q 519 743 419 743 z "},"ħ":{"ha":946,"x_min":0,"x_max":825,"o":"m 519 743 q 678 708 610 743 q 786 603 747 674 q 825 424 825 532 l 825 0 l 692 0 l 692 408 q 640 569 692 515 q 493 624 588 624 q 369 596 422 624 q 288 514 317 568 q 260 379 260 460 l 260 0 l 126 0 l 126 1031 l 260 1031 l 260 538 l 233 590 q 344 703 269 663 q 519 743 419 743 m 0 835 l 0 929 l 550 929 l 550 835 l 0 835 z "},"ḫ":{"ha":946,"x_min":126,"x_max":825,"o":"m 519 743 q 678 708 610 743 q 786 603 747 674 q 825 424 825 532 l 825 0 l 692 0 l 692 408 q 640 569 692 515 q 493 624 588 624 q 369 596 422 624 q 288 514 317 568 q 260 379 260 460 l 260 0 l 126 0 l 126 1031 l 260 1031 l 260 538 l 233 590 q 344 703 269 663 q 519 743 419 743 m 476 -290 q 318 -242 382 -290 q 251 -112 254 -193 l 339 -112 q 378 -189 339 -161 q 476 -217 418 -217 q 574 -189 535 -217 q 614 -112 614 -161 l 701 -112 q 635 -242 699 -193 q 476 -290 571 -290 z "},"ȟ":{"ha":946,"x_min":-54,"x_max":825,"o":"m 519 743 q 678 708 610 743 q 786 603 747 674 q 825 424 825 532 l 825 0 l 692 0 l 692 408 q 640 569 692 515 q 493 624 588 624 q 369 596 422 624 q 288 514 317 568 q 260 379 260 460 l 260 0 l 126 0 l 126 1031 l 260 1031 l 260 538 l 233 590 q 344 703 269 663 q 519 743 419 743 m 129 1138 l -56 1318 l 65 1318 l 249 1167 l 138 1167 l 321 1318 l 442 1318 l 257 1138 l 129 1138 z "},"ĥ":{"ha":946,"x_min":-54,"x_max":825,"o":"m 519 743 q 678 708 610 743 q 786 603 747 674 q 825 424 825 532 l 825 0 l 692 0 l 692 408 q 640 569 692 515 q 493 624 588 624 q 369 596 422 624 q 288 514 317 568 q 260 379 260 460 l 260 0 l 126 0 l 126 1031 l 260 1031 l 260 538 l 233 590 q 344 703 269 663 q 519 743 419 743 z "},"ḥ":{"ha":946,"x_min":126,"x_max":825,"o":"m 519 743 q 678 708 610 743 q 786 603 747 674 q 825 424 825 532 l 825 0 l 692 0 l 692 408 q 640 569 692 515 q 493 624 588 624 q 369 596 422 624 q 288 514 317 568 q 260 379 260 460 l 260 0 l 126 0 l 126 1031 l 260 1031 l 260 538 l 233 590 q 344 703 269 663 q 519 743 419 743 m 476 -272 q 426 -253 447 -272 q 406 -203 406 -233 q 426 -151 406 -171 q 476 -131 447 -131 q 526 -151 506 -131 q 547 -203 547 -171 q 526 -253 547 -233 q 476 -272 506 -272 z "},"i":{"ha":388,"x_min":104,"x_max":283,"o":"m 126 0 l 126 736 l 260 736 l 260 0 l 126 0 m 193 878 q 128 903 154 878 q 103 964 103 928 q 128 1026 103 1001 q 193 1051 154 1051 q 258 1027 232 1051 q 283 967 283 1003 q 258 903 283 929 q 193 878 233 878 z "},"ı":{"ha":388,"x_min":126,"x_max":260,"o":"m 126 0 l 126 736 l 260 736 l 260 0 l 126 0 z "},"í":{"ha":388,"x_min":89,"x_max":447,"o":"m 126 0 l 126 736 l 260 736 l 260 0 l 126 0 m 89 843 l 278 1024 l 447 1024 l 214 843 l 89 843 z "},"ĭ":{"ha":388,"x_min":3,"x_max":385,"o":"m 126 0 l 126 736 l 260 736 l 260 0 l 126 0 m 193 835 q 57 885 111 835 q 3 1024 3 936 l 89 1024 q 117 942 89 972 q 193 913 144 913 q 269 942 242 913 q 297 1024 297 972 l 383 1024 q 329 885 383 936 q 193 835 275 835 z "},"î":{"ha":388,"x_min":-19,"x_max":407,"o":"m 126 0 l 126 736 l 260 736 l 260 0 l 126 0 m -21 843 l 131 1024 l 256 1024 l 407 843 l 293 843 l 144 996 l 242 996 l 93 843 l -21 843 z "},"ȉ":{"ha":388,"x_min":-136,"x_max":371,"o":"m 126 0 l 126 736 l 260 736 l 260 0 l 126 0 m 258 843 l 104 1024 l 246 1024 l 371 843 l 258 843 m 15 843 l -136 1024 l 4 1024 l 128 843 l 15 843 z "},"ï":{"ha":388,"x_min":26,"x_max":361,"o":"m 126 0 l 126 736 l 260 736 l 260 0 l 126 0 m 292 868 q 243 888 263 868 q 224 938 224 908 q 243 988 224 968 q 292 1008 263 1008 q 341 988 321 1008 q 361 938 361 968 q 341 888 361 908 q 292 868 321 868 m 94 868 q 45 888 65 868 q 25 938 25 908 q 45 988 25 968 q 94 1008 65 1008 q 143 988 124 1008 q 163 938 163 968 q 143 888 163 908 q 94 868 124 868 z "},"ḯ":{"ha":388,"x_min":-1,"x_max":414,"o":"m 126 0 l 126 736 l 260 736 l 260 0 l 126 0 z "},"ị":{"ha":388,"x_min":104,"x_max":283,"o":"m 126 0 l 126 736 l 260 736 l 260 0 l 126 0 m 193 878 q 128 903 154 878 q 103 964 103 928 q 128 1026 103 1001 q 193 1051 154 1051 q 258 1027 232 1051 q 283 967 283 1003 q 258 903 283 929 q 193 878 233 878 m 193 -272 q 143 -253 164 -272 q 122 -203 122 -233 q 143 -151 122 -171 q 193 -131 164 -131 q 243 -151 222 -131 q 264 -203 264 -171 q 243 -253 264 -233 q 193 -272 222 -272 z "},"ì":{"ha":388,"x_min":-61,"x_max":299,"o":"m 126 0 l 126 736 l 260 736 l 260 0 l 126 0 m 172 843 l -61 1024 l 108 1024 l 297 843 l 172 843 z "},"ỉ":{"ha":388,"x_min":67,"x_max":335,"o":"m 126 0 l 126 736 l 260 736 l 260 0 l 126 0 m 219 831 l 174 885 q 233 927 214 904 q 251 978 251 950 q 232 1025 251 1007 q 179 1043 213 1043 q 96 1017 136 1043 l 65 1079 q 126 1108 92 1099 q 192 1118 160 1118 q 294 1083 256 1118 q 333 989 333 1047 q 306 898 333 938 q 219 831 278 858 z "},"ȋ":{"ha":388,"x_min":3,"x_max":385,"o":"m 126 0 l 126 736 l 260 736 l 260 0 l 126 0 m 3 843 q 57 981 3 931 q 193 1032 111 1032 q 329 981 275 1032 q 383 843 383 931 l 297 843 q 269 924 297 894 q 193 954 242 954 q 117 924 144 954 q 89 843 89 894 l 3 843 z "},"ĳ":{"ha":781,"x_min":104,"x_max":678,"o":"m 126 0 l 126 736 l 260 736 l 260 0 l 126 0 m 193 878 q 128 903 154 878 q 103 964 103 928 q 128 1026 103 1001 q 193 1051 154 1051 q 258 1027 232 1051 q 283 967 283 1003 q 258 903 283 929 q 193 878 233 878 z "},"ī":{"ha":388,"x_min":8,"x_max":378,"o":"m 126 0 l 126 736 l 260 736 l 260 0 l 126 0 m 8 892 l 8 975 l 378 975 l 378 892 l 8 892 z "},"į":{"ha":388,"x_min":85,"x_max":311,"o":"m 126 0 l 126 736 l 260 736 l 260 0 l 126 0 m 193 878 q 128 903 154 878 q 103 964 103 928 q 128 1026 103 1001 q 193 1051 154 1051 q 258 1027 232 1051 q 283 967 283 1003 q 258 903 283 929 q 193 878 233 878 m 222 -311 q 122 -274 160 -311 q 83 -176 83 -237 q 113 -66 83 -122 q 211 43 142 -10 l 260 0 q 193 -90 208 -50 q 178 -161 178 -129 q 196 -214 178 -194 q 239 -233 214 -233 q 263 -229 251 -233 q 286 -217 275 -225 l 310 -283 q 222 -311 276 -311 z "},"ĩ":{"ha":388,"x_min":-6,"x_max":392,"o":"m 126 0 l 126 736 l 260 736 l 260 0 l 126 0 m 276 847 q 223 861 246 847 q 182 894 200 875 q 149 926 164 913 q 117 940 133 940 q 81 917 93 940 q 69 854 69 894 l -6 854 q 25 980 -6 936 q 110 1024 56 1024 q 164 1009 142 1024 q 204 976 186 994 q 238 944 222 958 q 269 931 253 931 q 305 953 293 931 q 317 1013 317 975 l 392 1013 q 361 891 392 935 q 276 847 331 847 z "},"j":{"ha":394,"x_min":-128,"x_max":290,"o":"m 32 -278 q -56 -267 -14 -278 q -128 -233 -99 -256 l -85 -131 q 24 -165 -43 -165 q 105 -133 76 -165 q 133 -36 133 -100 l 133 736 l 267 736 l 267 -33 q 206 -212 267 -146 q 32 -278 146 -278 m 200 878 q 135 903 161 878 q 110 964 110 928 q 135 1026 110 1001 q 200 1051 161 1051 q 265 1027 239 1051 q 290 967 290 1003 q 265 903 290 929 q 200 878 240 878 z "},"ȷ":{"ha":394,"x_min":-128,"x_max":267,"o":"m 32 -278 q -56 -267 -14 -278 q -128 -233 -99 -256 l -85 -131 q 24 -165 -43 -165 q 105 -133 76 -165 q 133 -36 133 -100 l 133 736 l 267 736 l 267 -33 q 206 -212 267 -146 q 32 -278 146 -278 z "},"ĵ":{"ha":394,"x_min":-128,"x_max":414,"o":"m 32 -278 q -56 -267 -14 -278 q -128 -233 -99 -256 l -85 -131 q 24 -165 -43 -165 q 105 -133 76 -165 q 133 -36 133 -100 l 133 736 l 267 736 l 267 -33 q 206 -212 267 -146 q 32 -278 146 -278 m -14 843 l 138 1024 l 263 1024 l 414 843 l 300 843 l 151 996 l 249 996 l 100 843 l -14 843 z "},"k":{"ha":856,"x_min":126,"x_max":853,"o":"m 235 178 l 238 349 l 661 736 l 822 736 l 497 417 l 425 356 l 235 178 m 126 0 l 126 1031 l 260 1031 l 260 0 l 126 0 m 689 0 l 400 358 l 486 465 l 853 0 l 689 0 z "},"ǩ":{"ha":856,"x_min":-54,"x_max":853,"o":"m 235 178 l 238 349 l 661 736 l 822 736 l 497 417 l 425 356 l 235 178 m 126 0 l 126 1031 l 260 1031 l 260 0 l 126 0 m 689 0 l 400 358 l 486 465 l 853 0 l 689 0 m 129 1138 l -56 1318 l 65 1318 l 249 1167 l 138 1167 l 321 1318 l 442 1318 l 257 1138 l 129 1138 z "},"ķ":{"ha":856,"x_min":126,"x_max":853,"o":"m 235 178 l 238 349 l 661 736 l 822 736 l 497 417 l 425 356 l 235 178 m 126 0 l 126 1031 l 260 1031 l 260 0 l 126 0 m 689 0 l 400 358 l 486 465 l 853 0 l 689 0 m 376 -365 l 422 -207 l 435 -257 q 383 -240 401 -257 q 364 -194 364 -222 q 383 -149 364 -167 q 435 -131 403 -131 q 487 -149 468 -131 q 506 -194 506 -168 q 502 -226 506 -208 q 488 -265 499 -244 l 446 -365 l 376 -365 z "},"ĸ":{"ha":842,"x_min":126,"x_max":853,"o":"m 235 178 l 238 349 l 661 736 l 822 736 l 497 417 l 425 356 l 235 178 m 126 0 l 126 736 l 260 736 l 260 0 l 126 0 m 689 0 l 400 358 l 486 465 l 853 0 l 689 0 z "},"l":{"ha":388,"x_min":126,"x_max":260,"o":"m 126 0 l 126 1031 l 260 1031 l 260 0 l 126 0 z "},"ĺ":{"ha":388,"x_min":89,"x_max":447,"o":"m 126 0 l 126 1031 l 260 1031 l 260 0 l 126 0 m 89 1138 l 278 1318 l 447 1318 l 214 1138 l 89 1138 z "},"ľ":{"ha":388,"x_min":126,"x_max":493,"o":"m 126 0 l 126 1031 l 260 1031 l 260 0 l 126 0 m 383 808 l 383 1076 l 493 1076 l 476 808 l 383 808 z "},"ļ":{"ha":388,"x_min":122,"x_max":265,"o":"m 126 0 l 126 1031 l 260 1031 l 260 0 l 126 0 m 135 -365 l 181 -207 l 193 -257 q 141 -240 160 -257 q 122 -194 122 -222 q 142 -149 122 -167 q 193 -131 161 -131 q 245 -149 226 -131 q 264 -194 264 -168 q 260 -226 264 -208 q 246 -265 257 -244 l 204 -365 l 135 -365 z "},"ŀ":{"ha":479,"x_min":126,"x_max":513,"o":"m 126 0 l 126 1031 l 260 1031 l 260 0 l 126 0 m 433 418 q 376 441 399 418 q 353 497 353 464 q 376 553 353 529 q 433 576 399 576 q 490 553 467 576 q 513 497 513 529 q 490 441 513 464 q 433 418 467 418 z "},"ḷ":{"ha":388,"x_min":122,"x_max":265,"o":"m 126 0 l 126 1031 l 260 1031 l 260 0 l 126 0 m 193 -272 q 143 -253 164 -272 q 122 -203 122 -233 q 143 -151 122 -171 q 193 -131 164 -131 q 243 -151 222 -131 q 264 -203 264 -171 q 243 -253 264 -233 q 193 -272 222 -272 z "},"ǉ":{"ha":781,"x_min":126,"x_max":678,"o":"m 126 0 l 126 1031 l 260 1031 l 260 0 l 126 0 m 419 -278 q 331 -267 374 -278 q 260 -233 289 -256 l 303 -131 q 411 -165 344 -165 q 492 -133 464 -165 q 521 -36 521 -100 l 521 736 l 654 736 l 654 -33 q 594 -212 654 -146 q 419 -278 533 -278 m 588 878 q 523 903 549 878 q 497 964 497 928 q 523 1026 497 1001 q 588 1051 549 1051 q 652 1027 626 1051 q 678 967 678 1003 q 653 903 678 929 q 588 878 628 878 z "},"ḻ":{"ha":388,"x_min":-33,"x_max":419,"o":"m 126 0 l 126 1031 l 260 1031 l 260 0 l 126 0 m -33 -242 l -33 -157 l 419 -157 l 419 -242 l -33 -242 z "},"ł":{"ha":408,"x_min":-10,"x_max":418,"o":"m 138 0 l 138 1031 l 271 1031 l 271 0 l 138 0 m 50 318 l -10 397 l 358 678 l 418 597 l 50 318 z "},"m":{"ha":1468,"x_min":126,"x_max":1349,"o":"m 1047 743 q 1204 708 1136 743 q 1310 603 1272 674 q 1349 424 1349 532 l 1349 0 l 1215 0 l 1215 408 q 1165 569 1215 515 q 1025 624 1115 624 q 908 596 958 624 q 831 514 858 568 q 804 379 804 460 l 804 0 l 671 0 l 671 408 q 622 569 671 515 q 481 624 572 624 q 365 596 415 624 q 288 514 315 568 q 260 379 260 460 l 260 0 l 126 0 l 126 736 l 254 736 l 254 540 l 233 590 q 340 703 268 663 q 508 743 413 743 q 690 691 614 743 q 790 533 767 639 l 736 556 q 853 692 769 640 q 1047 743 936 743 z "},"ṃ":{"ha":1468,"x_min":126,"x_max":1349,"o":"m 1047 743 q 1204 708 1136 743 q 1310 603 1272 674 q 1349 424 1349 532 l 1349 0 l 1215 0 l 1215 408 q 1165 569 1215 515 q 1025 624 1115 624 q 908 596 958 624 q 831 514 858 568 q 804 379 804 460 l 804 0 l 671 0 l 671 408 q 622 569 671 515 q 481 624 572 624 q 365 596 415 624 q 288 514 315 568 q 260 379 260 460 l 260 0 l 126 0 l 126 736 l 254 736 l 254 540 l 233 590 q 340 703 268 663 q 508 743 413 743 q 690 691 614 743 q 790 533 767 639 l 736 556 q 853 692 769 640 q 1047 743 936 743 m 736 -272 q 686 -253 707 -272 q 665 -203 665 -233 q 686 -151 665 -171 q 736 -131 707 -131 q 786 -151 765 -131 q 807 -203 807 -171 q 786 -253 807 -233 q 736 -272 765 -272 z "},"n":{"ha":946,"x_min":126,"x_max":825,"o":"m 519 743 q 678 708 610 743 q 786 603 747 674 q 825 424 825 532 l 825 0 l 692 0 l 692 408 q 640 569 692 515 q 493 624 588 624 q 369 596 422 624 q 288 514 317 568 q 260 379 260 460 l 260 0 l 126 0 l 126 736 l 254 736 l 254 538 l 233 590 q 344 703 269 663 q 519 743 419 743 z "},"ń":{"ha":946,"x_min":126,"x_max":825,"o":"m 519 743 q 678 708 610 743 q 786 603 747 674 q 825 424 825 532 l 825 0 l 692 0 l 692 408 q 640 569 692 515 q 493 624 588 624 q 369 596 422 624 q 288 514 317 568 q 260 379 260 460 l 260 0 l 126 0 l 126 736 l 254 736 l 254 538 l 233 590 q 344 703 269 663 q 519 743 419 743 m 372 843 l 561 1024 l 731 1024 l 497 843 l 372 843 z "},"ŉ":{"ha":1011,"x_min":3,"x_max":892,"o":"m 585 743 q 744 708 675 743 q 851 603 813 674 q 890 424 890 532 l 890 0 l 757 0 l 757 408 q 705 569 757 515 q 558 624 653 624 q 435 596 488 624 q 353 514 382 568 q 325 379 325 460 l 325 0 l 192 0 l 192 736 l 319 736 l 319 538 l 299 590 q 410 703 335 663 q 585 743 485 743 z "},"ň":{"ha":946,"x_min":126,"x_max":825,"o":"m 519 743 q 678 708 610 743 q 786 603 747 674 q 825 424 825 532 l 825 0 l 692 0 l 692 408 q 640 569 692 515 q 493 624 588 624 q 369 596 422 624 q 288 514 317 568 q 260 379 260 460 l 260 0 l 126 0 l 126 736 l 254 736 l 254 538 l 233 590 q 344 703 269 663 q 519 743 419 743 m 413 843 l 228 1024 l 349 1024 l 532 872 l 421 872 l 604 1024 l 725 1024 l 540 843 l 413 843 z "},"ņ":{"ha":946,"x_min":126,"x_max":825,"o":"m 519 743 q 678 708 610 743 q 786 603 747 674 q 825 424 825 532 l 825 0 l 692 0 l 692 408 q 640 569 692 515 q 493 624 588 624 q 369 596 422 624 q 288 514 317 568 q 260 379 260 460 l 260 0 l 126 0 l 126 736 l 254 736 l 254 538 l 233 590 q 344 703 269 663 q 519 743 419 743 m 418 -365 l 464 -207 l 476 -257 q 424 -240 443 -257 q 406 -194 406 -222 q 425 -149 406 -167 q 476 -131 444 -131 q 528 -149 510 -131 q 547 -194 547 -168 q 544 -226 547 -208 q 529 -265 540 -244 l 488 -365 l 418 -365 z "},"ṅ":{"ha":946,"x_min":126,"x_max":825,"o":"m 519 743 q 678 708 610 743 q 786 603 747 674 q 825 424 825 532 l 825 0 l 692 0 l 692 408 q 640 569 692 515 q 493 624 588 624 q 369 596 422 624 q 288 514 317 568 q 260 379 260 460 l 260 0 l 126 0 l 126 736 l 254 736 l 254 538 l 233 590 q 344 703 269 663 q 519 743 419 743 m 476 868 q 418 892 442 868 q 394 950 394 915 q 418 1008 394 985 q 476 1032 442 1032 q 535 1008 511 1032 q 558 950 558 985 q 535 892 558 915 q 476 868 511 868 z "},"ṇ":{"ha":946,"x_min":126,"x_max":825,"o":"m 519 743 q 678 708 610 743 q 786 603 747 674 q 825 424 825 532 l 825 0 l 692 0 l 692 408 q 640 569 692 515 q 493 624 588 624 q 369 596 422 624 q 288 514 317 568 q 260 379 260 460 l 260 0 l 126 0 l 126 736 l 254 736 l 254 538 l 233 590 q 344 703 269 663 q 519 743 419 743 m 476 -272 q 426 -253 447 -272 q 406 -203 406 -233 q 426 -151 406 -171 q 476 -131 447 -131 q 526 -151 506 -131 q 547 -203 547 -171 q 526 -253 547 -233 q 476 -272 506 -272 z "},"ŋ":{"ha":946,"x_min":126,"x_max":825,"o":"m 519 743 q 678 708 610 743 q 786 603 747 674 q 825 424 825 532 l 825 -33 q 765 -212 825 -146 q 590 -278 704 -278 q 502 -267 544 -278 q 431 -233 460 -256 l 474 -131 q 582 -165 515 -165 q 663 -133 635 -165 q 692 -36 692 -100 l 692 408 q 640 569 692 515 q 493 624 588 624 q 369 596 422 624 q 288 514 317 568 q 260 379 260 460 l 260 0 l 126 0 l 126 736 l 254 736 l 254 538 l 233 590 q 344 703 269 663 q 519 743 419 743 z "},"ǌ":{"ha":1339,"x_min":126,"x_max":1236,"o":"m 519 743 q 678 708 610 743 q 786 603 747 674 q 825 424 825 532 l 825 0 l 692 0 l 692 408 q 640 569 692 515 q 493 624 588 624 q 369 596 422 624 q 288 514 317 568 q 260 379 260 460 l 260 0 l 126 0 l 126 736 l 254 736 l 254 538 l 233 590 q 344 703 269 663 q 519 743 419 743 m 978 -278 q 890 -267 932 -278 q 818 -233 847 -256 l 861 -131 q 969 -165 903 -165 q 1051 -133 1022 -165 q 1079 -36 1079 -100 l 1079 736 l 1213 736 l 1213 -33 q 1152 -212 1213 -146 q 978 -278 1092 -278 m 1146 878 q 1081 903 1107 878 q 1056 964 1056 928 q 1081 1026 1056 1001 q 1146 1051 1107 1051 q 1210 1027 1185 1051 q 1236 967 1236 1003 q 1211 903 1236 929 q 1146 878 1186 878 z "},"ṉ":{"ha":946,"x_min":126,"x_max":825,"o":"m 519 743 q 678 708 610 743 q 786 603 747 674 q 825 424 825 532 l 825 0 l 692 0 l 692 408 q 640 569 692 515 q 493 624 588 624 q 369 596 422 624 q 288 514 317 568 q 260 379 260 460 l 260 0 l 126 0 l 126 736 l 254 736 l 254 538 l 233 590 q 344 703 269 663 q 519 743 419 743 m 250 -242 l 250 -157 l 703 -157 l 703 -242 l 250 -242 z "},"ñ":{"ha":946,"x_min":126,"x_max":825,"o":"m 519 743 q 678 708 610 743 q 786 603 747 674 q 825 424 825 532 l 825 0 l 692 0 l 692 408 q 640 569 692 515 q 493 624 588 624 q 369 596 422 624 q 288 514 317 568 q 260 379 260 460 l 260 0 l 126 0 l 126 736 l 254 736 l 254 538 l 233 590 q 344 703 269 663 q 519 743 419 743 m 574 847 q 515 861 540 847 q 468 894 489 875 q 428 926 447 913 q 389 940 408 940 q 340 917 358 940 q 318 854 321 894 l 243 854 q 282 978 246 932 q 379 1024 318 1024 q 439 1009 413 1024 q 486 976 465 994 q 526 943 507 957 q 564 929 544 929 q 614 951 594 929 q 635 1013 633 974 l 710 1013 q 672 893 708 939 q 574 847 635 847 z "},"o":{"ha":882,"x_min":58,"x_max":824,"o":"m 442 -8 q 244 40 331 -8 q 108 174 158 89 q 58 368 58 260 q 108 563 58 478 q 244 695 158 647 q 442 743 331 743 q 638 695 551 743 q 774 563 725 647 q 824 368 824 479 q 774 174 824 258 q 638 40 725 89 q 442 -8 551 -8 m 442 108 q 569 140 513 108 q 657 231 625 172 q 689 368 689 290 q 657 505 689 447 q 569 594 625 563 q 442 626 513 626 q 315 594 371 626 q 226 505 260 563 q 193 368 193 447 q 226 231 193 290 q 315 140 260 172 q 442 108 371 108 z "},"ó":{"ha":882,"x_min":58,"x_max":824,"o":"m 442 -8 q 244 40 331 -8 q 108 174 158 89 q 58 368 58 260 q 108 563 58 478 q 244 695 158 647 q 442 743 331 743 q 638 695 551 743 q 774 563 725 647 q 824 368 824 479 q 774 174 824 258 q 638 40 725 89 q 442 -8 551 -8 m 442 108 q 569 140 513 108 q 657 231 625 172 q 689 368 689 290 q 657 505 689 447 q 569 594 625 563 q 442 626 513 626 q 315 594 371 626 q 226 505 260 563 q 193 368 193 447 q 226 231 193 290 q 315 140 260 172 q 442 108 371 108 m 336 843 l 525 1024 l 694 1024 l 461 843 l 336 843 z "},"ŏ":{"ha":882,"x_min":58,"x_max":824,"o":"m 442 -8 q 244 40 331 -8 q 108 174 158 89 q 58 368 58 260 q 108 563 58 478 q 244 695 158 647 q 442 743 331 743 q 638 695 551 743 q 774 563 725 647 q 824 368 824 479 q 774 174 824 258 q 638 40 725 89 q 442 -8 551 -8 m 442 108 q 569 140 513 108 q 657 231 625 172 q 689 368 689 290 q 657 505 689 447 q 569 594 625 563 q 442 626 513 626 q 315 594 371 626 q 226 505 260 563 q 193 368 193 447 q 226 231 193 290 q 315 140 260 172 q 442 108 371 108 m 440 835 q 282 885 346 835 q 215 1024 218 936 l 306 1024 q 347 942 308 972 q 440 913 386 913 q 534 942 494 913 q 575 1024 574 972 l 665 1024 q 599 885 663 936 q 440 835 535 835 z "},"ô":{"ha":882,"x_min":58,"x_max":824,"o":"m 442 -8 q 244 40 331 -8 q 108 174 158 89 q 58 368 58 260 q 108 563 58 478 q 244 695 158 647 q 442 743 331 743 q 638 695 551 743 q 774 563 725 647 q 824 368 824 479 q 774 174 824 258 q 638 40 725 89 q 442 -8 551 -8 m 442 108 q 569 140 513 108 q 657 231 625 172 q 689 368 689 290 q 657 505 689 447 q 569 594 625 563 q 442 626 513 626 q 315 594 371 626 q 226 505 260 563 q 193 368 193 447 q 226 231 193 290 q 315 140 260 172 q 442 108 371 108 m 192 843 l 376 1024 l 504 1024 l 689 843 l 568 843 l 385 996 l 496 996 l 313 843 l 192 843 z "},"ố":{"ha":882,"x_min":58,"x_max":893,"o":"m 442 -8 q 244 40 331 -8 q 108 174 158 89 q 58 368 58 260 q 108 563 58 478 q 244 695 158 647 q 442 743 331 743 q 638 695 551 743 q 774 563 725 647 q 824 368 824 479 q 774 174 824 258 q 638 40 725 89 q 442 -8 551 -8 m 442 108 q 569 140 513 108 q 657 231 625 172 q 689 368 689 290 q 657 505 689 447 q 569 594 625 563 q 442 626 513 626 q 315 594 371 626 q 226 505 260 563 q 193 368 193 447 q 226 231 193 290 q 315 140 260 172 q 442 108 371 108 z "},"ộ":{"ha":882,"x_min":58,"x_max":824,"o":"m 442 -8 q 244 40 331 -8 q 108 174 158 89 q 58 368 58 260 q 108 563 58 478 q 244 695 158 647 q 442 743 331 743 q 638 695 551 743 q 774 563 725 647 q 824 368 824 479 q 774 174 824 258 q 638 40 725 89 q 442 -8 551 -8 m 442 108 q 569 140 513 108 q 657 231 625 172 q 689 368 689 290 q 657 505 689 447 q 569 594 625 563 q 442 626 513 626 q 315 594 371 626 q 226 505 260 563 q 193 368 193 447 q 226 231 193 290 q 315 140 260 172 q 442 108 371 108 m 440 -272 q 390 -253 411 -272 q 369 -203 369 -233 q 390 -151 369 -171 q 440 -131 411 -131 q 490 -151 469 -131 q 511 -203 511 -171 q 490 -253 511 -233 q 440 -272 469 -272 m 192 843 l 376 1024 l 504 1024 l 689 843 l 568 843 l 385 996 l 496 996 l 313 843 l 192 843 z "},"ồ":{"ha":882,"x_min":58,"x_max":824,"o":"m 442 -8 q 244 40 331 -8 q 108 174 158 89 q 58 368 58 260 q 108 563 58 478 q 244 695 158 647 q 442 743 331 743 q 638 695 551 743 q 774 563 725 647 q 824 368 824 479 q 774 174 824 258 q 638 40 725 89 q 442 -8 551 -8 m 442 108 q 569 140 513 108 q 657 231 625 172 q 689 368 689 290 q 657 505 689 447 q 569 594 625 563 q 442 626 513 626 q 315 594 371 626 q 226 505 260 563 q 193 368 193 447 q 226 231 193 290 q 315 140 260 172 q 442 108 371 108 z "},"ổ":{"ha":882,"x_min":58,"x_max":824,"o":"m 442 -8 q 244 40 331 -8 q 108 174 158 89 q 58 368 58 260 q 108 563 58 478 q 244 695 158 647 q 442 743 331 743 q 638 695 551 743 q 774 563 725 647 q 824 368 824 479 q 774 174 824 258 q 638 40 725 89 q 442 -8 551 -8 m 442 108 q 569 140 513 108 q 657 231 625 172 q 689 368 689 290 q 657 505 689 447 q 569 594 625 563 q 442 626 513 626 q 315 594 371 626 q 226 505 260 563 q 193 368 193 447 q 226 231 193 290 q 315 140 260 172 q 442 108 371 108 z "},"ỗ":{"ha":882,"x_min":58,"x_max":824,"o":"m 442 -8 q 244 40 331 -8 q 108 174 158 89 q 58 368 58 260 q 108 563 58 478 q 244 695 158 647 q 442 743 331 743 q 638 695 551 743 q 774 563 725 647 q 824 368 824 479 q 774 174 824 258 q 638 40 725 89 q 442 -8 551 -8 m 442 108 q 569 140 513 108 q 657 231 625 172 q 689 368 689 290 q 657 505 689 447 q 569 594 625 563 q 442 626 513 626 q 315 594 371 626 q 226 505 260 563 q 193 368 193 447 q 226 231 193 290 q 315 140 260 172 q 442 108 371 108 z "},"ȍ":{"ha":882,"x_min":58,"x_max":824,"o":"m 442 -8 q 244 40 331 -8 q 108 174 158 89 q 58 368 58 260 q 108 563 58 478 q 244 695 158 647 q 442 743 331 743 q 638 695 551 743 q 774 563 725 647 q 824 368 824 479 q 774 174 824 258 q 638 40 725 89 q 442 -8 551 -8 m 442 108 q 569 140 513 108 q 657 231 625 172 q 689 368 689 290 q 657 505 689 447 q 569 594 625 563 q 442 626 513 626 q 315 594 371 626 q 226 505 260 563 q 193 368 193 447 q 226 231 193 290 q 315 140 260 172 q 442 108 371 108 m 506 843 l 351 1024 l 493 1024 l 618 843 l 506 843 m 263 843 l 111 1024 l 251 1024 l 375 843 l 263 843 z "},"ö":{"ha":882,"x_min":58,"x_max":824,"o":"m 442 -8 q 244 40 331 -8 q 108 174 158 89 q 58 368 58 260 q 108 563 58 478 q 244 695 158 647 q 442 743 331 743 q 638 695 551 743 q 774 563 725 647 q 824 368 824 479 q 774 174 824 258 q 638 40 725 89 q 442 -8 551 -8 m 442 108 q 569 140 513 108 q 657 231 625 172 q 689 368 689 290 q 657 505 689 447 q 569 594 625 563 q 442 626 513 626 q 315 594 371 626 q 226 505 260 563 q 193 368 193 447 q 226 231 193 290 q 315 140 260 172 q 442 108 371 108 m 569 867 q 519 887 540 867 q 499 938 499 907 q 519 990 499 969 q 569 1010 540 1010 q 619 990 599 1010 q 640 938 640 969 q 619 887 640 907 q 569 867 599 867 m 311 867 q 261 887 282 867 q 240 938 240 907 q 261 990 240 969 q 311 1010 282 1010 q 361 990 340 1010 q 382 938 382 969 q 361 887 382 907 q 311 867 340 867 z "},"ȫ":{"ha":882,"x_min":58,"x_max":824,"o":"m 442 -8 q 244 40 331 -8 q 108 174 158 89 q 58 368 58 260 q 108 563 58 478 q 244 695 158 647 q 442 743 331 743 q 638 695 551 743 q 774 563 725 647 q 824 368 824 479 q 774 174 824 258 q 638 40 725 89 q 442 -8 551 -8 m 442 108 q 569 140 513 108 q 657 231 625 172 q 689 368 689 290 q 657 505 689 447 q 569 594 625 563 q 442 626 513 626 q 315 594 371 626 q 226 505 260 563 q 193 368 193 447 q 226 231 193 290 q 315 140 260 172 q 442 108 371 108 z "},"ȱ":{"ha":882,"x_min":58,"x_max":824,"o":"m 442 -8 q 244 40 331 -8 q 108 174 158 89 q 58 368 58 260 q 108 563 58 478 q 244 695 158 647 q 442 743 331 743 q 638 695 551 743 q 774 563 725 647 q 824 368 824 479 q 774 174 824 258 q 638 40 725 89 q 442 -8 551 -8 m 442 108 q 569 140 513 108 q 657 231 625 172 q 689 368 689 290 q 657 505 689 447 q 569 594 625 563 q 442 626 513 626 q 315 594 371 626 q 226 505 260 563 q 193 368 193 447 q 226 231 193 290 q 315 140 260 172 q 442 108 371 108 z "},"ọ":{"ha":882,"x_min":58,"x_max":824,"o":"m 442 -8 q 244 40 331 -8 q 108 174 158 89 q 58 368 58 260 q 108 563 58 478 q 244 695 158 647 q 442 743 331 743 q 638 695 551 743 q 774 563 725 647 q 824 368 824 479 q 774 174 824 258 q 638 40 725 89 q 442 -8 551 -8 m 442 108 q 569 140 513 108 q 657 231 625 172 q 689 368 689 290 q 657 505 689 447 q 569 594 625 563 q 442 626 513 626 q 315 594 371 626 q 226 505 260 563 q 193 368 193 447 q 226 231 193 290 q 315 140 260 172 q 442 108 371 108 m 440 -272 q 390 -253 411 -272 q 369 -203 369 -233 q 390 -151 369 -171 q 440 -131 411 -131 q 490 -151 469 -131 q 511 -203 511 -171 q 490 -253 511 -233 q 440 -272 469 -272 z "},"ò":{"ha":882,"x_min":58,"x_max":824,"o":"m 442 -8 q 244 40 331 -8 q 108 174 158 89 q 58 368 58 260 q 108 563 58 478 q 244 695 158 647 q 442 743 331 743 q 638 695 551 743 q 774 563 725 647 q 824 368 824 479 q 774 174 824 258 q 638 40 725 89 q 442 -8 551 -8 m 442 108 q 569 140 513 108 q 657 231 625 172 q 689 368 689 290 q 657 505 689 447 q 569 594 625 563 q 442 626 513 626 q 315 594 371 626 q 226 505 260 563 q 193 368 193 447 q 226 231 193 290 q 315 140 260 172 q 442 108 371 108 m 419 843 l 186 1024 l 356 1024 l 544 843 l 419 843 z "},"ỏ":{"ha":882,"x_min":58,"x_max":824,"o":"m 442 -8 q 244 40 331 -8 q 108 174 158 89 q 58 368 58 260 q 108 563 58 478 q 244 695 158 647 q 442 743 331 743 q 638 695 551 743 q 774 563 725 647 q 824 368 824 479 q 774 174 824 258 q 638 40 725 89 q 442 -8 551 -8 m 442 108 q 569 140 513 108 q 657 231 625 172 q 689 368 689 290 q 657 505 689 447 q 569 594 625 563 q 442 626 513 626 q 315 594 371 626 q 226 505 260 563 q 193 368 193 447 q 226 231 193 290 q 315 140 260 172 q 442 108 371 108 m 467 831 l 421 885 q 480 927 461 904 q 499 978 499 950 q 479 1025 499 1007 q 426 1043 460 1043 q 343 1017 383 1043 l 313 1079 q 373 1108 339 1099 q 439 1118 407 1118 q 542 1083 503 1118 q 581 989 581 1047 q 553 898 581 938 q 467 831 525 858 z "},"ơ":{"ha":882,"x_min":58,"x_max":824,"o":"m 442 -8 q 244 40 331 -8 q 108 174 158 89 q 58 368 58 258 q 108 563 58 478 q 245 695 158 647 q 443 743 332 743 q 506 741 481 743 q 556 737 532 739 q 611 735 581 735 q 691 762 665 735 q 717 828 717 789 q 708 876 717 854 q 688 915 700 897 l 771 947 q 800 890 789 922 q 811 824 811 858 q 786 731 811 771 q 715 668 761 690 q 601 646 668 646 q 557 648 579 646 q 510 654 535 650 l 586 717 q 758 585 693 678 q 824 368 824 493 q 774 174 824 258 q 638 40 725 89 q 442 -8 551 -8 m 442 108 q 567 140 511 108 q 656 231 624 172 q 689 368 689 290 q 657 505 689 447 q 569 594 625 563 q 442 626 513 626 q 315 594 371 626 q 226 505 260 563 q 193 368 193 447 q 226 231 193 290 q 315 140 260 172 q 442 108 371 108 z "},"ớ":{"ha":882,"x_min":58,"x_max":824,"o":"m 442 -8 q 244 40 331 -8 q 108 174 158 89 q 58 368 58 258 q 108 563 58 478 q 245 695 158 647 q 443 743 332 743 q 506 741 481 743 q 556 737 532 739 q 611 735 581 735 q 691 762 665 735 q 717 828 717 789 q 708 876 717 854 q 688 915 700 897 l 771 947 q 800 890 789 922 q 811 824 811 858 q 786 731 811 771 q 715 668 761 690 q 601 646 668 646 q 557 648 579 646 q 510 654 535 650 l 586 717 q 758 585 693 678 q 824 368 824 493 q 774 174 824 258 q 638 40 725 89 q 442 -8 551 -8 m 442 108 q 567 140 511 108 q 656 231 624 172 q 689 368 689 290 q 657 505 689 447 q 569 594 625 563 q 442 626 513 626 q 315 594 371 626 q 226 505 260 563 q 193 368 193 447 q 226 231 193 290 q 315 140 260 172 q 442 108 371 108 m 338 843 l 526 1024 l 696 1024 l 463 843 l 338 843 z "},"ợ":{"ha":882,"x_min":58,"x_max":824,"o":"m 442 -8 q 244 40 331 -8 q 108 174 158 89 q 58 368 58 258 q 108 563 58 478 q 245 695 158 647 q 443 743 332 743 q 506 741 481 743 q 556 737 532 739 q 611 735 581 735 q 691 762 665 735 q 717 828 717 789 q 708 876 717 854 q 688 915 700 897 l 771 947 q 800 890 789 922 q 811 824 811 858 q 786 731 811 771 q 715 668 761 690 q 601 646 668 646 q 557 648 579 646 q 510 654 535 650 l 586 717 q 758 585 693 678 q 824 368 824 493 q 774 174 824 258 q 638 40 725 89 q 442 -8 551 -8 m 442 108 q 567 140 511 108 q 656 231 624 172 q 689 368 689 290 q 657 505 689 447 q 569 594 625 563 q 442 626 513 626 q 315 594 371 626 q 226 505 260 563 q 193 368 193 447 q 226 231 193 290 q 315 140 260 172 q 442 108 371 108 m 442 -272 q 392 -253 413 -272 q 371 -203 371 -233 q 392 -151 371 -171 q 442 -131 413 -131 q 492 -151 471 -131 q 513 -203 513 -171 q 492 -253 513 -233 q 442 -272 471 -272 z "},"ờ":{"ha":882,"x_min":58,"x_max":824,"o":"m 442 -8 q 244 40 331 -8 q 108 174 158 89 q 58 368 58 258 q 108 563 58 478 q 245 695 158 647 q 443 743 332 743 q 506 741 481 743 q 556 737 532 739 q 611 735 581 735 q 691 762 665 735 q 717 828 717 789 q 708 876 717 854 q 688 915 700 897 l 771 947 q 800 890 789 922 q 811 824 811 858 q 786 731 811 771 q 715 668 761 690 q 601 646 668 646 q 557 648 579 646 q 510 654 535 650 l 586 717 q 758 585 693 678 q 824 368 824 493 q 774 174 824 258 q 638 40 725 89 q 442 -8 551 -8 m 442 108 q 567 140 511 108 q 656 231 624 172 q 689 368 689 290 q 657 505 689 447 q 569 594 625 563 q 442 626 513 626 q 315 594 371 626 q 226 505 260 563 q 193 368 193 447 q 226 231 193 290 q 315 140 260 172 q 442 108 371 108 m 421 843 l 188 1024 l 357 1024 l 546 843 l 421 843 z "},"ở":{"ha":882,"x_min":58,"x_max":824,"o":"m 442 -8 q 244 40 331 -8 q 108 174 158 89 q 58 368 58 258 q 108 563 58 478 q 245 695 158 647 q 443 743 332 743 q 506 741 481 743 q 556 737 532 739 q 611 735 581 735 q 691 762 665 735 q 717 828 717 789 q 708 876 717 854 q 688 915 700 897 l 771 947 q 800 890 789 922 q 811 824 811 858 q 786 731 811 771 q 715 668 761 690 q 601 646 668 646 q 557 648 579 646 q 510 654 535 650 l 586 717 q 758 585 693 678 q 824 368 824 493 q 774 174 824 258 q 638 40 725 89 q 442 -8 551 -8 m 442 108 q 567 140 511 108 q 656 231 624 172 q 689 368 689 290 q 657 505 689 447 q 569 594 625 563 q 442 626 513 626 q 315 594 371 626 q 226 505 260 563 q 193 368 193 447 q 226 231 193 290 q 315 140 260 172 q 442 108 371 108 m 468 831 l 422 885 q 481 927 463 904 q 500 978 500 950 q 481 1025 500 1007 q 428 1043 461 1043 q 344 1017 385 1043 l 314 1079 q 374 1108 340 1099 q 440 1118 408 1118 q 543 1083 504 1118 q 582 989 582 1047 q 554 898 582 938 q 468 831 526 858 z "},"ỡ":{"ha":888,"x_min":58,"x_max":824,"o":"m 531 847 q 476 861 499 847 q 433 894 453 875 q 395 926 413 913 q 360 940 378 940 q 313 917 331 940 q 294 854 296 894 l 225 854 q 260 978 226 932 q 351 1024 294 1024 q 406 1009 382 1024 q 449 976 429 994 q 487 943 469 957 q 521 929 504 929 q 568 951 550 929 q 588 1013 586 974 l 657 1013 q 620 893 654 939 q 531 847 586 847 m 442 -8 q 244 40 331 -8 q 108 174 158 89 q 58 368 58 258 q 108 563 58 478 q 245 695 158 647 q 443 743 332 743 q 506 741 481 743 q 556 737 532 739 q 611 735 581 735 q 691 762 665 735 q 717 828 717 789 q 708 876 717 854 q 688 915 700 897 l 771 947 q 800 890 789 922 q 811 824 811 858 q 786 731 811 771 q 715 668 761 690 q 601 646 668 646 q 557 648 579 646 q 510 654 535 650 l 586 717 q 758 585 693 678 q 824 368 824 493 q 774 174 824 258 q 638 40 725 89 q 442 -8 551 -8 m 442 108 q 567 140 511 108 q 656 231 624 172 q 689 368 689 290 q 657 505 689 447 q 569 594 625 563 q 442 626 513 626 q 315 594 371 626 q 226 505 260 563 q 193 368 193 447 q 226 231 193 290 q 315 140 260 172 q 442 108 371 108 z "},"ő":{"ha":882,"x_min":58,"x_max":824,"o":"m 442 -8 q 244 40 331 -8 q 108 174 158 89 q 58 368 58 260 q 108 563 58 478 q 244 695 158 647 q 442 743 331 743 q 638 695 551 743 q 774 563 725 647 q 824 368 824 479 q 774 174 824 258 q 638 40 725 89 q 442 -8 551 -8 m 442 108 q 569 140 513 108 q 657 231 625 172 q 689 368 689 290 q 657 505 689 447 q 569 594 625 563 q 442 626 513 626 q 315 594 371 626 q 226 505 260 563 q 193 368 193 447 q 226 231 193 290 q 315 140 260 172 q 442 108 371 108 m 506 843 l 629 1024 l 769 1024 l 618 843 l 506 843 m 263 843 l 388 1024 l 529 1024 l 375 843 l 263 843 z "},"ȏ":{"ha":882,"x_min":58,"x_max":824,"o":"m 442 -8 q 244 40 331 -8 q 108 174 158 89 q 58 368 58 260 q 108 563 58 478 q 244 695 158 647 q 442 743 331 743 q 638 695 551 743 q 774 563 725 647 q 824 368 824 479 q 774 174 824 258 q 638 40 725 89 q 442 -8 551 -8 m 442 108 q 569 140 513 108 q 657 231 625 172 q 689 368 689 290 q 657 505 689 447 q 569 594 625 563 q 442 626 513 626 q 315 594 371 626 q 226 505 260 563 q 193 368 193 447 q 226 231 193 290 q 315 140 260 172 q 442 108 371 108 m 215 843 q 282 981 218 931 q 440 1032 346 1032 q 599 981 535 1032 q 665 843 663 931 l 575 843 q 534 924 574 894 q 440 954 494 954 q 347 924 386 954 q 306 843 308 894 l 215 843 z "},"ō":{"ha":882,"x_min":58,"x_max":824,"o":"m 442 -8 q 244 40 331 -8 q 108 174 158 89 q 58 368 58 260 q 108 563 58 478 q 244 695 158 647 q 442 743 331 743 q 638 695 551 743 q 774 563 725 647 q 824 368 824 479 q 774 174 824 258 q 638 40 725 89 q 442 -8 551 -8 m 442 108 q 569 140 513 108 q 657 231 625 172 q 689 368 689 290 q 657 505 689 447 q 569 594 625 563 q 442 626 513 626 q 315 594 371 626 q 226 505 260 563 q 193 368 193 447 q 226 231 193 290 q 315 140 260 172 q 442 108 371 108 m 214 892 l 214 975 l 667 975 l 667 892 l 214 892 z "},"ṓ":{"ha":882,"x_min":58,"x_max":824,"o":"m 442 -8 q 244 40 331 -8 q 108 174 158 89 q 58 368 58 260 q 108 563 58 478 q 244 695 158 647 q 442 743 331 743 q 638 695 551 743 q 774 563 725 647 q 824 368 824 479 q 774 174 824 258 q 638 40 725 89 q 442 -8 551 -8 m 442 108 q 569 140 513 108 q 657 231 625 172 q 689 368 689 290 q 657 505 689 447 q 569 594 625 563 q 442 626 513 626 q 315 594 371 626 q 226 505 260 563 q 193 368 193 447 q 226 231 193 290 q 315 140 260 172 q 442 108 371 108 z "},"ṑ":{"ha":882,"x_min":58,"x_max":824,"o":"m 442 -8 q 244 40 331 -8 q 108 174 158 89 q 58 368 58 260 q 108 563 58 478 q 244 695 158 647 q 442 743 331 743 q 638 695 551 743 q 774 563 725 647 q 824 368 824 479 q 774 174 824 258 q 638 40 725 89 q 442 -8 551 -8 m 442 108 q 569 140 513 108 q 657 231 625 172 q 689 368 689 290 q 657 505 689 447 q 569 594 625 563 q 442 626 513 626 q 315 594 371 626 q 226 505 260 563 q 193 368 193 447 q 226 231 193 290 q 315 140 260 172 q 442 108 371 108 z "},"ǫ":{"ha":882,"x_min":58,"x_max":824,"o":"m 482 -311 q 360 -272 404 -311 q 315 -174 315 -233 q 333 -96 315 -135 q 394 -21 351 -57 q 508 44 436 15 l 515 -1 q 476 -7 493 -6 q 442 -8 458 -8 q 244 40 331 -8 q 108 174 158 89 q 58 368 58 258 q 108 563 58 478 q 244 695 158 647 q 442 743 331 743 q 638 695 551 743 q 774 563 725 647 q 824 368 824 478 q 763 157 824 247 q 600 22 703 67 q 481 -44 522 -12 q 425 -104 440 -75 q 410 -160 410 -133 q 434 -215 410 -196 q 496 -233 458 -233 q 541 -226 518 -233 q 581 -210 564 -219 l 607 -278 q 549 -302 581 -293 q 482 -311 517 -311 m 442 108 q 569 140 513 108 q 657 231 625 172 q 689 368 689 290 q 657 505 689 447 q 569 594 625 563 q 442 626 513 626 q 315 594 371 626 q 226 505 260 563 q 193 368 193 447 q 226 231 193 290 q 315 140 260 172 q 442 108 371 108 z "},"ø":{"ha":882,"x_min":58,"x_max":824,"o":"m 442 -8 q 244 40 331 -8 q 108 174 158 89 q 58 368 58 260 q 108 563 58 478 q 244 695 158 647 q 442 743 331 743 q 638 695 551 743 q 774 563 725 647 q 824 368 824 479 q 774 174 824 258 q 638 40 725 89 q 442 -8 551 -8 m 442 108 q 569 140 513 108 q 657 231 625 172 q 689 368 689 290 q 657 505 689 447 q 569 594 625 563 q 442 626 513 626 q 315 594 371 626 q 226 505 260 563 q 193 368 193 447 q 226 231 193 290 q 315 140 260 172 q 442 108 371 108 m 92 -99 l 704 831 l 786 831 l 175 -99 l 92 -99 z "},"ǿ":{"ha":882,"x_min":58,"x_max":824,"o":"m 442 -8 q 244 40 331 -8 q 108 174 158 89 q 58 368 58 260 q 108 563 58 478 q 244 695 158 647 q 442 743 331 743 q 638 695 551 743 q 774 563 725 647 q 824 368 824 479 q 774 174 824 258 q 638 40 725 89 q 442 -8 551 -8 m 442 108 q 569 140 513 108 q 657 231 625 172 q 689 368 689 290 q 657 505 689 447 q 569 594 625 563 q 442 626 513 626 q 315 594 371 626 q 226 505 260 563 q 193 368 193 447 q 226 231 193 290 q 315 140 260 172 q 442 108 371 108 m 92 -99 l 704 831 l 786 831 l 175 -99 l 92 -99 m 333 843 l 522 1024 l 692 1024 l 458 843 l 333 843 z "},"õ":{"ha":882,"x_min":58,"x_max":824,"o":"m 442 -8 q 244 40 331 -8 q 108 174 158 89 q 58 368 58 260 q 108 563 58 478 q 244 695 158 647 q 442 743 331 743 q 638 695 551 743 q 774 563 725 647 q 824 368 824 479 q 774 174 824 258 q 638 40 725 89 q 442 -8 551 -8 m 442 108 q 569 140 513 108 q 657 231 625 172 q 689 368 689 290 q 657 505 689 447 q 569 594 625 563 q 442 626 513 626 q 315 594 371 626 q 226 505 260 563 q 193 368 193 447 q 226 231 193 290 q 315 140 260 172 q 442 108 371 108 m 538 847 q 478 861 504 847 q 432 894 453 875 q 392 926 411 913 q 353 940 372 940 q 303 917 322 940 q 282 854 285 894 l 207 854 q 246 978 210 932 q 343 1024 282 1024 q 403 1009 376 1024 q 450 976 429 994 q 490 943 471 957 q 528 929 508 929 q 578 951 558 929 q 599 1013 597 974 l 674 1013 q 635 893 672 939 q 538 847 599 847 z "},"ṍ":{"ha":882,"x_min":58,"x_max":824,"o":"m 442 -8 q 244 40 331 -8 q 108 174 158 89 q 58 368 58 260 q 108 563 58 478 q 244 695 158 647 q 442 743 331 743 q 638 695 551 743 q 774 563 725 647 q 824 368 824 479 q 774 174 824 258 q 638 40 725 89 q 442 -8 551 -8 m 442 108 q 569 140 513 108 q 657 231 625 172 q 689 368 689 290 q 657 505 689 447 q 569 594 625 563 q 442 626 513 626 q 315 594 371 626 q 226 505 260 563 q 193 368 193 447 q 226 231 193 290 q 315 140 260 172 q 442 108 371 108 z "},"ṏ":{"ha":882,"x_min":58,"x_max":824,"o":"m 442 -8 q 244 40 331 -8 q 108 174 158 89 q 58 368 58 260 q 108 563 58 478 q 244 695 158 647 q 442 743 331 743 q 638 695 551 743 q 774 563 725 647 q 824 368 824 479 q 774 174 824 258 q 638 40 725 89 q 442 -8 551 -8 m 442 108 q 569 140 513 108 q 657 231 625 172 q 689 368 689 290 q 657 505 689 447 q 569 594 625 563 q 442 626 513 626 q 315 594 371 626 q 226 505 260 563 q 193 368 193 447 q 226 231 193 290 q 315 140 260 172 q 442 108 371 108 z "},"ȭ":{"ha":882,"x_min":58,"x_max":824,"o":"m 442 -8 q 244 40 331 -8 q 108 174 158 89 q 58 368 58 260 q 108 563 58 478 q 244 695 158 647 q 442 743 331 743 q 638 695 551 743 q 774 563 725 647 q 824 368 824 479 q 774 174 824 258 q 638 40 725 89 q 442 -8 551 -8 m 442 108 q 569 140 513 108 q 657 231 625 172 q 689 368 689 290 q 657 505 689 447 q 569 594 625 563 q 442 626 513 626 q 315 594 371 626 q 226 505 260 563 q 193 368 193 447 q 226 231 193 290 q 315 140 260 172 q 442 108 371 108 z "},"œ":{"ha":1482,"x_min":58,"x_max":1422,"o":"m 442 -8 q 244 40 331 -8 q 108 174 158 89 q 58 368 58 258 q 108 563 58 478 q 244 695 158 647 q 442 743 331 743 q 635 695 551 743 q 765 563 718 647 q 811 368 811 478 q 765 174 811 258 q 635 40 718 89 q 442 -8 551 -8 m 442 108 q 569 140 513 108 q 657 231 625 172 q 689 368 689 290 q 657 505 689 447 q 569 594 625 563 q 442 626 513 626 q 315 594 371 626 q 226 505 260 563 q 193 368 193 447 q 226 231 193 290 q 315 140 260 172 q 442 108 371 108 m 1085 -8 q 881 40 968 -8 q 746 174 793 89 q 699 368 699 258 q 744 563 699 478 q 872 695 790 647 q 1058 743 953 743 q 1247 696 1165 743 q 1376 563 1329 649 q 1422 364 1422 478 q 1422 344 1422 356 q 1421 324 1422 333 l 794 324 l 794 419 l 1350 419 l 1297 386 q 1267 513 1299 457 q 1183 599 1236 568 q 1058 631 1129 631 q 935 599 989 631 q 851 512 882 568 q 821 383 821 456 l 821 361 q 854 230 821 288 q 949 140 888 172 q 1089 108 1010 108 q 1208 131 1154 108 q 1301 197 1263 153 l 1375 111 q 1251 22 1325 53 q 1085 -8 1178 -8 z "},"p":{"ha":947,"x_min":126,"x_max":889,"o":"m 517 -8 q 349 34 425 -8 q 228 160 274 76 q 183 368 183 243 q 227 576 183 493 q 347 701 271 660 q 517 743 422 743 q 708 696 625 743 q 840 565 792 649 q 889 368 889 481 q 840 171 889 256 q 708 39 792 86 q 517 -8 625 -8 m 126 -269 l 126 736 l 254 736 l 254 538 l 246 367 l 260 196 l 260 -269 l 126 -269 m 506 108 q 633 140 576 108 q 722 231 689 172 q 754 368 754 290 q 722 505 754 447 q 633 594 689 563 q 506 626 576 626 q 380 594 436 626 q 291 505 324 563 q 258 368 258 447 q 291 231 258 290 q 380 140 324 172 q 506 108 436 108 z "},"þ":{"ha":947,"x_min":126,"x_max":889,"o":"m 517 -8 q 349 34 425 -8 q 228 160 274 76 q 183 368 183 243 q 227 576 183 493 q 347 701 271 660 q 517 743 422 743 q 708 696 625 743 q 840 565 792 649 q 889 368 889 481 q 840 171 889 256 q 708 39 792 86 q 517 -8 625 -8 m 126 -269 l 126 1031 l 260 1031 l 260 538 l 246 367 l 260 196 l 260 -269 l 126 -269 m 506 108 q 633 140 576 108 q 722 231 689 172 q 754 368 754 290 q 722 505 754 447 q 633 594 689 563 q 506 626 576 626 q 380 594 436 626 q 291 505 324 563 q 258 368 258 447 q 291 231 258 290 q 380 140 324 172 q 506 108 436 108 z "},"q":{"ha":947,"x_min":58,"x_max":821,"o":"m 431 -8 q 240 39 324 -8 q 107 171 156 86 q 58 368 58 256 q 107 565 58 481 q 240 696 156 649 q 431 743 324 743 q 601 701 526 743 q 720 576 676 660 q 764 368 764 493 q 719 160 764 243 q 599 34 674 76 q 431 -8 524 -8 m 442 108 q 567 140 511 108 q 656 231 624 172 q 689 368 689 290 q 656 505 689 447 q 567 594 624 563 q 442 626 511 626 q 315 594 371 626 q 226 505 260 563 q 193 368 193 447 q 226 231 193 290 q 315 140 260 172 q 442 108 371 108 m 688 -269 l 688 196 l 701 367 l 693 538 l 693 736 l 821 736 l 821 -269 l 688 -269 z "},"r":{"ha":569,"x_min":126,"x_max":522,"o":"m 126 0 l 126 736 l 254 736 l 254 536 l 242 586 q 344 703 272 663 q 522 743 417 743 l 522 614 q 506 615 514 615 q 492 615 499 615 q 322 551 385 615 q 260 367 260 488 l 260 0 l 126 0 z "},"ŕ":{"ha":569,"x_min":126,"x_max":579,"o":"m 126 0 l 126 736 l 254 736 l 254 536 l 242 586 q 344 703 272 663 q 522 743 417 743 l 522 614 q 506 615 514 615 q 492 615 499 615 q 322 551 385 615 q 260 367 260 488 l 260 0 l 126 0 m 221 843 l 410 1024 l 579 1024 l 346 843 l 221 843 z "},"ř":{"ha":569,"x_min":76,"x_max":572,"o":"m 126 0 l 126 736 l 254 736 l 254 536 l 242 586 q 344 703 272 663 q 522 743 417 743 l 522 614 q 506 615 514 615 q 492 615 499 615 q 322 551 385 615 q 260 367 260 488 l 260 0 l 126 0 m 261 843 l 76 1024 l 197 1024 l 381 872 l 269 872 l 453 1024 l 574 1024 l 389 843 l 261 843 z "},"ŗ":{"ha":569,"x_min":122,"x_max":522,"o":"m 126 0 l 126 736 l 254 736 l 254 536 l 242 586 q 344 703 272 663 q 522 743 417 743 l 522 614 q 506 615 514 615 q 492 615 499 615 q 322 551 385 615 q 260 367 260 488 l 260 0 l 126 0 m 135 -365 l 181 -207 l 193 -257 q 141 -240 160 -257 q 122 -194 122 -222 q 142 -149 122 -167 q 193 -131 161 -131 q 245 -149 226 -131 q 264 -194 264 -168 q 260 -226 264 -208 q 246 -265 257 -244 l 204 -365 l 135 -365 z "},"ȑ":{"ha":569,"x_min":-6,"x_max":522,"o":"m 126 0 l 126 736 l 254 736 l 254 536 l 242 586 q 344 703 272 663 q 522 743 417 743 l 522 614 q 506 615 514 615 q 492 615 499 615 q 322 551 385 615 q 260 367 260 488 l 260 0 l 126 0 m 390 843 l 236 1024 l 378 1024 l 503 843 l 390 843 m 147 843 l -4 1024 l 136 1024 l 260 843 l 147 843 z "},"ṛ":{"ha":569,"x_min":122,"x_max":522,"o":"m 126 0 l 126 736 l 254 736 l 254 536 l 242 586 q 344 703 272 663 q 522 743 417 743 l 522 614 q 506 615 514 615 q 492 615 499 615 q 322 551 385 615 q 260 367 260 488 l 260 0 l 126 0 m 193 -272 q 143 -253 164 -272 q 122 -203 122 -233 q 143 -151 122 -171 q 193 -131 164 -131 q 243 -151 222 -131 q 264 -203 264 -171 q 243 -253 264 -233 q 193 -272 222 -272 z "},"ȓ":{"ha":569,"x_min":99,"x_max":550,"o":"m 126 0 l 126 736 l 254 736 l 254 536 l 242 586 q 344 703 272 663 q 522 743 417 743 l 522 614 q 506 615 514 615 q 492 615 499 615 q 322 551 385 615 q 260 367 260 488 l 260 0 l 126 0 m 100 843 q 167 981 103 931 q 325 1032 231 1032 q 483 981 419 1032 q 550 843 547 931 l 460 843 q 419 924 458 894 q 325 954 379 954 q 232 924 271 954 q 190 843 193 894 l 100 843 z "},"ṟ":{"ha":569,"x_min":-33,"x_max":522,"o":"m 126 0 l 126 736 l 254 736 l 254 536 l 242 586 q 344 703 272 663 q 522 743 417 743 l 522 614 q 506 615 514 615 q 492 615 499 615 q 322 551 385 615 q 260 367 260 488 l 260 0 l 126 0 m -33 -242 l -33 -157 l 419 -157 l 419 -242 l -33 -242 z "},"s":{"ha":696,"x_min":33,"x_max":656,"o":"m 338 -8 q 163 17 246 -8 q 33 78 81 42 l 89 183 q 206 129 136 151 q 347 107 275 107 q 481 133 440 107 q 522 207 522 160 q 497 261 522 242 q 431 290 472 281 q 340 308 390 300 q 240 327 290 315 q 149 360 190 339 q 82 420 107 382 q 57 522 57 458 q 94 639 57 589 q 201 716 132 689 q 364 743 269 743 q 510 726 436 743 q 632 676 585 708 l 575 571 q 471 617 525 604 q 363 629 417 629 q 232 601 275 629 q 189 528 189 572 q 215 470 189 490 q 281 439 240 450 q 372 420 322 428 q 472 401 422 413 q 563 368 522 389 q 630 310 604 347 q 656 210 656 272 q 617 94 656 143 q 507 19 578 46 q 338 -8 436 -8 z "},"ś":{"ha":696,"x_min":33,"x_max":656,"o":"m 338 -8 q 163 17 246 -8 q 33 78 81 42 l 89 183 q 206 129 136 151 q 347 107 275 107 q 481 133 440 107 q 522 207 522 160 q 497 261 522 242 q 431 290 472 281 q 340 308 390 300 q 240 327 290 315 q 149 360 190 339 q 82 420 107 382 q 57 522 57 458 q 94 639 57 589 q 201 716 132 689 q 364 743 269 743 q 510 726 436 743 q 632 676 585 708 l 575 571 q 471 617 525 604 q 363 629 417 629 q 232 601 275 629 q 189 528 189 572 q 215 470 189 490 q 281 439 240 450 q 372 420 322 428 q 472 401 422 413 q 563 368 522 389 q 630 310 604 347 q 656 210 656 272 q 617 94 656 143 q 507 19 578 46 q 338 -8 436 -8 m 240 843 l 429 1024 l 599 1024 l 365 843 l 240 843 z "},"ṥ":{"ha":696,"x_min":33,"x_max":656,"o":"m 338 -8 q 163 17 246 -8 q 33 78 81 42 l 89 183 q 206 129 136 151 q 347 107 275 107 q 481 133 440 107 q 522 207 522 160 q 497 261 522 242 q 431 290 472 281 q 340 308 390 300 q 240 327 290 315 q 149 360 190 339 q 82 420 107 382 q 57 522 57 458 q 94 639 57 589 q 201 716 132 689 q 364 743 269 743 q 510 726 436 743 q 632 676 585 708 l 575 571 q 471 617 525 604 q 363 629 417 629 q 232 601 275 629 q 189 528 189 572 q 215 470 189 490 q 281 439 240 450 q 372 420 322 428 q 472 401 422 413 q 563 368 522 389 q 630 310 604 347 q 656 210 656 272 q 617 94 656 143 q 507 19 578 46 q 338 -8 436 -8 z "},"ꞌ":{"ha":354,"x_min":111,"x_max":244,"o":"m 111 413 l 113 918 l 244 918 l 228 413 l 111 413 z "},"š":{"ha":696,"x_min":33,"x_max":656,"o":"m 338 -8 q 163 17 246 -8 q 33 78 81 42 l 89 183 q 206 129 136 151 q 347 107 275 107 q 481 133 440 107 q 522 207 522 160 q 497 261 522 242 q 431 290 472 281 q 340 308 390 300 q 240 327 290 315 q 149 360 190 339 q 82 420 107 382 q 57 522 57 458 q 94 639 57 589 q 201 716 132 689 q 364 743 269 743 q 510 726 436 743 q 632 676 585 708 l 575 571 q 471 617 525 604 q 363 629 417 629 q 232 601 275 629 q 189 528 189 572 q 215 470 189 490 q 281 439 240 450 q 372 420 322 428 q 472 401 422 413 q 563 368 522 389 q 630 310 604 347 q 656 210 656 272 q 617 94 656 143 q 507 19 578 46 q 338 -8 436 -8 m 281 843 l 96 1024 l 217 1024 l 400 872 l 289 872 l 472 1024 l 593 1024 l 408 843 l 281 843 z "},"ṧ":{"ha":696,"x_min":33,"x_max":656,"o":"m 338 -8 q 163 17 246 -8 q 33 78 81 42 l 89 183 q 206 129 136 151 q 347 107 275 107 q 481 133 440 107 q 522 207 522 160 q 497 261 522 242 q 431 290 472 281 q 340 308 390 300 q 240 327 290 315 q 149 360 190 339 q 82 420 107 382 q 57 522 57 458 q 94 639 57 589 q 201 716 132 689 q 364 743 269 743 q 510 726 436 743 q 632 676 585 708 l 575 571 q 471 617 525 604 q 363 629 417 629 q 232 601 275 629 q 189 528 189 572 q 215 470 189 490 q 281 439 240 450 q 372 420 322 428 q 472 401 422 413 q 563 368 522 389 q 630 310 604 347 q 656 210 656 272 q 617 94 656 143 q 507 19 578 46 q 338 -8 436 -8 z "},"ş":{"ha":696,"x_min":33,"x_max":656,"o":"m 338 -8 q 163 17 246 -8 q 33 78 81 42 l 89 183 q 206 129 136 151 q 347 107 275 107 q 481 133 440 107 q 522 207 522 160 q 497 261 522 242 q 431 290 472 281 q 340 308 390 300 q 240 327 290 315 q 149 360 190 339 q 82 420 107 382 q 57 522 57 458 q 94 639 57 589 q 201 716 132 689 q 364 743 269 743 q 510 726 436 743 q 632 676 585 708 l 575 571 q 471 617 525 604 q 363 629 417 629 q 232 601 275 629 q 189 528 189 572 q 215 470 189 490 q 281 439 240 450 q 372 420 322 428 q 472 401 422 413 q 563 368 522 389 q 630 310 604 347 q 656 210 656 272 q 617 94 656 143 q 507 19 578 46 q 338 -8 436 -8 m 310 -311 q 243 -303 274 -311 q 186 -281 213 -296 l 215 -212 q 260 -231 238 -225 q 310 -236 283 -236 q 369 -222 350 -236 q 388 -181 388 -207 q 369 -141 388 -156 q 308 -126 350 -126 l 271 -126 l 306 10 l 382 10 l 361 -69 q 451 -107 421 -75 q 482 -185 482 -139 q 435 -277 482 -243 q 310 -311 388 -311 z "},"ŝ":{"ha":696,"x_min":33,"x_max":656,"o":"m 338 -8 q 163 17 246 -8 q 33 78 81 42 l 89 183 q 206 129 136 151 q 347 107 275 107 q 481 133 440 107 q 522 207 522 160 q 497 261 522 242 q 431 290 472 281 q 340 308 390 300 q 240 327 290 315 q 149 360 190 339 q 82 420 107 382 q 57 522 57 458 q 94 639 57 589 q 201 716 132 689 q 364 743 269 743 q 510 726 436 743 q 632 676 585 708 l 575 571 q 471 617 525 604 q 363 629 417 629 q 232 601 275 629 q 189 528 189 572 q 215 470 189 490 q 281 439 240 450 q 372 420 322 428 q 472 401 422 413 q 563 368 522 389 q 630 310 604 347 q 656 210 656 272 q 617 94 656 143 q 507 19 578 46 q 338 -8 436 -8 m 96 843 l 281 1024 l 408 1024 l 593 843 l 472 843 l 289 996 l 400 996 l 217 843 l 96 843 z "},"ș":{"ha":696,"x_min":33,"x_max":656,"o":"m 338 -8 q 163 17 246 -8 q 33 78 81 42 l 89 183 q 206 129 136 151 q 347 107 275 107 q 481 133 440 107 q 522 207 522 160 q 497 261 522 242 q 431 290 472 281 q 340 308 390 300 q 240 327 290 315 q 149 360 190 339 q 82 420 107 382 q 57 522 57 458 q 94 639 57 589 q 201 716 132 689 q 364 743 269 743 q 510 726 436 743 q 632 676 585 708 l 575 571 q 471 617 525 604 q 363 629 417 629 q 232 601 275 629 q 189 528 189 572 q 215 470 189 490 q 281 439 240 450 q 372 420 322 428 q 472 401 422 413 q 563 368 522 389 q 630 310 604 347 q 656 210 656 272 q 617 94 656 143 q 507 19 578 46 q 338 -8 436 -8 m 286 -365 l 332 -207 l 344 -257 q 292 -240 311 -257 q 274 -194 274 -222 q 293 -149 274 -167 q 344 -131 313 -131 q 397 -149 378 -131 q 415 -194 415 -168 q 412 -226 415 -208 q 397 -265 408 -244 l 356 -365 l 286 -365 z "},"ṡ":{"ha":696,"x_min":33,"x_max":656,"o":"m 338 -8 q 163 17 246 -8 q 33 78 81 42 l 89 183 q 206 129 136 151 q 347 107 275 107 q 481 133 440 107 q 522 207 522 160 q 497 261 522 242 q 431 290 472 281 q 340 308 390 300 q 240 327 290 315 q 149 360 190 339 q 82 420 107 382 q 57 522 57 458 q 94 639 57 589 q 201 716 132 689 q 364 743 269 743 q 510 726 436 743 q 632 676 585 708 l 575 571 q 471 617 525 604 q 363 629 417 629 q 232 601 275 629 q 189 528 189 572 q 215 470 189 490 q 281 439 240 450 q 372 420 322 428 q 472 401 422 413 q 563 368 522 389 q 630 310 604 347 q 656 210 656 272 q 617 94 656 143 q 507 19 578 46 q 338 -8 436 -8 m 344 868 q 286 892 310 868 q 263 950 263 915 q 286 1008 263 985 q 344 1032 310 1032 q 403 1008 379 1032 q 426 950 426 985 q 403 892 426 915 q 344 868 379 868 z "},"ṣ":{"ha":696,"x_min":33,"x_max":656,"o":"m 338 -8 q 163 17 246 -8 q 33 78 81 42 l 89 183 q 206 129 136 151 q 347 107 275 107 q 481 133 440 107 q 522 207 522 160 q 497 261 522 242 q 431 290 472 281 q 340 308 390 300 q 240 327 290 315 q 149 360 190 339 q 82 420 107 382 q 57 522 57 458 q 94 639 57 589 q 201 716 132 689 q 364 743 269 743 q 510 726 436 743 q 632 676 585 708 l 575 571 q 471 617 525 604 q 363 629 417 629 q 232 601 275 629 q 189 528 189 572 q 215 470 189 490 q 281 439 240 450 q 372 420 322 428 q 472 401 422 413 q 563 368 522 389 q 630 310 604 347 q 656 210 656 272 q 617 94 656 143 q 507 19 578 46 q 338 -8 436 -8 m 344 -272 q 294 -253 315 -272 q 274 -203 274 -233 q 294 -151 274 -171 q 344 -131 315 -131 q 394 -151 374 -131 q 415 -203 415 -171 q 394 -253 415 -233 q 344 -272 374 -272 z "},"ṩ":{"ha":696,"x_min":33,"x_max":656,"o":"m 338 -8 q 163 17 246 -8 q 33 78 81 42 l 89 183 q 206 129 136 151 q 347 107 275 107 q 481 133 440 107 q 522 207 522 160 q 497 261 522 242 q 431 290 472 281 q 340 308 390 300 q 240 327 290 315 q 149 360 190 339 q 82 420 107 382 q 57 522 57 458 q 94 639 57 589 q 201 716 132 689 q 364 743 269 743 q 510 726 436 743 q 632 676 585 708 l 575 571 q 471 617 525 604 q 363 629 417 629 q 232 601 275 629 q 189 528 189 572 q 215 470 189 490 q 281 439 240 450 q 372 420 322 428 q 472 401 422 413 q 563 368 522 389 q 630 310 604 347 q 656 210 656 272 q 617 94 656 143 q 507 19 578 46 q 338 -8 436 -8 m 344 -272 q 294 -253 315 -272 q 274 -203 274 -233 q 294 -151 274 -171 q 344 -131 315 -131 q 394 -151 374 -131 q 415 -203 415 -171 q 394 -253 415 -233 q 344 -272 374 -272 m 344 868 q 286 892 310 868 q 263 950 263 915 q 286 1008 263 985 q 344 1032 310 1032 q 403 1008 379 1032 q 426 950 426 985 q 403 892 426 915 q 344 868 379 868 z "}}}
